#define maid_welcome1_width 199
#define maid_welcome1_height 253
static char maid_welcome1_bits[] = {
   0x00, 0x00, 0x00, 0x00, 0x00, 0x00, 0x00, 0x00, 0x00, 0x00, 0x00, 0x00,
   0x00, 0x00, 0x00, 0x00, 0x00, 0x00, 0x00, 0x00, 0x00, 0x00, 0x00, 0x00,
   0x00, 0x00, 0x00, 0x00, 0x00, 0x00, 0x00, 0x00, 0x00, 0x00, 0x00, 0x00,
   0x00, 0x00, 0x00, 0x00, 0x00, 0x00, 0x00, 0x00, 0x00, 0x00, 0x00, 0x00,
   0x00, 0x00, 0x00, 0x00, 0x00, 0x00, 0x00, 0x00, 0x00, 0x00, 0x00, 0x00,
   0x00, 0x00, 0x00, 0x00, 0x00, 0x00, 0x00, 0x00, 0x00, 0x00, 0x00, 0x00,
   0x00, 0x00, 0x00, 0x00, 0x00, 0x00, 0x00, 0x00, 0x00, 0x00, 0x00, 0x00,
   0x00, 0x00, 0x00, 0x00, 0x00, 0x00, 0x00, 0x00, 0x00, 0x00, 0x00, 0x00,
   0x00, 0x00, 0x00, 0x00, 0x00, 0x00, 0x00, 0x00, 0x00, 0x00, 0x00, 0x00,
   0x00, 0x00, 0x00, 0x00, 0x00, 0x00, 0x00, 0x00, 0x00, 0x00, 0x00, 0x00,
   0x00, 0x00, 0x00, 0x00, 0x00, 0x00, 0x00, 0x00, 0x00, 0x00, 0x00, 0x00,
   0x00, 0x00, 0x00, 0x00, 0x00, 0x00, 0x00, 0x00, 0x00, 0x00, 0x00, 0x00,
   0x00, 0x00, 0x00, 0x00, 0x00, 0x00, 0x00, 0x00, 0x00, 0x00, 0x00, 0x00,
   0x00, 0x00, 0x00, 0x00, 0x00, 0x00, 0x00, 0x00, 0x00, 0x00, 0x00, 0x00,
   0x00, 0x00, 0x00, 0x00, 0x00, 0x00, 0x00, 0x00, 0x00, 0x00, 0x00, 0x00,
   0x00, 0x00, 0x00, 0x00, 0x00, 0x00, 0x00, 0x00, 0x00, 0x00, 0x00, 0x00,
   0x00, 0x00, 0x00, 0x00, 0x00, 0x00, 0x00, 0x00, 0x00, 0x00, 0x00, 0x00,
   0x00, 0x00, 0x00, 0x00, 0x00, 0x00, 0x00, 0x00, 0x00, 0x00, 0x00, 0x00,
   0x00, 0x00, 0x00, 0x00, 0x00, 0x00, 0x00, 0x00, 0x00, 0x00, 0x00, 0x00,
   0x00, 0x00, 0x00, 0x00, 0x00, 0x00, 0x00, 0x00, 0x00, 0x00, 0x00, 0x00,
   0x00, 0x00, 0x00, 0x00, 0x00, 0x00, 0x00, 0x00, 0x00, 0x00, 0x00, 0x00,
   0x00, 0x00, 0x00, 0x00, 0x00, 0x00, 0x00, 0x00, 0x00, 0x00, 0x00, 0x00,
   0x00, 0x00, 0x00, 0x00, 0x00, 0x00, 0x00, 0x00, 0x00, 0x00, 0x00, 0x00,
   0x00, 0x00, 0x00, 0x00, 0x00, 0x00, 0x00, 0x00, 0x00, 0x00, 0x00, 0x00,
   0x00, 0x00, 0x00, 0x00, 0x00, 0x00, 0x00, 0x00, 0x00, 0x00, 0x00, 0x00,
   0x00, 0x00, 0x00, 0x00, 0x00, 0x00, 0x00, 0x00, 0x00, 0x00, 0x00, 0x00,
   0x00, 0x00, 0x00, 0x00, 0x00, 0x00, 0x00, 0x00, 0x00, 0x00, 0x00, 0x00,
   0x00, 0x00, 0x00, 0x00, 0x00, 0x00, 0x00, 0x00, 0x00, 0x00, 0x00, 0x70,
   0x00, 0x00, 0x00, 0x00, 0x00, 0x00, 0x00, 0x00, 0x00, 0x00, 0x00, 0x00,
   0x00, 0x00, 0x00, 0x00, 0x00, 0x00, 0x00, 0x00, 0x00, 0x00, 0x00, 0x00,
   0xf0, 0x00, 0x00, 0x00, 0x00, 0x00, 0x00, 0x00, 0x00, 0x00, 0x00, 0x00,
   0x00, 0x00, 0x00, 0x00, 0x00, 0x00, 0x00, 0x00, 0x00, 0x00, 0x00, 0x00,
   0x00, 0x58, 0x03, 0x00, 0x00, 0x00, 0x10, 0x00, 0x00, 0x00, 0x00, 0x00,
   0x00, 0x00, 0x00, 0x00, 0x00, 0x00, 0x00, 0x00, 0x00, 0x00, 0x00, 0x00,
   0x00, 0x00, 0x04, 0x1c, 0x00, 0x00, 0x00, 0x20, 0x00, 0x00, 0x00, 0x00,
   0x00, 0x00, 0x00, 0x00, 0x00, 0x00, 0x00, 0x00, 0x00, 0x00, 0x00, 0x00,
   0x00, 0x00, 0x00, 0x06, 0xb0, 0x00, 0x02, 0x00, 0x3c, 0x00, 0x00, 0x00,
   0x00, 0x00, 0x00, 0x00, 0x00, 0x00, 0x00, 0x00, 0x00, 0x00, 0x00, 0x00,
   0x00, 0x00, 0x00, 0x00, 0x06, 0x60, 0x01, 0x07, 0x80, 0xd7, 0x00, 0x00,
   0x00, 0x00, 0x00, 0x00, 0x00, 0x00, 0x00, 0x00, 0x00, 0x00, 0x00, 0x00,
   0x00, 0x00, 0x00, 0x00, 0x00, 0x03, 0x00, 0xee, 0x04, 0x60, 0x85, 0x00,
   0x00, 0x00, 0x00, 0x00, 0x00, 0x00, 0x00, 0x00, 0x00, 0x00, 0x00, 0x00,
   0x00, 0x00, 0x00, 0x00, 0x00, 0x80, 0x00, 0x00, 0x70, 0x18, 0x5a, 0xc0,
   0x00, 0x00, 0x00, 0x00, 0x00, 0x00, 0x00, 0x00, 0x00, 0x00, 0x00, 0x00,
   0x00, 0x00, 0x00, 0x00, 0x00, 0x00, 0xc0, 0x00, 0x00, 0x00, 0xb0, 0x0f,
   0x80, 0x00, 0x00, 0x00, 0x00, 0x00, 0x00, 0x00, 0x00, 0x00, 0x00, 0x00,
   0x00, 0x00, 0x00, 0x00, 0x00, 0x00, 0x00, 0x80, 0x01, 0x00, 0x00, 0xf0,
   0x00, 0x00, 0x01, 0x00, 0x00, 0x00, 0x00, 0x00, 0x00, 0x00, 0x00, 0x00,
   0x00, 0x00, 0x00, 0x00, 0x00, 0x00, 0x00, 0x40, 0x30, 0x00, 0x00, 0x00,
   0x80, 0x00, 0x00, 0x01, 0x00, 0x00, 0x00, 0x00, 0x00, 0x00, 0x00, 0x00,
   0x00, 0x00, 0x00, 0x00, 0x00, 0x00, 0x00, 0x00, 0xc0, 0x1f, 0x00, 0x0c,
   0x20, 0x00, 0x00, 0x80, 0x00, 0x00, 0x00, 0x00, 0x00, 0x00, 0x00, 0x00,
   0x00, 0x00, 0x00, 0x00, 0x00, 0x00, 0x00, 0x00, 0x00, 0x20, 0x09, 0x00,
   0xfe, 0xed, 0x02, 0x00, 0x00, 0x01, 0x00, 0x00, 0x00, 0x00, 0x00, 0x00,
   0x00, 0x00, 0x00, 0x00, 0x00, 0x00, 0x00, 0x00, 0x00, 0x00, 0x30, 0x10,
   0x10, 0xff, 0xff, 0x37, 0x00, 0x00, 0x02, 0x00, 0x00, 0x00, 0x00, 0x00,
   0x00, 0x00, 0x00, 0x00, 0x00, 0x00, 0x00, 0x00, 0x00, 0x00, 0x00, 0x20,
   0x00, 0xf6, 0xef, 0x7f, 0xfd, 0x03, 0x00, 0x02, 0x00, 0x00, 0x00, 0x00,
   0x00, 0x00, 0x00, 0x00, 0x00, 0x00, 0x00, 0x00, 0x00, 0x00, 0x00, 0x10,
   0x11, 0x80, 0xff, 0x29, 0xdf, 0xff, 0x1f, 0x00, 0x02, 0x00, 0x00, 0x00,
   0x00, 0x00, 0x00, 0x00, 0x00, 0x00, 0x00, 0x00, 0x00, 0x00, 0x00, 0x50,
   0x77, 0x1d, 0xe0, 0xfd, 0xd5, 0xfa, 0xaa, 0xfe, 0x01, 0x06, 0x00, 0x00,
   0x00, 0x00, 0x00, 0x00, 0x00, 0x00, 0x00, 0x00, 0x00, 0x00, 0x00, 0x00,
   0xd8, 0x44, 0x0a, 0xfc, 0x7f, 0xad, 0xf6, 0x4b, 0xf5, 0x0b, 0x0c, 0x00,
   0x00, 0x00, 0x00, 0x00, 0x00, 0x00, 0x00, 0x00, 0x00, 0x00, 0x00, 0x00,
   0x00, 0x04, 0x00, 0x00, 0xbc, 0x6f, 0xb2, 0x92, 0x5f, 0xa5, 0x1f, 0x4c,
   0x00, 0x00, 0x00, 0x00, 0x00, 0x00, 0x00, 0x00, 0x00, 0x00, 0x00, 0x00,
   0x00, 0x00, 0x08, 0x00, 0xc0, 0xab, 0xaf, 0x2a, 0x6d, 0xbf, 0xab, 0x3d,
   0xf0, 0x05, 0x00, 0x00, 0x00, 0x00, 0x00, 0x00, 0x00, 0x00, 0x00, 0x00,
   0x00, 0x00, 0x00, 0x08, 0x00, 0xc0, 0xd7, 0xab, 0x5a, 0x93, 0xbe, 0x54,
   0xba, 0x00, 0x06, 0x00, 0x00, 0x00, 0x00, 0x00, 0x00, 0x00, 0x00, 0x00,
   0x00, 0x00, 0x00, 0x00, 0x04, 0x00, 0xf8, 0xfe, 0xdb, 0xd5, 0xd6, 0xfa,
   0xb7, 0xf5, 0x00, 0x08, 0x00, 0x00, 0x00, 0x00, 0x00, 0x00, 0x00, 0x00,
   0x00, 0x00, 0x00, 0x00, 0x00, 0x04, 0x00, 0xf9, 0xff, 0x54, 0x56, 0xd5,
   0xea, 0x4b, 0xd5, 0x01, 0x08, 0x00, 0x00, 0x00, 0x00, 0x00, 0x00, 0x00,
   0x00, 0x00, 0x00, 0x00, 0x00, 0x00, 0x0c, 0x00, 0xfd, 0xbf, 0x56, 0x65,
   0x2d, 0xfb, 0xb7, 0xe4, 0x0f, 0x08, 0x00, 0x00, 0x00, 0x00, 0x00, 0x00,
   0x00, 0x00, 0x00, 0x00, 0x00, 0x00, 0x00, 0x08, 0xc0, 0xff, 0x52, 0x55,
   0x5b, 0x52, 0x4b, 0x7f, 0x9b, 0x0f, 0x04, 0x00, 0x00, 0x00, 0x00, 0x00,
   0x00, 0x00, 0x00, 0x00, 0x00, 0x00, 0x00, 0x00, 0x04, 0xc0, 0x3e, 0x55,
   0xa9, 0xa6, 0x6d, 0x55, 0xbd, 0x44, 0x1e, 0x08, 0x00, 0x00, 0x00, 0x00,
   0x00, 0x00, 0x00, 0x00, 0x00, 0x00, 0x00, 0x00, 0x00, 0x08, 0xe0, 0x5e,
   0x5d, 0xb7, 0x54, 0xda, 0x54, 0xff, 0xb5, 0x3b, 0x18, 0x00, 0x00, 0x00,
   0x00, 0x00, 0x00, 0x00, 0x00, 0x00, 0x00, 0x00, 0x00, 0x00, 0x0c, 0xf0,
   0xdd, 0x2a, 0x69, 0xd5, 0xa5, 0x5e, 0xf5, 0x54, 0x75, 0xb0, 0x01, 0x00,
   0x00, 0x00, 0x00, 0x00, 0x00, 0x00, 0x00, 0x00, 0x00, 0x00, 0x00, 0x04,
   0x3c, 0x5f, 0xd2, 0x96, 0x5b, 0xaa, 0xaa, 0xfd, 0x57, 0xe5, 0x80, 0x01,
   0x00, 0x00, 0x00, 0x00, 0x00, 0x00, 0x00, 0x00, 0x00, 0x00, 0x00, 0x00,
   0x02, 0xbe, 0xb8, 0x36, 0xa9, 0x54, 0xbd, 0x32, 0xe9, 0x57, 0xda, 0x01,
   0x02, 0x00, 0x00, 0x00, 0x00, 0x00, 0x00, 0x00, 0x00, 0x00, 0x00, 0x00,
   0x00, 0x04, 0x5e, 0xde, 0x76, 0x57, 0xdb, 0xa2, 0xd7, 0xf6, 0x5f, 0xab,
   0x03, 0x0e, 0x00, 0x00, 0x00, 0x00, 0x00, 0x00, 0x00, 0x00, 0x00, 0x00,
   0x00, 0x00, 0x04, 0xa3, 0xaf, 0x52, 0xa9, 0xaa, 0xad, 0xaf, 0xcd, 0x7f,
   0xd2, 0x01, 0x7c, 0x00, 0x00, 0x00, 0x00, 0x00, 0x00, 0x00, 0x00, 0x00,
   0x00, 0x00, 0x00, 0xc6, 0x57, 0x3d, 0x95, 0xda, 0x5a, 0x35, 0xb5, 0x95,
   0x46, 0x4a, 0x06, 0x20, 0x00, 0x00, 0x00, 0x00, 0x00, 0x00, 0x00, 0x00,
   0x00, 0x00, 0x00, 0x80, 0x86, 0x55, 0x5c, 0x6d, 0xb7, 0xaa, 0x56, 0x75,
   0x11, 0x78, 0x80, 0x07, 0x70, 0x00, 0x00, 0x00, 0x00, 0x00, 0x00, 0x00,
   0x00, 0x00, 0x00, 0x00, 0x98, 0xc3, 0xb5, 0x7a, 0x33, 0x55, 0xb5, 0xd5,
   0x64, 0x80, 0xba, 0x25, 0x0e, 0xa0, 0x00, 0x00, 0x00, 0x00, 0x00, 0x00,
   0x00, 0x00, 0x00, 0x00, 0x00, 0x78, 0xe0, 0x4b, 0xbf, 0x55, 0x55, 0x4b,
   0x55, 0x0a, 0x26, 0xfa, 0xd9, 0x1e, 0x00, 0x00, 0x00, 0x00, 0x00, 0x00,
   0x00, 0x00, 0x00, 0x00, 0x00, 0x00, 0x58, 0xe0, 0xb4, 0x7a, 0xed, 0x95,
   0xb4, 0x04, 0x21, 0xc8, 0xfe, 0xab, 0x1d, 0x80, 0x00, 0x00, 0x00, 0x00,
   0x00, 0x00, 0x00, 0x00, 0x00, 0x00, 0x00, 0x10, 0xe0, 0xaa, 0x7a, 0x2a,
   0x75, 0x57, 0x21, 0x80, 0x5c, 0xfd, 0x5f, 0x3a, 0x00, 0x00, 0x00, 0x00,
   0x00, 0x00, 0x00, 0x00, 0x00, 0x00, 0x00, 0x00, 0x30, 0xb0, 0xaa, 0xba,
   0x56, 0x8d, 0x0a, 0x04, 0x2d, 0xfb, 0xff, 0xb7, 0x3e, 0x80, 0x00, 0x00,
   0x00, 0x00, 0x00, 0x00, 0x00, 0x00, 0x00, 0x00, 0x00, 0x10, 0xb8, 0x56,
   0xf5, 0x55, 0x73, 0x81, 0x40, 0xd1, 0x7e, 0xf9, 0xd7, 0x62, 0x80, 0x00,
   0x00, 0x00, 0x00, 0x00, 0x00, 0x00, 0x00, 0x00, 0x00, 0x00, 0x20, 0x70,
   0xd9, 0xfa, 0xe6, 0x04, 0x28, 0x32, 0xa4, 0xfa, 0xfe, 0xaf, 0xfa, 0x40,
   0x00, 0x00, 0x00, 0x00, 0x00, 0x00, 0x00, 0x00, 0x00, 0x00, 0x00, 0x60,
   0xd8, 0x56, 0x75, 0x2d, 0x8a, 0x82, 0xc4, 0xab, 0xea, 0xf7, 0xaf, 0xe5,
   0x40, 0x00, 0x00, 0x00, 0x00, 0x00, 0x00, 0x00, 0x00, 0x00, 0x00, 0x00,
   0x70, 0x38, 0x95, 0xf4, 0x25, 0x20, 0x68, 0x54, 0x6d, 0xd5, 0xff, 0x4f,
   0xd5, 0x01, 0x00, 0x00, 0x00, 0x00, 0x00, 0x00, 0x00, 0x00, 0x00, 0x00,
   0x00, 0x38, 0xcc, 0xaa, 0xca, 0x85, 0x90, 0xf0, 0xbb, 0x5a, 0xf5, 0xf7,
   0x5f, 0xa5, 0x41, 0x00, 0x00, 0x00, 0x00, 0x00, 0x00, 0x00, 0x00, 0x00,
   0x00, 0x00, 0x10, 0xb8, 0x6a, 0xf7, 0x11, 0x04, 0xfa, 0x4f, 0xa5, 0xad,
   0xff, 0x7f, 0xad, 0x41, 0x00, 0x00, 0x00, 0x00, 0x00, 0x00, 0x00, 0x00,
   0x00, 0x00, 0x00, 0x0e, 0xac, 0xaa, 0xe8, 0x87, 0x30, 0xfd, 0x7f, 0x5b,
   0xd6, 0xfe, 0x5f, 0xeb, 0x21, 0x00, 0x00, 0x00, 0x00, 0x00, 0x00, 0x00,
   0x00, 0x00, 0x00, 0x00, 0x02, 0xac, 0xd2, 0xc2, 0x03, 0xd5, 0x7a, 0x5f,
   0xb5, 0xaa, 0xff, 0xbf, 0x54, 0x66, 0x00, 0x00, 0x00, 0x00, 0x00, 0x00,
   0x00, 0x00, 0x00, 0x00, 0x00, 0x00, 0x5e, 0x85, 0x48, 0x57, 0xd5, 0xfa,
   0xda, 0xaa, 0x2a, 0xff, 0x7f, 0xb7, 0x67, 0x00, 0x00, 0x00, 0x00, 0x00,
   0x00, 0x00, 0x00, 0x00, 0x00, 0x00, 0x01, 0x56, 0x0a, 0x73, 0xa7, 0x4a,
   0xf2, 0x7c, 0xab, 0xbd, 0xfd, 0xff, 0xaa, 0x63, 0x00, 0x00, 0x00, 0x00,
   0x00, 0x00, 0x00, 0x00, 0x00, 0x00, 0xc0, 0x00, 0x23, 0x40, 0x71, 0x5e,
   0xbb, 0xf5, 0xf9, 0x55, 0x65, 0xfd, 0xbf, 0xac, 0xee, 0x00, 0x00, 0x00,
   0x00, 0x00, 0x00, 0x00, 0x00, 0x00, 0x00, 0x20, 0x00, 0x85, 0xc8, 0x38,
   0x5e, 0x52, 0xff, 0xe1, 0xbb, 0x5b, 0xeb, 0xff, 0xaa, 0xc6, 0x00, 0x00,
   0x00, 0x00, 0x00, 0x00, 0x00, 0x00, 0x00, 0x00, 0x20, 0x80, 0x13, 0xe1,
   0x19, 0xdc, 0xcb, 0xf2, 0xc5, 0xab, 0xb2, 0xfa, 0x7f, 0x4a, 0xad, 0x00,
   0x00, 0x00, 0x00, 0x00, 0x00, 0x00, 0x00, 0x00, 0x00, 0x10, 0x00, 0x01,
   0x40, 0x1c, 0x78, 0xaa, 0xfe, 0x81, 0xab, 0xab, 0xea, 0x7f, 0x5d, 0xf6,
   0x00, 0x00, 0x00, 0x00, 0x00, 0x00, 0x00, 0x00, 0x00, 0x00, 0x10, 0x80,
   0x81, 0xc4, 0x3f, 0xb8, 0xba, 0xf2, 0x94, 0x5e, 0x5a, 0xf3, 0xbf, 0xab,
   0xfd, 0x00, 0x00, 0x00, 0x00, 0x00, 0x00, 0x00, 0x00, 0x00, 0x00, 0x18,
   0x80, 0x08, 0xc8, 0x0d, 0xb8, 0x26, 0xfd, 0x01, 0xbc, 0xd6, 0xee, 0xff,
   0x6a, 0xfc, 0x00, 0x00, 0x00, 0x00, 0x00, 0x00, 0x00, 0x00, 0x00, 0x00,
   0x08, 0x80, 0x23, 0xd1, 0x1f, 0xf8, 0xbb, 0xe2, 0x03, 0xbd, 0x5a, 0xb2,
   0xff, 0xaa, 0xab, 0x00, 0x00, 0x00, 0x00, 0x00, 0x00, 0x00, 0x00, 0x00,
   0x00, 0x20, 0xc0, 0x21, 0xf4, 0x03, 0xfc, 0xd4, 0xfd, 0x0b, 0xf8, 0xd5,
   0xf5, 0x7f, 0xab, 0xaa, 0x01, 0x00, 0x00, 0x00, 0x00, 0x00, 0x00, 0x00,
   0x00, 0x00, 0x60, 0xc0, 0x84, 0xdb, 0x8f, 0xe2, 0x45, 0xea, 0x03, 0xf0,
   0x57, 0xd6, 0xff, 0xa9, 0x5d, 0x01, 0x00, 0x00, 0x00, 0x00, 0x00, 0x00,
   0x00, 0x00, 0x00, 0x60, 0xc0, 0x40, 0xea, 0x47, 0xc3, 0xb7, 0xd5, 0x07,
   0xc0, 0xd7, 0x5a, 0xff, 0x56, 0xd7, 0x01, 0x00, 0x00, 0x00, 0x00, 0x00,
   0x00, 0x00, 0x00, 0x00, 0x80, 0xc0, 0xb4, 0xea, 0x83, 0x80, 0xb7, 0xd6,
   0x0b, 0x80, 0xbf, 0xd5, 0xff, 0xb6, 0xa6, 0x03, 0x00, 0x00, 0x00, 0x00,
   0x00, 0x00, 0x00, 0x00, 0x00, 0x80, 0xc1, 0xab, 0xda, 0xd7, 0x00, 0xbb,
   0xe5, 0x0b, 0x00, 0xbd, 0x37, 0xff, 0x95, 0xbe, 0x03, 0x00, 0x00, 0x00,
   0x00, 0x00, 0x00, 0x00, 0x00, 0x00, 0x00, 0xc1, 0x4a, 0xd5, 0x33, 0x00,
   0x47, 0xaa, 0x07, 0x00, 0x7e, 0x5a, 0xff, 0xad, 0xde, 0x03, 0x00, 0x00,
   0x00, 0x00, 0x00, 0x00, 0x00, 0x00, 0x00, 0x00, 0x86, 0x55, 0xf5, 0x0b,
   0x00, 0x5c, 0x5d, 0x07, 0x00, 0xf8, 0xdb, 0xfd, 0xb5, 0x9f, 0x03, 0x00,
   0x00, 0x00, 0x00, 0x00, 0x00, 0x00, 0x00, 0x00, 0x00, 0xcf, 0xb5, 0xd5,
   0x13, 0x00, 0xbc, 0xd5, 0x0f, 0x00, 0xe4, 0xa7, 0xff, 0x69, 0x7f, 0x07,
   0x00, 0x00, 0x00, 0x00, 0x00, 0x00, 0x00, 0x00, 0x00, 0x00, 0xcf, 0x55,
   0xed, 0x0f, 0x00, 0x58, 0xb5, 0x0f, 0x40, 0xf5, 0x6f, 0xfd, 0x95, 0xfc,
   0x07, 0x00, 0x00, 0x00, 0x00, 0x00, 0x00, 0x00, 0x00, 0x00, 0x00, 0x45,
   0x69, 0xcb, 0x03, 0x00, 0x70, 0x4b, 0x0e, 0x80, 0xf8, 0xaf, 0xff, 0xb5,
   0xbf, 0x03, 0x00, 0x00, 0x00, 0x00, 0x00, 0x00, 0x00, 0x00, 0x00, 0x00,
   0xde, 0x96, 0xf4, 0x03, 0x00, 0x70, 0xd5, 0x0f, 0x40, 0xfe, 0x7f, 0xf5,
   0x6f, 0xbf, 0x0f, 0x00, 0x00, 0x00, 0x00, 0x00, 0x00, 0x00, 0x00, 0x00,
   0x00, 0xde, 0x69, 0xcd, 0x01, 0x00, 0x68, 0xb7, 0x3e, 0x20, 0xfe, 0xbf,
   0xfd, 0x2b, 0xff, 0x07, 0x00, 0x00, 0x00, 0x00, 0x00, 0x00, 0x00, 0x00,
   0x00, 0x00, 0xf3, 0x96, 0xd6, 0x01, 0x00, 0xe0, 0x4a, 0x1f, 0x80, 0xff,
   0x7f, 0xf6, 0xeb, 0xbf, 0x07, 0x00, 0x00, 0x00, 0x00, 0x00, 0x00, 0x00,
   0x00, 0x00, 0x00, 0xcf, 0xb9, 0xb5, 0x03, 0xa8, 0xb9, 0x55, 0x1f, 0x80,
   0xff, 0xff, 0xdb, 0x2f, 0xff, 0x07, 0x00, 0x00, 0x00, 0x00, 0x00, 0x00,
   0x00, 0x00, 0x00, 0x00, 0xef, 0xb6, 0xf4, 0x00, 0xfa, 0xc7, 0xbb, 0x1e,
   0x80, 0xff, 0xff, 0xf5, 0x53, 0xff, 0x0f, 0x00, 0x00, 0x00, 0x00, 0x00,
   0x00, 0x00, 0x00, 0x00, 0x00, 0x7f, 0x4f, 0xcb, 0x81, 0xff, 0x9f, 0x67,
   0x1e, 0xe0, 0xff, 0xff, 0xcd, 0xdf, 0xff, 0x07, 0x00, 0x00, 0x00, 0x00,
   0x00, 0x00, 0x00, 0x00, 0x00, 0x00, 0x7b, 0xad, 0xd6, 0xc1, 0xff, 0x7f,
   0xbf, 0x0d, 0x80, 0xf3, 0xdf, 0xf7, 0xdf, 0xff, 0x03, 0x00, 0x00, 0x00,
   0x00, 0x00, 0x00, 0x00, 0x00, 0x00, 0x00, 0x6e, 0xef, 0xf4, 0xc3, 0xff,
   0xff, 0x4c, 0x1e, 0x20, 0xc0, 0x7f, 0xef, 0xd3, 0xff, 0x07, 0x00, 0x00,
   0x00, 0x00, 0x00, 0x00, 0x00, 0x00, 0x00, 0x00, 0xde, 0x5e, 0xd5, 0xf1,
   0xff, 0xff, 0xbf, 0x3e, 0x00, 0xf4, 0x3f, 0xfe, 0xbf, 0xff, 0x03, 0x00,
   0x00, 0x00, 0x00, 0x00, 0x00, 0x00, 0x00, 0x00, 0x00, 0xbb, 0x9a, 0xd6,
   0xf3, 0xff, 0xff, 0x7d, 0x3d, 0x00, 0xfc, 0x3f, 0xfc, 0xef, 0xff, 0x03,
   0x00, 0x00, 0x00, 0x00, 0x00, 0x00, 0x00, 0x00, 0x00, 0x00, 0x2e, 0xbf,
   0xf6, 0xf3, 0xfc, 0xff, 0x73, 0x3b, 0x00, 0xff, 0x7f, 0xf8, 0xdf, 0xff,
   0x03, 0x00, 0x00, 0x00, 0x00, 0x00, 0x00, 0x00, 0x00, 0x00, 0x00, 0x7c,
   0x7f, 0xf5, 0xfd, 0xf8, 0xff, 0xf1, 0x3a, 0x00, 0xfe, 0x7f, 0xe8, 0xdf,
   0xff, 0x03, 0x00, 0x00, 0x00, 0x00, 0x00, 0x00, 0x00, 0x00, 0x00, 0x00,
   0xde, 0x7e, 0xd5, 0xfb, 0x89, 0xff, 0xe0, 0x7a, 0x00, 0xee, 0x3d, 0xe0,
   0xff, 0xff, 0x03, 0x00, 0x00, 0x00, 0x00, 0x00, 0x00, 0x00, 0x00, 0x00,
   0x00, 0xfc, 0xff, 0xf5, 0x7f, 0x80, 0xff, 0x81, 0x77, 0x00, 0x7e, 0x7b,
   0xc0, 0xff, 0xff, 0x03, 0x00, 0x00, 0x00, 0x00, 0x00, 0x00, 0x00, 0x00,
   0x00, 0x00, 0x7c, 0xfe, 0xd5, 0x3f, 0xd0, 0xff, 0x81, 0x3b, 0x00, 0xbe,
   0x7f, 0xc0, 0xff, 0xff, 0x03, 0x00, 0x00, 0x00, 0x00, 0x00, 0x00, 0x00,
   0x00, 0x00, 0x00, 0x7c, 0xbf, 0xfa, 0xff, 0xf0, 0xff, 0x01, 0xf7, 0x00,
   0xfc, 0x7e, 0x80, 0xff, 0xff, 0x03, 0x00, 0x00, 0x00, 0x00, 0x00, 0x00,
   0x00, 0x00, 0x00, 0x00, 0xfe, 0xff, 0xed, 0x3f, 0xf0, 0xff, 0x01, 0x7c,
   0x00, 0xb8, 0x3d, 0x80, 0xff, 0xff, 0x03, 0x00, 0x00, 0x00, 0x00, 0x00,
   0x00, 0x00, 0x00, 0x00, 0x00, 0x7e, 0xff, 0xeb, 0x3f, 0xf8, 0xff, 0x03,
   0xfc, 0x00, 0xf8, 0x7f, 0xe0, 0xff, 0xff, 0x03, 0x00, 0x00, 0x00, 0x00,
   0x00, 0x00, 0x00, 0x00, 0x00, 0x00, 0xfe, 0xff, 0xf3, 0x3f, 0xf0, 0xff,
   0x03, 0x78, 0x00, 0xf0, 0x3f, 0xfc, 0xff, 0xff, 0x03, 0x00, 0x00, 0x00,
   0x00, 0x00, 0x00, 0x00, 0x00, 0x00, 0x00, 0xfc, 0xff, 0xef, 0x7f, 0xe0,
   0xf6, 0x01, 0xe0, 0x00, 0xe0, 0x3f, 0xfe, 0xff, 0xff, 0x03, 0x00, 0x00,
   0x00, 0x00, 0x00, 0x00, 0x00, 0x00, 0x00, 0x00, 0xfc, 0xff, 0xff, 0x7f,
   0xf0, 0xed, 0x03, 0xe0, 0x00, 0x80, 0x06, 0x03, 0xff, 0xff, 0x01, 0x00,
   0x00, 0x00, 0x00, 0x00, 0x00, 0x00, 0x00, 0x00, 0x00, 0xfc, 0xff, 0xef,
   0x6f, 0xe0, 0xef, 0x03, 0x80, 0x00, 0x00, 0x00, 0x4f, 0xff, 0xff, 0x01,
   0x00, 0x00, 0x00, 0x00, 0x00, 0x00, 0x00, 0x00, 0x00, 0x00, 0xfc, 0xff,
   0xfb, 0x0f, 0xc0, 0xdb, 0x01, 0x00, 0x00, 0x00, 0x00, 0xfe, 0xff, 0xff,
   0x03, 0x00, 0x00, 0x00, 0x00, 0x00, 0x00, 0x00, 0x00, 0x00, 0x00, 0xfe,
   0xff, 0xff, 0x3f, 0xc0, 0xef, 0x03, 0x00, 0x00, 0x00, 0x00, 0xbb, 0xff,
   0xff, 0x01, 0x00, 0x00, 0x00, 0x00, 0x00, 0x00, 0x00, 0x00, 0x00, 0x00,
   0xfe, 0xff, 0xff, 0x0f, 0xe0, 0xff, 0x00, 0x00, 0x00, 0x00, 0x00, 0x20,
   0xff, 0xff, 0x01, 0x00, 0x00, 0x00, 0x00, 0x00, 0x00, 0x00, 0x00, 0x00,
   0x00, 0xfe, 0xff, 0xff, 0x0f, 0x80, 0x7f, 0x00, 0x00, 0x00, 0x00, 0x00,
   0x80, 0xff, 0xff, 0x03, 0x00, 0x00, 0x00, 0x00, 0x00, 0x00, 0x00, 0x00,
   0x00, 0x00, 0xfe, 0xff, 0xff, 0x3b, 0x80, 0x7e, 0x00, 0x00, 0x00, 0x00,
   0x00, 0xc0, 0xff, 0xff, 0x00, 0x00, 0x00, 0x00, 0x00, 0x00, 0x00, 0x00,
   0x00, 0x00, 0x00, 0xfe, 0xff, 0xff, 0x1f, 0x04, 0x00, 0x00, 0x00, 0x00,
   0x00, 0x00, 0x80, 0xff, 0xff, 0x00, 0x00, 0x00, 0x00, 0x00, 0x00, 0x00,
   0x00, 0x00, 0x00, 0x00, 0xfe, 0xff, 0xff, 0xdf, 0x3f, 0x08, 0x00, 0x00,
   0x00, 0x02, 0x00, 0x80, 0xff, 0x7f, 0x00, 0x00, 0x00, 0x00, 0x00, 0x00,
   0x00, 0x00, 0x00, 0x00, 0x00, 0xfe, 0xff, 0xff, 0xff, 0x7b, 0x00, 0x00,
   0x00, 0xa0, 0x0c, 0x00, 0xc0, 0xff, 0xff, 0x00, 0x00, 0x00, 0x00, 0x00,
   0x00, 0x00, 0x00, 0x00, 0x00, 0x00, 0xfe, 0xff, 0xff, 0xbf, 0x32, 0x00,
   0x00, 0xc0, 0xe8, 0x17, 0x00, 0xf0, 0xff, 0xff, 0x00, 0x00, 0x00, 0x00,
   0x00, 0x00, 0x00, 0x00, 0x00, 0x00, 0x00, 0xfe, 0xff, 0xff, 0x3f, 0x3d,
   0x00, 0x80, 0x7a, 0xdf, 0x0f, 0x00, 0xe0, 0xff, 0xff, 0x00, 0x00, 0x00,
   0x00, 0x00, 0x00, 0x00, 0x00, 0x00, 0x00, 0x00, 0xfe, 0xff, 0xff, 0xff,
   0x1d, 0x00, 0xa0, 0xff, 0xbb, 0x0d, 0x00, 0xf8, 0xff, 0xff, 0x00, 0x00,
   0x00, 0x00, 0x00, 0x00, 0x00, 0x00, 0x00, 0x00, 0x00, 0xff, 0xff, 0xff,
   0xff, 0x0b, 0x00, 0xf0, 0xb7, 0xff, 0x1f, 0x00, 0xf2, 0xff, 0x7f, 0x00,
   0x00, 0x00, 0x00, 0x00, 0x00, 0x00, 0x00, 0x00, 0x00, 0x00, 0xff, 0xff,
   0xff, 0xff, 0x02, 0x00, 0xe8, 0xfd, 0x6a, 0x1d, 0x00, 0xf6, 0xff, 0x9f,
   0x00, 0x00, 0x00, 0x00, 0x00, 0x00, 0x00, 0x00, 0x00, 0x00, 0x00, 0xff,
   0xff, 0xff, 0x3f, 0x00, 0x00, 0xf0, 0xef, 0xdf, 0x1d, 0x80, 0xf7, 0xff,
   0x1f, 0x00, 0x00, 0x00, 0x00, 0x00, 0x00, 0x00, 0x00, 0x00, 0x00, 0x00,
   0x1f, 0xff, 0xff, 0xbf, 0x01, 0x00, 0xe0, 0xad, 0x7a, 0x0f, 0xa0, 0xf9,
   0xff, 0x0f, 0x00, 0x00, 0x00, 0x00, 0x00, 0x00, 0x00, 0x00, 0x00, 0x00,
   0x00, 0x8f, 0xff, 0xff, 0x7f, 0x00, 0x00, 0x70, 0xfb, 0xdf, 0x1d, 0xf6,
   0xfe, 0xff, 0x0f, 0x00, 0x00, 0x00, 0x00, 0x00, 0x00, 0x00, 0x00, 0x00,
   0x00, 0x80, 0xcf, 0xff, 0xff, 0x7f, 0x01, 0x00, 0xc0, 0x5e, 0xb5, 0x05,
   0x5e, 0xf8, 0xff, 0x07, 0x00, 0x00, 0x00, 0x00, 0x00, 0x00, 0x00, 0x00,
   0x00, 0x00, 0x80, 0x07, 0xff, 0xff, 0xff, 0x08, 0x00, 0xe0, 0xf6, 0x2f,
   0xd5, 0xbf, 0xfc, 0xff, 0x07, 0x00, 0x00, 0x00, 0x00, 0x00, 0x00, 0x00,
   0x00, 0x00, 0x00, 0x80, 0x07, 0xff, 0xff, 0xff, 0x0b, 0x00, 0xc0, 0x2d,
   0x55, 0xe9, 0x09, 0xfc, 0xff, 0x03, 0x00, 0x00, 0x00, 0x00, 0x00, 0x00,
   0x00, 0x00, 0x00, 0x00, 0x80, 0x03, 0xff, 0xff, 0xff, 0x9f, 0x00, 0x80,
   0xa2, 0xd6, 0x62, 0x44, 0xfc, 0xff, 0x03, 0x00, 0x00, 0x00, 0x00, 0x00,
   0x00, 0x00, 0x00, 0x00, 0x00, 0x00, 0x80, 0xff, 0xff, 0xff, 0xff, 0x05,
   0x80, 0x9e, 0x24, 0x1c, 0x92, 0xff, 0xff, 0x03, 0x00, 0x00, 0x00, 0x00,
   0x00, 0x00, 0x00, 0x00, 0x00, 0x00, 0x00, 0x00, 0xff, 0xff, 0xff, 0xff,
   0x97, 0x00, 0xe0, 0xff, 0x7f, 0xe0, 0xff, 0xff, 0x00, 0x00, 0x00, 0x00,
   0x00, 0x00, 0x00, 0x00, 0x00, 0x00, 0x00, 0x00, 0x00, 0xff, 0xff, 0xff,
   0xff, 0xff, 0xb5, 0x80, 0x1b, 0xe0, 0xe0, 0xff, 0x81, 0x00, 0x00, 0x00,
   0x00, 0x00, 0x00, 0x00, 0x00, 0x00, 0x00, 0x00, 0x00, 0x00, 0xff, 0xff,
   0xff, 0xff, 0xff, 0x3f, 0x00, 0x0c, 0xc0, 0xfe, 0x3f, 0x00, 0x00, 0x00,
   0x00, 0x00, 0x00, 0x00, 0x00, 0x00, 0x00, 0x00, 0x00, 0x00, 0x00, 0xfe,
   0xff, 0xff, 0xff, 0xff, 0x1f, 0x00, 0x3f, 0x80, 0xd9, 0x0f, 0x00, 0x00,
   0x00, 0x00, 0x00, 0x00, 0x00, 0x00, 0x00, 0x00, 0x00, 0x00, 0x00, 0x00,
   0xff, 0xff, 0xff, 0xff, 0xff, 0x1f, 0x00, 0x3f, 0x80, 0x47, 0x08, 0x00,
   0x00, 0x00, 0x00, 0x00, 0x00, 0x00, 0x00, 0x00, 0x00, 0x00, 0x00, 0x00,
   0x00, 0xfe, 0xff, 0xff, 0xff, 0xff, 0x0f, 0xc0, 0x7f, 0x00, 0x06, 0x00,
   0x00, 0x00, 0x00, 0x00, 0x00, 0x00, 0x00, 0x00, 0x00, 0x00, 0x00, 0x00,
   0x00, 0x00, 0xfc, 0xff, 0xff, 0xff, 0xff, 0x77, 0xc0, 0xec, 0x00, 0x0e,
   0x00, 0x00, 0x00, 0x00, 0x00, 0x00, 0x00, 0x00, 0x00, 0x00, 0x00, 0x00,
   0x00, 0x00, 0x00, 0xfc, 0xff, 0xff, 0xff, 0xff, 0xfb, 0xe5, 0xcc, 0x41,
   0x3f, 0x00, 0x00, 0x00, 0x00, 0x00, 0x00, 0x00, 0x00, 0x00, 0x00, 0x00,
   0x00, 0x00, 0x00, 0x00, 0xfe, 0xff, 0xff, 0xff, 0xff, 0xee, 0x3f, 0x8e,
   0xf9, 0x7f, 0x00, 0x00, 0x00, 0x00, 0x00, 0x00, 0x00, 0x00, 0x00, 0x00,
   0x00, 0x00, 0x00, 0x00, 0x00, 0xfc, 0xff, 0xff, 0xff, 0x7f, 0x06, 0x7e,
   0x1c, 0x7f, 0xff, 0xf8, 0x0f, 0x00, 0x00, 0x00, 0x00, 0x00, 0x00, 0x00,
   0x00, 0x00, 0x00, 0x00, 0x00, 0x00, 0xf8, 0xff, 0x3f, 0x78, 0xa0, 0x03,
   0x0e, 0x8e, 0x0f, 0x78, 0xfa, 0x0f, 0x00, 0x00, 0x00, 0x00, 0x00, 0x00,
   0x00, 0x00, 0x00, 0x00, 0x00, 0x00, 0x00, 0xf8, 0xff, 0x3f, 0x00, 0xc0,
   0x01, 0x3e, 0x1c, 0x0f, 0xf8, 0xff, 0x1f, 0x00, 0x00, 0x00, 0x00, 0x00,
   0x00, 0x00, 0x00, 0x00, 0x00, 0x00, 0x00, 0x00, 0xf8, 0xff, 0x3f, 0x40,
   0xe0, 0xc1, 0x7f, 0xee, 0x1f, 0xf0, 0x5f, 0x7a, 0x00, 0x00, 0x00, 0x00,
   0x00, 0x00, 0x00, 0x00, 0x00, 0x00, 0x00, 0x00, 0x00, 0x80, 0xfb, 0x1f,
   0x01, 0xc0, 0xe0, 0xef, 0xfd, 0x3f, 0xf0, 0xdf, 0xe5, 0x00, 0x00, 0x00,
   0x00, 0x00, 0x00, 0x00, 0x00, 0x00, 0x00, 0x00, 0x00, 0x00, 0x00, 0x80,
   0x03, 0x58, 0xc0, 0xf0, 0xe1, 0x5f, 0x7c, 0x70, 0x5f, 0xa5, 0x03, 0x00,
   0x00, 0x00, 0x00, 0x00, 0x00, 0x00, 0x00, 0x00, 0x00, 0x00, 0x00, 0x00,
   0x00, 0x58, 0x00, 0xc0, 0xb8, 0x00, 0x0f, 0xf0, 0x30, 0xbc, 0x4d, 0x07,
   0x00, 0x00, 0x00, 0x00, 0x00, 0x00, 0x00, 0x00, 0x00, 0x00, 0x00, 0x00,
   0x00, 0x02, 0xfa, 0x03, 0xc0, 0x38, 0x80, 0x2e, 0xe0, 0x31, 0xfc, 0x8b,
   0x1e, 0x00, 0x00, 0x00, 0x00, 0x00, 0x00, 0x00, 0x00, 0x00, 0x00, 0x00,
   0x00, 0x00, 0x47, 0x00, 0x3e, 0x80, 0x1c, 0x00, 0x2c, 0xc0, 0x31, 0x70,
   0xbb, 0x7e, 0x00, 0x00, 0x00, 0x00, 0x00, 0x00, 0x00, 0x00, 0x00, 0x00,
   0x00, 0x00, 0x00, 0x06, 0x52, 0xe9, 0xc0, 0x2c, 0xc0, 0x36, 0x80, 0x19,
   0xe0, 0xff, 0xff, 0x01, 0x00, 0x00, 0x00, 0x00, 0x00, 0x00, 0x00, 0x00,
   0x00, 0x00, 0x00, 0x00, 0x4e, 0x00, 0x80, 0x87, 0x4d, 0x40, 0x3e, 0x80,
   0x39, 0xf0, 0x7f, 0xad, 0x07, 0x00, 0x00, 0x00, 0x00, 0x00, 0x00, 0x00,
   0x00, 0x00, 0x00, 0x00, 0x00, 0x04, 0x89, 0x54, 0x9a, 0x6d, 0xc0, 0x1e,
   0x90, 0x1b, 0xfe, 0x81, 0x90, 0x1f, 0x00, 0x00, 0x00, 0x00, 0x00, 0x00,
   0x00, 0x00, 0x00, 0x00, 0x00, 0x00, 0x2e, 0x90, 0x00, 0xb2, 0xcf, 0xc0,
   0x0e, 0x00, 0xdf, 0xbf, 0x12, 0x82, 0xfb, 0x01, 0x00, 0x00, 0x00, 0x00,
   0x00, 0x00, 0x00, 0x00, 0x00, 0x00, 0x00, 0x8c, 0x00, 0x52, 0xe4, 0xdc,
   0x80, 0x0f, 0x94, 0x7f, 0x05, 0x44, 0xe9, 0xa1, 0x07, 0x00, 0x00, 0x00,
   0x00, 0x00, 0x00, 0x00, 0x00, 0x00, 0x00, 0x00, 0x0c, 0x4a, 0x80, 0xc0,
   0x99, 0x81, 0x0f, 0xd8, 0xbf, 0xa0, 0x10, 0xc8, 0x43, 0x3e, 0x00, 0x00,
   0x00, 0x00, 0x00, 0x00, 0x00, 0x00, 0x00, 0x00, 0x00, 0x98, 0x00, 0x25,
   0x74, 0xc8, 0xc0, 0x06, 0x4e, 0x1d, 0x05, 0x42, 0xf2, 0x09, 0xf0, 0x00,
   0x00, 0x00, 0x00, 0x00, 0x00, 0x00, 0x00, 0x00, 0x00, 0x00, 0x18, 0x24,
   0x80, 0xf0, 0x80, 0x83, 0x0f, 0x4e, 0x5c, 0xa8, 0x08, 0xd4, 0x93, 0x82,
   0x07, 0x00, 0x00, 0x00, 0x00, 0x00, 0x00, 0x00, 0x00, 0x00, 0x00, 0x28,
   0x81, 0x14, 0x3a, 0x88, 0x81, 0x07, 0x03, 0x3a, 0x01, 0x52, 0xfb, 0x4d,
   0x48, 0x0e, 0x00, 0x00, 0x00, 0x00, 0x00, 0x00, 0x00, 0x00, 0x00, 0x00,
   0x28, 0x10, 0x40, 0x1c, 0x01, 0xc7, 0x83, 0x4b, 0x38, 0x55, 0x82, 0xea,
   0x5b, 0x01, 0x78, 0x00, 0x00, 0x00, 0x00, 0x00, 0x00, 0x00, 0x00, 0x00,
   0x00, 0x18, 0x45, 0x09, 0x0d, 0x00, 0x86, 0xe3, 0x01, 0x70, 0x00, 0xa8,
   0xf7, 0xaf, 0xaa, 0x54, 0x01, 0x00, 0x00, 0x00, 0x00, 0x00, 0x00, 0x00,
   0x00, 0x00, 0x30, 0x08, 0x21, 0xac, 0x24, 0x9c, 0x63, 0xa9, 0xf6, 0xaa,
   0x62, 0x7d, 0xfe, 0x2a, 0x51, 0x07, 0x00, 0x00, 0x00, 0x00, 0x00, 0x00,
   0x00, 0x00, 0x00, 0x30, 0x20, 0x44, 0xbd, 0xdb, 0xfa, 0x73, 0x54, 0xed,
   0x01, 0x58, 0x3b, 0xec, 0x57, 0xa5, 0x1e, 0x00, 0x00, 0x00, 0x00, 0x00,
   0x00, 0x00, 0x00, 0x00, 0x60, 0x85, 0x08, 0xfa, 0xff, 0xff, 0x7f, 0x75,
   0xdb, 0x55, 0x75, 0x35, 0x80, 0xbf, 0x5d, 0x79, 0x00, 0x00, 0x00, 0x00,
   0x00, 0x00, 0x00, 0x00, 0x00, 0x60, 0x10, 0x22, 0xf8, 0x0f, 0xda, 0xff,
   0xff, 0xf7, 0x01, 0xda, 0x1f, 0x00, 0xfa, 0xd2, 0xea, 0x00, 0x00, 0x00,
   0x00, 0x00, 0x00, 0x00, 0x00, 0x00, 0xc0, 0x22, 0x44, 0xf1, 0x0d, 0x00,
   0x80, 0xfa, 0xff, 0xab, 0x56, 0x1d, 0x00, 0xf0, 0xb7, 0xd6, 0x03, 0x00,
   0x00, 0x00, 0x00, 0x00, 0x00, 0x00, 0x00, 0x40, 0x81, 0x10, 0x7c, 0x00,
   0x00, 0x00, 0xc0, 0x7f, 0x40, 0xad, 0x0e, 0x00, 0x80, 0x5f, 0x5b, 0x0f,
   0x00, 0x00, 0x00, 0x00, 0x00, 0x00, 0x00, 0x00, 0x40, 0x15, 0xd4, 0xfd,
   0x00, 0x00, 0x00, 0xf0, 0x79, 0xa9, 0xeb, 0x0d, 0x00, 0x00, 0xfa, 0x76,
   0x1d, 0x00, 0x00, 0x00, 0x00, 0x00, 0x00, 0x00, 0x00, 0x80, 0x41, 0xfd,
   0x3f, 0x00, 0x00, 0x00, 0x50, 0x78, 0xa4, 0x5e, 0x07, 0x00, 0x00, 0xe8,
   0xed, 0x1d, 0x00, 0x00, 0x00, 0x00, 0x00, 0x00, 0x00, 0x00, 0x00, 0x0b,
   0x50, 0x3f, 0x00, 0x00, 0x00, 0x00, 0xf0, 0xfa, 0x6a, 0x07, 0x00, 0x00,
   0xc0, 0x55, 0x7b, 0x00, 0x00, 0x00, 0x00, 0x00, 0x00, 0x00, 0x00, 0x00,
   0x23, 0x04, 0x17, 0x00, 0x00, 0x00, 0x00, 0xe0, 0xff, 0xdb, 0x01, 0x00,
   0x00, 0x80, 0xdf, 0x76, 0x00, 0x00, 0x00, 0x00, 0x00, 0x00, 0x00, 0x00,
   0x00, 0x86, 0x48, 0x1f, 0x00, 0x00, 0x00, 0x00, 0xe0, 0xff, 0xb6, 0x01,
   0x00, 0x00, 0x00, 0xde, 0xd6, 0x01, 0x00, 0x00, 0x00, 0x00, 0x00, 0x00,
   0x00, 0x00, 0x4e, 0xa0, 0x1d, 0x00, 0x00, 0x00, 0x00, 0xc0, 0xb7, 0xed,
   0x01, 0x00, 0x00, 0x00, 0xf8, 0xed, 0x02, 0x00, 0x00, 0x00, 0x00, 0x00,
   0x00, 0x00, 0x00, 0x0e, 0xc5, 0x0d, 0x00, 0x00, 0x00, 0x00, 0xc0, 0xef,
   0xea, 0x00, 0x00, 0x00, 0x00, 0xe0, 0xbb, 0x03, 0x00, 0x00, 0x00, 0x00,
   0x00, 0x00, 0x00, 0x00, 0x24, 0x70, 0x06, 0x00, 0x00, 0x00, 0x00, 0x80,
   0x5f, 0x6d, 0x00, 0x00, 0x00, 0x00, 0xa0, 0xd7, 0x06, 0x00, 0x00, 0x00,
   0x00, 0x00, 0x00, 0x00, 0x00, 0x8e, 0xe2, 0x06, 0x00, 0x00, 0x00, 0x00,
   0x00, 0xdf, 0x7b, 0x00, 0x00, 0x00, 0x00, 0x80, 0xbe, 0x07, 0x00, 0x00,
   0x00, 0x00, 0x00, 0x00, 0x00, 0x00, 0x24, 0x38, 0x03, 0x00, 0x00, 0x00,
   0x00, 0x00, 0xbf, 0x3a, 0x00, 0x00, 0x00, 0x00, 0x00, 0xd6, 0x0e, 0x00,
   0x00, 0x00, 0x00, 0x00, 0x00, 0x00, 0x00, 0x0e, 0x39, 0x01, 0x00, 0x00,
   0x00, 0x00, 0x00, 0x7e, 0x3b, 0x00, 0x00, 0x00, 0x00, 0x00, 0xdc, 0x0d,
   0x00, 0x00, 0x00, 0x00, 0x00, 0x00, 0x00, 0x00, 0x24, 0xce, 0x01, 0x00,
   0x00, 0x00, 0x00, 0x00, 0xfc, 0x36, 0x00, 0x00, 0x00, 0x00, 0x00, 0x7c,
   0x0f, 0x00, 0x00, 0x00, 0x00, 0x00, 0x00, 0x00, 0x00, 0x4c, 0x8c, 0x00,
   0x00, 0x00, 0x00, 0x00, 0x00, 0xfc, 0x3d, 0x00, 0x00, 0x00, 0x00, 0x00,
   0x58, 0x0d, 0x00, 0x00, 0x00, 0x00, 0x00, 0x00, 0x00, 0x00, 0x0c, 0x67,
   0x00, 0x00, 0x00, 0x00, 0x00, 0x00, 0xf8, 0x35, 0x00, 0x00, 0x00, 0x00,
   0x00, 0xf8, 0x1b, 0x00, 0x00, 0x00, 0x00, 0x00, 0x00, 0x00, 0x00, 0x5c,
   0xc7, 0x00, 0x00, 0x00, 0x00, 0x00, 0x00, 0xf8, 0x3b, 0x00, 0x00, 0x00,
   0x00, 0x00, 0xb8, 0x1e, 0x00, 0x00, 0x00, 0x00, 0x00, 0x00, 0x00, 0x00,
   0x84, 0x61, 0x00, 0x00, 0x00, 0x00, 0x00, 0x00, 0xf0, 0x1f, 0x00, 0x00,
   0x00, 0x00, 0x00, 0xfc, 0x1d, 0x00, 0x00, 0x00, 0x00, 0x00, 0x00, 0x00,
   0x00, 0xdc, 0x2b, 0x00, 0x00, 0x00, 0x00, 0x00, 0x00, 0xe0, 0x1f, 0x00,
   0x00, 0x00, 0x00, 0x00, 0xba, 0x1b, 0x00, 0xfe, 0xff, 0xbf, 0x02, 0x00,
   0x00, 0x00, 0xe8, 0x30, 0x00, 0x00, 0x00, 0x00, 0x00, 0x00, 0xc0, 0x1f,
   0x00, 0x00, 0x00, 0x00, 0x80, 0xd7, 0x0e, 0x00, 0xfe, 0xff, 0xff, 0x0f,
   0x00, 0x00, 0x00, 0xd8, 0x30, 0x00, 0x00, 0x00, 0x00, 0x00, 0x00, 0x80,
   0x1d, 0x00, 0x00, 0x00, 0x00, 0xe0, 0xd5, 0x0d, 0x00, 0xdb, 0xeb, 0x6f,
   0x1f, 0x00, 0x00, 0x00, 0x78, 0x1c, 0x00, 0x00, 0x00, 0x00, 0x00, 0x00,
   0xc0, 0x0f, 0x00, 0x00, 0x00, 0x00, 0x3c, 0xb2, 0x07, 0x68, 0xbf, 0x17,
   0x50, 0x39, 0x00, 0x00, 0x00, 0x38, 0x18, 0x00, 0x00, 0x00, 0x00, 0x00,
   0x00, 0x00, 0x1f, 0x00, 0x00, 0x00, 0x80, 0xee, 0x64, 0x07, 0x04, 0xe8,
   0xcb, 0x96, 0xe2, 0x0a, 0x00, 0x00, 0x9c, 0x0c, 0x00, 0x00, 0x00, 0x00,
   0x00, 0x00, 0x00, 0x3d, 0x00, 0x00, 0x00, 0xc0, 0x0b, 0xd5, 0x03, 0x04,
   0xc0, 0x55, 0x55, 0xcd, 0x3f, 0x00, 0x00, 0x1f, 0x08, 0x00, 0x00, 0x00,
   0x00, 0x00, 0x00, 0x00, 0x36, 0x00, 0x00, 0x00, 0x78, 0xb5, 0xf4, 0x00,
   0x14, 0x80, 0xab, 0x5a, 0x53, 0x35, 0x00, 0x80, 0x0f, 0x06, 0x00, 0x00,
   0x00, 0x00, 0x00, 0x00, 0x00, 0x6e, 0x00, 0x00, 0x00, 0xae, 0x42, 0x7b,
   0x00, 0x06, 0xc0, 0xab, 0xb5, 0x2a, 0x25, 0x00, 0xc0, 0x2f, 0x06, 0x00,
   0x00, 0x00, 0x00, 0x00, 0x00, 0x00, 0xfc, 0x00, 0x00, 0x80, 0x5b, 0x2d,
   0x1d, 0x00, 0x14, 0xc0, 0x6b, 0x55, 0x4b, 0x35, 0x00, 0xf0, 0x03, 0x03,
   0x00, 0x00, 0x00, 0x00, 0x00, 0x00, 0x00, 0xec, 0x01, 0x00, 0xf0, 0x25,
   0xd1, 0x07, 0x00, 0x06, 0xc0, 0xab, 0xaa, 0x2a, 0x35, 0x00, 0xf0, 0x27,
   0x02, 0x00, 0x00, 0x00, 0x00, 0x00, 0x00, 0x00, 0x98, 0x01, 0x00, 0x74,
   0x49, 0xab, 0x03, 0x00, 0x14, 0xc0, 0xab, 0xaa, 0x56, 0x6a, 0x48, 0xbc,
   0x01, 0x2f, 0x00, 0x00, 0x00, 0x00, 0x00, 0x00, 0x00, 0xf0, 0x03, 0x00,
   0x4f, 0x55, 0xfc, 0x00, 0x00, 0x06, 0xe0, 0x57, 0x52, 0x55, 0xf5, 0xff,
   0xef, 0x03, 0xf4, 0x17, 0x00, 0x00, 0x00, 0x00, 0x00, 0x00, 0x14, 0x03,
   0xe0, 0x15, 0xa9, 0x3d, 0x00, 0x00, 0x14, 0xc0, 0x59, 0x55, 0x55, 0xf5,
   0xfb, 0xdf, 0x40, 0x80, 0xfa, 0x05, 0x00, 0x00, 0x00, 0x80, 0xfa, 0x57,
   0x07, 0x7c, 0xaa, 0xd2, 0x0f, 0x00, 0x00, 0x06, 0xc0, 0x53, 0x55, 0x55,
   0xf5, 0x8a, 0xf7, 0x08, 0x04, 0x52, 0xff, 0x57, 0x25, 0xa9, 0xff, 0x57,
   0x80, 0x8e, 0x5f, 0x49, 0xd5, 0x03, 0x00, 0x00, 0x06, 0xc0, 0x5b, 0xa5,
   0xaa, 0xf4, 0xd5, 0x3f, 0x80, 0x00, 0x00, 0x20, 0xba, 0xff, 0xff, 0x2a,
   0x00, 0xa1, 0xfa, 0x4a, 0x52, 0x7e, 0x00, 0x00, 0x00, 0x0e, 0xe0, 0x2b,
   0x55, 0x55, 0xf5, 0x25, 0x7d, 0x02, 0x20, 0x40, 0x40, 0xa0, 0x24, 0x00,
   0x02, 0x04, 0x02, 0xb5, 0xaa, 0xaa, 0x1f, 0x00, 0x00, 0x00, 0x02, 0xc0,
   0x55, 0x55, 0xab, 0xfa, 0xed, 0x3e, 0x08, 0x02, 0x09, 0x02, 0x00, 0x80,
   0x92, 0x40, 0x10, 0x40, 0x7d, 0x29, 0xd5, 0x05, 0x00, 0x00, 0x00, 0x0e,
   0xe0, 0x5b, 0xaa, 0xaa, 0xfa, 0xdd, 0x1e, 0x20, 0x04, 0x00, 0x84, 0x44,
   0x02, 0x00, 0x84, 0x00, 0x04, 0xf2, 0xaa, 0xfa, 0x00, 0x00, 0x00, 0x00,
   0x06, 0xc0, 0x55, 0x55, 0x2b, 0xf5, 0xf7, 0x9f, 0x00, 0x20, 0x40, 0x00,
   0x00, 0x10, 0x00, 0x00, 0x20, 0x80, 0x6a, 0xa5, 0x3e, 0x00, 0x00, 0x00,
   0x00, 0x0a, 0xe0, 0x55, 0x49, 0x55, 0xf9, 0xff, 0x0f, 0x04, 0x00, 0x00,
   0x10, 0x00, 0x00, 0x92, 0x00, 0x02, 0x08, 0xea, 0xe9, 0x07, 0x00, 0x00,
   0x00, 0x00, 0x06, 0xe0, 0xad, 0xaa, 0xaa, 0xfa, 0xb6, 0x07, 0x20, 0x80,
   0x04, 0x80, 0x44, 0x40, 0x00, 0x84, 0x80, 0x00, 0x54, 0xff, 0x00, 0x00,
   0x00, 0x00, 0x00, 0x05, 0xe0, 0xa9, 0xaa, 0x2a, 0x35, 0x00, 0x97, 0x00,
   0x09, 0x00, 0x02, 0x00, 0x04, 0x00, 0x00, 0x08, 0x40, 0xc8, 0x3f, 0x00,
   0x00, 0x00, 0x00, 0x00, 0x02, 0xc0, 0x9b, 0xaa, 0xaa, 0x1a, 0x00, 0x01,
   0x42, 0x00, 0x10, 0x00, 0x08, 0x00, 0x09, 0x08, 0x80, 0x00, 0x2a, 0x03,
   0x00, 0x00, 0x00, 0x00, 0x00, 0x02, 0xe0, 0xb5, 0xaa, 0xaa, 0x1a, 0x00,
   0x03, 0x04, 0x00, 0x42, 0x90, 0x80, 0x10, 0x90, 0x00, 0x01, 0x12, 0x68,
   0x03, 0x00, 0x00, 0x00, 0x00, 0x00, 0x07, 0xe0, 0xd5, 0x6d, 0x95, 0x34,
   0x00, 0x5f, 0x00, 0x51, 0x00, 0x02, 0x10, 0x00, 0x00, 0x10, 0x08, 0x40,
   0x50, 0x07, 0x00, 0x00, 0x00, 0x00, 0x00, 0xfc, 0xff, 0x2a, 0x55, 0xa9,
   0x1f, 0x00, 0x7f, 0x25, 0x00, 0x00, 0x00, 0x00, 0x22, 0x01, 0x02, 0x40,
   0x00, 0xd0, 0x06, 0x00, 0x00, 0x00, 0x00, 0x00, 0x80, 0xff, 0x55, 0x55,
   0xf5, 0x1f, 0x00, 0xaa, 0xaf, 0x02, 0x49, 0x44, 0x42, 0x00, 0x48, 0x20,
   0x01, 0x41, 0xb5, 0x07, 0x00, 0x00, 0x00, 0x00, 0x00, 0x80, 0xea, 0x4a,
   0x95, 0x1a, 0x00, 0x00, 0x00, 0xf8, 0x2d, 0x00, 0x00, 0x00, 0x04, 0x00,
   0x00, 0x08, 0x14, 0xf5, 0x07, 0x00, 0x00, 0x00, 0x00, 0x00, 0x00, 0xff,
   0xbb, 0x6a, 0x1d, 0x00, 0x00, 0x00, 0x00, 0xbf, 0x12, 0x08, 0x04, 0x20,
   0x80, 0x04, 0xa0, 0xfa, 0x0b, 0x00, 0x00, 0x00, 0x00, 0x00, 0x00, 0x00,
   0xf4, 0xff, 0xff, 0x07, 0x00, 0x00, 0x00, 0x00, 0xe0, 0xef, 0x42, 0x90,
   0x00, 0x09, 0x48, 0xd5, 0x17, 0x00, 0x00, 0x00, 0x00, 0x00, 0x00, 0x00,
   0x00, 0x00, 0x00, 0x00, 0x01, 0x00, 0x00, 0x00, 0x00, 0x00, 0xd8, 0xbf,
   0x77, 0xb7, 0xea, 0xfd, 0x1f, 0x00, 0x00, 0x00, 0x00, 0x00, 0x00, 0x00,
   0x00, 0x00, 0x00, 0x00, 0x00, 0x00, 0x00, 0x00, 0x00, 0x00, 0x00, 0x00,
   0xe8, 0xfe, 0xff, 0xdf, 0x17, 0x00, 0x00, 0x00, 0x00, 0x00, 0x00, 0x00,
   0x00, 0x00, 0x00, 0x00, 0x00, 0x00, 0x00, 0x00, 0x00, 0x00, 0x00, 0x00,
   0x00, 0xc0, 0xa4, 0xae, 0x6a, 0x00, 0x00, 0x00, 0x00, 0x00, 0x00, 0x00,
   0x00, 0x00, 0x00, 0x00, 0x00, 0x00, 0x00, 0x00, 0x00, 0x00, 0x00, 0x00,
   0x00, 0x00, 0x80, 0x00, 0x0e, 0x60, 0x00, 0x00, 0x00, 0x00, 0x00, 0x00,
   0x00, 0x00, 0x00, 0x00, 0x00, 0x00, 0x00, 0x00, 0x00, 0x00, 0x00, 0x00,
   0x00, 0x00, 0x00, 0xc0, 0x00, 0x0e, 0x60, 0x00, 0x00, 0x00, 0x00, 0x00,
   0x00, 0x00, 0x00, 0x00, 0x00, 0x00, 0x00, 0x00, 0x00, 0x00, 0x00, 0x00,
   0x00, 0x00, 0x00, 0x00, 0x80, 0x00, 0x0e, 0x60, 0x00, 0x00, 0x00, 0x00,
   0x00, 0x00, 0x00, 0x00, 0x00, 0x00, 0x00, 0x00, 0x00, 0x00, 0x00, 0x00,
   0x00, 0x00, 0x00, 0x00, 0x00, 0xc0, 0x00, 0x0e, 0x20, 0x00, 0x00, 0x00,
   0x00, 0x00, 0x00, 0x00, 0x00, 0x00, 0x00, 0x00, 0x00, 0x00, 0x00, 0x00,
   0x00, 0x00, 0x00, 0x00, 0x00, 0x00, 0x80, 0x00, 0x0e, 0x60, 0x00, 0x00,
   0x00, 0x00, 0x00, 0x00, 0x00, 0x00, 0x00, 0x00, 0x00, 0x00, 0x00, 0x00,
   0x00, 0x00, 0x00, 0x00, 0x00, 0x00, 0x00, 0x80, 0x00, 0x0e, 0x30, 0x00,
   0x00, 0x00, 0x00, 0x00, 0x00, 0x00, 0x00, 0x00, 0x00, 0x00, 0x00, 0x00,
   0x00, 0x00, 0x00, 0x00, 0x00, 0x00, 0x00, 0x00, 0xc0, 0x00, 0x0e, 0x20,
   0x00, 0x00, 0x00, 0x00, 0x00, 0x00, 0x00, 0x00, 0x00, 0x00, 0x00, 0x00,
   0x00, 0x00, 0x00, 0x00, 0x00, 0x00, 0x00, 0x00, 0x00, 0x80, 0x00, 0x0e,
   0x30, 0x00, 0x00, 0x00, 0x00, 0x00, 0x00, 0x00, 0x00, 0x00, 0x00, 0x00,
   0x00, 0x00, 0x00, 0x00, 0x00, 0x00, 0x00, 0x00, 0x00, 0x00, 0x80, 0x01,
   0x0e, 0x30, 0x00, 0x00, 0x00, 0x00, 0x00, 0x00, 0x00, 0x00, 0x00, 0x00,
   0x00, 0x00, 0x00, 0x00, 0x00, 0x00, 0x00, 0x00, 0x00, 0x00, 0x00, 0x80,
   0x00, 0x0e, 0x30, 0x00, 0x00, 0x00, 0x00, 0x00, 0x00, 0x00, 0x00, 0x00,
   0x00, 0x00, 0x00, 0x00, 0x00, 0x00, 0x00, 0x00, 0x00, 0x00, 0x00, 0x00,
   0x80, 0x01, 0x0e, 0x30, 0x00, 0x00, 0x00, 0x00, 0x00, 0x00, 0x00, 0x00,
   0x00, 0x00, 0x00, 0x00, 0x00, 0x00, 0x00, 0x00, 0x00, 0x00, 0x00, 0x00,
   0x00, 0x80, 0x00, 0x0e, 0x10, 0x00, 0x00, 0x00, 0x00, 0x00, 0x00, 0x00,
   0x00, 0x00, 0x00, 0x00, 0x00, 0x00, 0x00, 0x00, 0x00, 0x00, 0x00, 0x00,
   0x00, 0x00, 0x80, 0x01, 0x0e, 0x30, 0x00, 0x00, 0x00, 0x00, 0x00, 0x00,
   0x00, 0x00, 0x00, 0x00, 0x00, 0x00, 0x00, 0x00, 0x00, 0x00, 0x00, 0x00,
   0x00, 0x00, 0x00, 0x80, 0x00, 0x06, 0x10, 0x00, 0x00, 0x00, 0x00, 0x00,
   0x00, 0x00, 0x00, 0x00, 0x00, 0x00, 0x00, 0x00, 0x00, 0x00, 0x00, 0x00,
   0x00, 0x00, 0x00, 0x00, 0x80, 0x01, 0x0e, 0x18, 0x00, 0x00, 0x00, 0x00,
   0x00, 0x00, 0x00, 0x00, 0x00, 0x00, 0x00, 0x00, 0x00, 0x00, 0x00, 0x00,
   0x00, 0x00, 0x00, 0x00, 0x00, 0x80, 0x00, 0x06, 0x30, 0x00, 0x00, 0x00,
   0x00, 0x00, 0x00, 0x00, 0x00, 0x00, 0x00, 0x00, 0x00, 0x00, 0x00, 0x00,
   0x00, 0x00, 0x00, 0x00, 0x00, 0x00, 0x80, 0x01, 0x06, 0x10, 0x00, 0x00,
   0x00, 0x00, 0x00, 0x00, 0x00, 0x00, 0x00, 0x00, 0x00, 0x00, 0x00, 0x00,
   0x00, 0x00, 0x00, 0x00, 0x00, 0x00, 0x00, 0x80, 0x00, 0x04, 0x18, 0x00,
   0x00, 0x00, 0x00, 0x00, 0x00, 0x00, 0x00, 0x00, 0x00, 0x00, 0x00, 0x00,
   0x00, 0x00, 0x00, 0x00, 0x00, 0x00, 0x00, 0x00, 0x80, 0x95, 0x96, 0x18,
   0x00, 0x00, 0x00, 0x00, 0x00, 0x00, 0x00, 0x00, 0x00, 0x00, 0x00, 0x00,
   0x00, 0x00, 0x00, 0x00, 0x00, 0x00, 0x00, 0x00, 0x00, 0x80, 0xff, 0xff,
   0x3f, 0x00, 0x00, 0x00, 0x00, 0x00, 0x00, 0x00, 0x00, 0x00, 0x00, 0x00,
   0x00, 0x00, 0x00, 0x00, 0x00, 0x00, 0x00, 0x00, 0x00, 0x00, 0x80, 0xff,
   0xff, 0x1f, 0x00, 0x00, 0x00, 0x00, 0x00, 0x00, 0x00, 0x00, 0x00, 0x00,
   0x00, 0x00, 0x00, 0x00, 0x00, 0x00, 0x00, 0x00, 0x00, 0x00, 0x00, 0x80,
   0x77, 0xef, 0x1b, 0x00, 0x00, 0x00, 0x00, 0x00, 0x00, 0x00, 0x00, 0x00,
   0x00, 0x00, 0x00, 0x00, 0x00, 0x00, 0x00, 0x00, 0x00, 0x00, 0x00, 0x00,
   0x80, 0xef, 0x5f, 0x1f, 0x00, 0x00, 0x00, 0x00, 0x00, 0x00, 0x00, 0x00,
   0x00, 0x00, 0x00, 0x00, 0x00, 0x00, 0x00, 0x00, 0x00, 0x00, 0x00, 0x00,
   0x00, 0x80, 0xff, 0xff, 0x1f, 0x00, 0x00, 0x00, 0x00, 0x00, 0x00, 0x00,
   0x00, 0x00, 0x00, 0x00, 0x00, 0x00, 0x00, 0x00, 0x00, 0x00, 0x00, 0x00,
   0x00, 0x00, 0x00, 0x7d, 0xff, 0x1f, 0x00, 0x00, 0x00, 0x00, 0x00, 0x00,
   0x00, 0x00, 0x00, 0x00, 0x00, 0x00, 0x00, 0x00, 0x00, 0x00, 0x00, 0x00,
   0x00, 0x00, 0x00, 0x00, 0x00, 0x00, 0x00, 0x00, 0x00, 0x00, 0x00, 0x00,
   0x00, 0x00, 0x00, 0x00, 0x00, 0x00, 0x00, 0x00, 0x00, 0x00, 0x00, 0x00,
   0x00, 0x00, 0x00, 0x00, 0x00, 0x00, 0x00, 0x00, 0x00, 0x00, 0x00, 0x00,
   0x00, 0x00, 0x00, 0x00, 0x00, 0x00, 0x00, 0x00, 0x00, 0x00, 0x00, 0x00,
   0x00, 0x00, 0x00, 0x00, 0x00, 0x00, 0x00, 0x00, 0x00, 0x00, 0x00, 0x00,
   0x00, 0x00, 0x00, 0x00, 0x00, 0x00, 0x00, 0x00, 0x00, 0x00, 0x00, 0x00,
   0x00, 0x00, 0x00, 0x00, 0x00, 0x00, 0x00, 0x00, 0x00, 0x00, 0x00, 0x00,
   0x00, 0x00, 0x00, 0x00, 0x00, 0x00, 0x00, 0x00, 0x00, 0x00, 0x00, 0x00,
   0x00, 0x00, 0x00, 0x00, 0x00, 0x00, 0x00, 0x00, 0x00, 0x00, 0x00, 0x00,
   0x00, 0x00, 0x00, 0x00, 0x00, 0x00, 0x00, 0x00, 0x00, 0x00, 0x00, 0x00,
   0x00, 0x00, 0x00, 0x00, 0x00, 0x00, 0x00, 0x00, 0x00, 0x00, 0x00, 0x00,
   0x00, 0x00, 0x00, 0x00, 0x00, 0x00, 0x00, 0x00, 0x00, 0x00, 0x00, 0x00,
   0x00, 0x00, 0x00, 0x00, 0x00, 0x00, 0x00, 0x00, 0x00, 0x00, 0x00, 0x00,
   0x00, 0x00, 0x00, 0x00, 0x00, 0x00, 0x00, 0x00, 0x00, 0x00, 0x00, 0x00,
   0x00, 0x00, 0x00, 0x00, 0x00, 0x00, 0x00, 0x00, 0x00, 0x00, 0x00, 0x00,
   0x00, 0x00, 0x00, 0x00, 0x00, 0x00, 0x00, 0x00, 0x00, 0x00, 0x00, 0x00,
   0x00, 0x00, 0x00, 0x00, 0x00, 0x00, 0x00, 0x00, 0x00, 0x00, 0x00, 0x00,
   0x00, 0x00, 0x00, 0x00, 0x00, 0x00, 0x00, 0x00, 0x00, 0x00, 0x00, 0x00,
   0x00, 0x00, 0x00, 0x00, 0x00, 0x00, 0x00, 0x00, 0x00, 0x00, 0x00, 0x00,
   0x00, 0x00, 0x00, 0x00, 0x00, 0x00, 0x00, 0x00, 0x00, 0x00, 0x00, 0x00,
   0x00, 0x00, 0x00, 0x00, 0x00, 0x00, 0x00, 0x00, 0x00, 0x00, 0x00, 0x00,
   0x00, 0x00, 0x00, 0x00, 0x00, 0x00, 0x00, 0x00, 0x00, 0x00, 0x00, 0x00,
   0x00, 0x00, 0x00, 0x00, 0x00, 0x00, 0x00, 0x00, 0x00, 0x00, 0x00, 0x00,
   0x00, 0x00, 0x00, 0x00, 0x00, 0x00, 0x00, 0x00, 0x00, 0x00, 0x00, 0x00,
   0x00, 0x00, 0x00, 0x00, 0x00, 0x00, 0x00, 0x00, 0x00, 0x00, 0x00, 0x00,
   0x00, 0x00, 0x00, 0x00, 0x00, 0x00, 0x00, 0x00, 0x00, 0x00, 0x00, 0x00,
   0x00, 0x00, 0x00, 0x00, 0x00, 0x00, 0x00, 0x00, 0x00, 0x00, 0x00, 0x00,
   0x00, 0x00, 0x00, 0x00, 0x00, 0x00, 0x00, 0x00, 0x00, 0x00, 0x00, 0x00,
   0x00, 0x00, 0x00, 0x00, 0x00, 0x00, 0x00, 0x00, 0x00, 0x00, 0x00, 0x00,
   0x00, 0x00, 0x00, 0x00, 0x00, 0x00, 0x00, 0x00, 0x00, 0x00, 0x00, 0x00,
   0x00, 0x00, 0x00, 0x00, 0x00, 0x00, 0x00, 0x00, 0x00, 0x00, 0x00, 0x00,
   0x00, 0x00, 0x00, 0x00, 0x00, 0x00, 0x00, 0x00, 0x00, 0x00, 0x00, 0x00,
   0x00, 0x00, 0x00, 0x00, 0x00, 0x00, 0x00, 0x00, 0x00, 0x00, 0x00, 0x00,
   0x00, 0x00, 0x00, 0x00, 0x00, 0x00, 0x00, 0x00, 0x00, 0x00, 0x00, 0x00,
   0x00, 0x00, 0x00, 0x00, 0x00, 0x00, 0x00, 0x00, 0x00, 0x00, 0x00, 0x00,
   0x00, 0x00, 0x00, 0x00, 0x00, 0x00, 0x00, 0x00, 0x00, 0x00, 0x00, 0x00,
   0x00, 0x00, 0x00, 0x00, 0x00, 0x00, 0x00, 0x00, 0x00, 0x00, 0x00, 0x00,
   0x00, 0x00, 0x00, 0x00, 0x00, 0x00, 0x00, 0x00, 0x00, 0x00, 0x00, 0x00,
   0x00, 0x00, 0x00, 0x00, 0x00, 0x00, 0x00, 0x00, 0x00, 0x00, 0x00, 0x00,
   0x00, 0x00, 0x00, 0x00, 0x00, 0x00, 0x00, 0x00, 0x00, 0x00, 0x00, 0x00,
   0x00, 0x00, 0x00, 0x00, 0x00, 0x00, 0x00, 0x00, 0x00, 0x00, 0x00, 0x00,
   0x00, 0x00, 0x00, 0x00, 0x00, 0x00, 0x00, 0x00, 0x00, 0x00, 0x00, 0x00,
   0x00, 0x00, 0x00, 0x00, 0x00, 0x00, 0x00, 0x00, 0x00, 0x00, 0x00, 0x00,
   0x00 };
