#define maid_welcome2_width 199
#define maid_welcome2_height 253
static char maid_welcome2_bits[] = {
   0x00, 0x00, 0x00, 0x00, 0x00, 0x00, 0x00, 0x00, 0x00, 0x00, 0x00, 0x00,
   0x00, 0x00, 0x00, 0x00, 0x00, 0x00, 0x00, 0x00, 0x00, 0x00, 0x00, 0x00,
   0x00, 0x00, 0x00, 0x00, 0x00, 0x00, 0x00, 0x00, 0x00, 0x00, 0x00, 0x00,
   0x00, 0x00, 0x00, 0x00, 0x00, 0x00, 0x00, 0x00, 0x00, 0x00, 0x00, 0x00,
   0x00, 0x00, 0x00, 0x00, 0x00, 0x00, 0x00, 0x00, 0x00, 0x00, 0x00, 0x00,
   0x00, 0x00, 0x00, 0x00, 0x00, 0x00, 0x00, 0x00, 0x00, 0x00, 0x00, 0x00,
   0x00, 0x00, 0x00, 0x00, 0x00, 0x00, 0x00, 0x00, 0x00, 0x00, 0x00, 0x00,
   0x00, 0x00, 0x00, 0x00, 0x00, 0x00, 0x00, 0x00, 0x00, 0x00, 0x00, 0x00,
   0x00, 0x00, 0x00, 0x00, 0x00, 0x00, 0x00, 0x00, 0x00, 0x00, 0x00, 0x00,
   0x00, 0x00, 0x00, 0x00, 0x00, 0x00, 0x00, 0x00, 0x00, 0x00, 0x00, 0x00,
   0x00, 0x00, 0x00, 0x00, 0x00, 0x00, 0x00, 0x00, 0x00, 0x00, 0x00, 0x00,
   0x00, 0x00, 0x00, 0x00, 0x00, 0x00, 0x00, 0x00, 0x00, 0x00, 0x00, 0x00,
   0x00, 0x00, 0x00, 0x00, 0x00, 0x00, 0x00, 0x00, 0x00, 0x00, 0x00, 0x00,
   0x00, 0x00, 0x00, 0x00, 0x00, 0x00, 0x00, 0x00, 0x00, 0x00, 0x00, 0x00,
   0x00, 0x00, 0x00, 0x00, 0x00, 0x00, 0x00, 0x00, 0x00, 0x00, 0x00, 0x00,
   0x00, 0x00, 0x00, 0x00, 0x00, 0x00, 0x00, 0x00, 0x00, 0x00, 0x00, 0x00,
   0x00, 0x00, 0x00, 0x00, 0x00, 0x00, 0x00, 0x00, 0x00, 0x00, 0x00, 0x00,
   0x00, 0x00, 0x00, 0x00, 0x00, 0x00, 0x00, 0x00, 0x00, 0x00, 0x00, 0x00,
   0x00, 0x00, 0x00, 0x00, 0x00, 0x00, 0x00, 0x00, 0x00, 0x00, 0x00, 0x00,
   0x00, 0x00, 0x00, 0x00, 0x00, 0x00, 0x00, 0x00, 0x00, 0x00, 0x00, 0x00,
   0x04, 0x00, 0x00, 0x00, 0x00, 0x00, 0x00, 0x00, 0x00, 0x00, 0x00, 0x00,
   0x00, 0x00, 0x00, 0x00, 0x00, 0x00, 0x00, 0x00, 0x00, 0x00, 0x00, 0x00,
   0x08, 0x07, 0x00, 0x00, 0x00, 0x00, 0x00, 0x00, 0x00, 0x00, 0x00, 0x00,
   0x00, 0x00, 0x00, 0x00, 0x00, 0x00, 0x00, 0x00, 0x00, 0x00, 0x00, 0x00,
   0x00, 0x90, 0x0b, 0x00, 0x00, 0x00, 0x00, 0x00, 0x00, 0x00, 0x00, 0x00,
   0x00, 0x00, 0x00, 0x00, 0x00, 0x00, 0x00, 0x00, 0x00, 0x00, 0x00, 0x00,
   0x00, 0x00, 0xe0, 0x10, 0x00, 0x00, 0x00, 0x00, 0x00, 0x00, 0x00, 0x00,
   0x00, 0x00, 0x00, 0x00, 0x00, 0x00, 0x00, 0x00, 0x00, 0x00, 0x00, 0x00,
   0x00, 0x00, 0x00, 0x30, 0x20, 0x00, 0x00, 0x00, 0x00, 0x00, 0x00, 0x00,
   0x00, 0x00, 0x00, 0x00, 0x00, 0x00, 0x00, 0x00, 0x00, 0x00, 0x00, 0x00,
   0x00, 0x00, 0x00, 0x00, 0x18, 0x40, 0x00, 0x00, 0x00, 0x00, 0x00, 0x00,
   0x00, 0x00, 0x00, 0x00, 0x00, 0x00, 0x00, 0x00, 0x00, 0x00, 0x00, 0x00,
   0x00, 0x18, 0x00, 0x80, 0x00, 0x06, 0x40, 0x00, 0x00, 0x00, 0x00, 0x00,
   0x00, 0x00, 0x00, 0x00, 0x00, 0x00, 0x00, 0x00, 0x00, 0x00, 0x00, 0x00,
   0x00, 0x00, 0x54, 0x00, 0x80, 0x03, 0x01, 0x80, 0x00, 0x00, 0x00, 0x00,
   0x00, 0x00, 0x00, 0x00, 0x00, 0x00, 0x00, 0x00, 0x00, 0x00, 0x00, 0x00,
   0x00, 0x00, 0x00, 0xc4, 0x17, 0x60, 0xbe, 0x01, 0x00, 0x01, 0x00, 0x00,
   0x00, 0x00, 0x00, 0x00, 0x00, 0x00, 0x00, 0x00, 0x00, 0x00, 0x00, 0x00,
   0x00, 0x00, 0x00, 0x00, 0x04, 0x74, 0x61, 0x70, 0x00, 0x00, 0x02, 0x00,
   0x00, 0x00, 0x00, 0x00, 0x00, 0x00, 0x00, 0x00, 0x00, 0x00, 0x00, 0x00,
   0x00, 0x00, 0x00, 0x00, 0x00, 0x02, 0x40, 0x13, 0x10, 0x00, 0x00, 0x04,
   0x00, 0x00, 0x00, 0x00, 0x00, 0x00, 0x00, 0x00, 0x00, 0x00, 0x00, 0x00,
   0x00, 0x00, 0x00, 0x00, 0x00, 0x00, 0x02, 0x00, 0x1c, 0x00, 0x00, 0x00,
   0x18, 0x00, 0x00, 0x00, 0x00, 0x00, 0x00, 0x00, 0x00, 0x00, 0x00, 0x00,
   0x00, 0x00, 0x00, 0x00, 0x00, 0x00, 0x00, 0x03, 0x00, 0x08, 0x00, 0x00,
   0x00, 0x30, 0x0e, 0x00, 0x00, 0x00, 0x00, 0x00, 0x00, 0x00, 0x00, 0x00,
   0x00, 0x00, 0x00, 0x00, 0x00, 0x00, 0x00, 0x00, 0x02, 0x00, 0x00, 0x00,
   0x00, 0x02, 0xc0, 0x0d, 0x00, 0x00, 0x00, 0x00, 0x00, 0x00, 0x00, 0x00,
   0x00, 0x00, 0x00, 0x00, 0x00, 0x00, 0x00, 0x00, 0x00, 0x01, 0x00, 0x00,
   0xbe, 0x56, 0x1f, 0x40, 0x18, 0x00, 0x00, 0x00, 0x00, 0x00, 0x00, 0x00,
   0x00, 0x00, 0x00, 0x00, 0x00, 0x00, 0x00, 0x00, 0x00, 0x00, 0x01, 0x00,
   0xe0, 0xff, 0xff, 0x3f, 0x00, 0x10, 0x00, 0x00, 0x00, 0x00, 0x00, 0x00,
   0x00, 0x00, 0x00, 0x00, 0x00, 0x00, 0x00, 0x00, 0x00, 0x00, 0x80, 0x01,
   0x40, 0xff, 0xd5, 0xfe, 0xfd, 0x01, 0x30, 0x02, 0x00, 0x00, 0x00, 0x00,
   0x00, 0x00, 0x00, 0x00, 0x00, 0x00, 0x00, 0x00, 0x00, 0x00, 0x00, 0x40,
   0x00, 0xf8, 0xbf, 0xd5, 0xbf, 0xea, 0x2f, 0xe0, 0xeb, 0x7f, 0x00, 0x00,
   0x00, 0x00, 0x00, 0x00, 0x00, 0x00, 0x00, 0x00, 0x00, 0x00, 0x00, 0x00,
   0x40, 0x00, 0xfc, 0xff, 0xff, 0x5f, 0xd1, 0x3f, 0x40, 0x5c, 0x55, 0x00,
   0x00, 0x00, 0x00, 0x00, 0x00, 0x00, 0x00, 0x00, 0x00, 0x00, 0x00, 0x00,
   0x00, 0x40, 0x00, 0xef, 0xff, 0xff, 0xa9, 0xd6, 0x7f, 0x00, 0x00, 0x80,
   0x00, 0x00, 0x00, 0x00, 0x00, 0x00, 0x00, 0x00, 0x00, 0x00, 0x00, 0x00,
   0x00, 0x00, 0x60, 0xc0, 0xcf, 0xab, 0x5f, 0x55, 0xa9, 0xd7, 0x03, 0x00,
   0x60, 0x00, 0x00, 0x00, 0x00, 0x00, 0x00, 0x00, 0x00, 0x00, 0x00, 0x00,
   0x00, 0x00, 0xc0, 0x69, 0xf0, 0xf9, 0x55, 0x49, 0x5b, 0xad, 0xfe, 0x1f,
   0x00, 0x40, 0x00, 0x00, 0x00, 0x00, 0x00, 0x00, 0x00, 0x00, 0x00, 0x00,
   0x00, 0x00, 0x00, 0xc0, 0x3e, 0xfc, 0xc5, 0x54, 0xb5, 0xaa, 0x56, 0x7d,
   0x3f, 0x00, 0x40, 0x00, 0x00, 0x00, 0x00, 0x00, 0x00, 0x00, 0x00, 0x00,
   0x00, 0x00, 0x00, 0x00, 0xc0, 0x02, 0x3c, 0xf5, 0xab, 0x55, 0xd5, 0xaa,
   0xba, 0xfa, 0x00, 0x40, 0x00, 0x00, 0x00, 0x00, 0x00, 0x00, 0x00, 0x00,
   0x00, 0x00, 0x00, 0x00, 0x00, 0xc0, 0x00, 0xaf, 0xea, 0x55, 0x55, 0x55,
   0x69, 0xf5, 0xea, 0x03, 0x40, 0x00, 0x00, 0x00, 0x00, 0x00, 0x00, 0x00,
   0x00, 0x00, 0x00, 0x00, 0x00, 0x00, 0x40, 0x00, 0xaf, 0xea, 0xb4, 0xaa,
   0xaa, 0xd6, 0xea, 0xab, 0x03, 0x40, 0x00, 0x00, 0x00, 0x00, 0x00, 0x00,
   0x00, 0x00, 0x00, 0x00, 0x00, 0x00, 0x00, 0xc0, 0x80, 0xb3, 0xea, 0xab,
   0xb5, 0x6b, 0x55, 0xd5, 0xab, 0x06, 0xc0, 0x00, 0x00, 0x00, 0x00, 0x00,
   0x00, 0x00, 0x00, 0x00, 0x00, 0x00, 0x00, 0x00, 0xc0, 0xc0, 0x5b, 0xd5,
   0x54, 0x4b, 0xaa, 0x54, 0xed, 0xb7, 0x1e, 0x80, 0x00, 0x00, 0x00, 0x00,
   0x00, 0x00, 0x00, 0x00, 0x00, 0x00, 0x00, 0x00, 0x00, 0xc0, 0xe0, 0x4a,
   0xf5, 0xab, 0xba, 0xad, 0xaa, 0xaa, 0x57, 0x3d, 0x80, 0x00, 0x00, 0x00,
   0x00, 0x00, 0x00, 0x00, 0x00, 0x00, 0x00, 0x00, 0x00, 0x00, 0x38, 0x70,
   0x55, 0xf5, 0xaa, 0x4a, 0xd5, 0x6a, 0xb5, 0x5e, 0x75, 0x80, 0x00, 0x00,
   0x00, 0x00, 0x00, 0x00, 0x00, 0x00, 0x00, 0x00, 0x00, 0x00, 0x00, 0x1a,
   0x58, 0x55, 0xf5, 0xac, 0x4a, 0xb5, 0x56, 0xab, 0x7f, 0xf5, 0x81, 0x00,
   0x00, 0x00, 0x00, 0x00, 0x00, 0x00, 0x00, 0x00, 0x00, 0x00, 0x00, 0x00,
   0x07, 0xbc, 0x5a, 0xf5, 0x6a, 0xad, 0xaa, 0x54, 0x55, 0x9e, 0xd6, 0x83,
   0x00, 0x00, 0x00, 0x00, 0x00, 0x00, 0x00, 0x00, 0x00, 0x00, 0x00, 0x00,
   0x00, 0x01, 0x4c, 0x55, 0x75, 0xab, 0x6a, 0x6b, 0xab, 0x5a, 0xbd, 0xd6,
   0xc1, 0x00, 0x00, 0x00, 0x00, 0x00, 0x00, 0x00, 0x00, 0x00, 0x00, 0x00,
   0x00, 0xc0, 0x00, 0x5e, 0xd5, 0xfa, 0xd4, 0xaa, 0xaa, 0x5a, 0x6b, 0xf5,
   0xaa, 0x47, 0x00, 0x00, 0x00, 0x00, 0x00, 0x00, 0x00, 0x00, 0x00, 0x00,
   0x00, 0x00, 0xf8, 0x00, 0x56, 0x55, 0xf5, 0x57, 0xab, 0x56, 0x6b, 0x75,
   0xfd, 0xa9, 0x87, 0x03, 0x00, 0x00, 0x00, 0x00, 0x00, 0x00, 0x00, 0x00,
   0x00, 0x00, 0x00, 0x14, 0x80, 0x57, 0x55, 0x75, 0x54, 0xad, 0x6a, 0x55,
   0x4d, 0xf5, 0x56, 0x0f, 0x0e, 0x00, 0x00, 0x00, 0x00, 0x00, 0x00, 0x00,
   0x00, 0x00, 0x00, 0x00, 0x14, 0x80, 0x55, 0x55, 0xf5, 0x57, 0x75, 0x55,
   0xab, 0x6a, 0xeb, 0xab, 0x1e, 0x10, 0x00, 0x00, 0x00, 0x00, 0x00, 0x00,
   0x00, 0x00, 0x00, 0x00, 0x00, 0x06, 0xc0, 0x55, 0xb5, 0xea, 0x6c, 0x4b,
   0xab, 0x6c, 0xbb, 0xfa, 0x55, 0x3d, 0x20, 0x00, 0x00, 0x00, 0x00, 0x00,
   0x00, 0x00, 0x00, 0x00, 0x00, 0x00, 0x02, 0xc0, 0x92, 0x50, 0xf5, 0x92,
   0xb4, 0xb6, 0xaa, 0xaa, 0xd5, 0xab, 0x3a, 0x20, 0x00, 0x00, 0x00, 0x00,
   0x00, 0x00, 0x00, 0x00, 0x00, 0x00, 0x00, 0x04, 0x60, 0x00, 0x22, 0xf0,
   0x12, 0x41, 0x49, 0xab, 0x6a, 0xeb, 0xab, 0x36, 0x20, 0x00, 0x00, 0x00,
   0x00, 0x00, 0x00, 0x00, 0x00, 0x00, 0x00, 0x00, 0x02, 0x60, 0x24, 0xa0,
   0xf2, 0x40, 0x14, 0x00, 0x54, 0x65, 0xdb, 0xaf, 0x6a, 0x20, 0x00, 0x00,
   0x00, 0x00, 0x00, 0x00, 0x00, 0x00, 0x00, 0x00, 0x00, 0x06, 0x18, 0x20,
   0x21, 0xdc, 0x09, 0x40, 0x95, 0x00, 0xc8, 0xaa, 0xaf, 0x6a, 0x10, 0x00,
   0x00, 0x00, 0x00, 0x00, 0x00, 0x00, 0x00, 0x00, 0x00, 0x00, 0x04, 0x3c,
   0x01, 0x3c, 0xee, 0x90, 0x04, 0x00, 0x24, 0x81, 0x20, 0x5f, 0xd5, 0x10,
   0x00, 0x00, 0x00, 0x00, 0x00, 0x00, 0x00, 0x00, 0x00, 0x00, 0x00, 0x04,
   0x0c, 0x90, 0x18, 0xe7, 0x02, 0x24, 0xae, 0x00, 0x02, 0x02, 0xdc, 0xda,
   0x30, 0x00, 0x00, 0x00, 0x00, 0x00, 0x00, 0x00, 0x00, 0x00, 0x00, 0x00,
   0x0c, 0x4c, 0x02, 0x3c, 0xc7, 0xa8, 0x8a, 0x1f, 0x55, 0x14, 0x52, 0x56,
   0xd2, 0x61, 0x00, 0x00, 0x00, 0x00, 0x00, 0x00, 0x00, 0x00, 0x00, 0x00,
   0x00, 0x08, 0x06, 0x92, 0xcc, 0xc3, 0x03, 0xb4, 0x7e, 0x49, 0x55, 0x04,
   0x6d, 0xd2, 0x40, 0x00, 0x00, 0x00, 0x00, 0x00, 0x00, 0x00, 0x00, 0x00,
   0x00, 0x00, 0x18, 0xae, 0x48, 0xdd, 0x43, 0x53, 0xa9, 0x7e, 0xb5, 0xca,
   0x6e, 0x5d, 0xc8, 0x01, 0x00, 0x00, 0x00, 0x00, 0x00, 0x00, 0x00, 0x00,
   0x00, 0x00, 0x00, 0x1c, 0x56, 0x5a, 0xff, 0x80, 0x56, 0x37, 0xff, 0x6b,
   0xab, 0x5f, 0xfd, 0xc2, 0x01, 0x01, 0x00, 0x00, 0x00, 0x00, 0x00, 0x00,
   0x00, 0x00, 0x00, 0x00, 0x1c, 0x56, 0xd5, 0xfe, 0x01, 0x6f, 0xd5, 0xee,
   0x55, 0xad, 0xfe, 0xff, 0x14, 0x03, 0x02, 0x00, 0x00, 0x00, 0x00, 0x00,
   0x00, 0x00, 0x00, 0x00, 0x00, 0x3c, 0x57, 0x55, 0x3f, 0x00, 0x97, 0xe6,
   0xfd, 0xab, 0xaa, 0x5e, 0xff, 0xcd, 0x03, 0x00, 0x00, 0x00, 0x00, 0x00,
   0x00, 0x00, 0x00, 0x00, 0x00, 0x00, 0x34, 0x57, 0x55, 0x7f, 0x00, 0xe7,
   0xaa, 0x9e, 0x6d, 0xb5, 0xbd, 0xfe, 0x2b, 0x03, 0x04, 0x00, 0x00, 0x00,
   0x00, 0x00, 0x00, 0x00, 0x00, 0x00, 0x00, 0xbc, 0xd5, 0x55, 0x1f, 0x74,
   0xde, 0xaa, 0xdd, 0x55, 0xab, 0xfa, 0xff, 0x75, 0x07, 0x00, 0x00, 0x00,
   0x00, 0x00, 0x00, 0x00, 0x00, 0x00, 0x00, 0x00, 0xbe, 0xd5, 0x56, 0x3f,
   0x1a, 0xae, 0xaa, 0x9e, 0xaf, 0xaa, 0xfe, 0xfe, 0x4d, 0x07, 0x08, 0x00,
   0x00, 0x00, 0x00, 0x00, 0x00, 0x00, 0x00, 0x00, 0x00, 0xff, 0xd5, 0xea,
   0x4f, 0x05, 0xae, 0x95, 0x3a, 0xb7, 0x6a, 0xf5, 0xff, 0xb5, 0x06, 0x30,
   0x00, 0x00, 0x00, 0x00, 0x00, 0x00, 0x00, 0x00, 0x00, 0x00, 0x97, 0x2a,
   0xad, 0x67, 0x01, 0xfe, 0x3a, 0x7f, 0x5f, 0xab, 0xfd, 0xfe, 0xb5, 0x0f,
   0x00, 0x00, 0x00, 0x00, 0x00, 0x00, 0x00, 0x00, 0x00, 0x00, 0x00, 0xef,
   0xd5, 0xea, 0x1f, 0x00, 0xb8, 0x2a, 0x3c, 0x6f, 0xbb, 0xea, 0xff, 0x55,
   0x0e, 0x00, 0x00, 0x00, 0x00, 0x00, 0x00, 0x00, 0x00, 0x00, 0x00, 0x00,
   0xfb, 0x5a, 0xd5, 0x23, 0x00, 0xb8, 0xd2, 0x7f, 0xde, 0x76, 0xfd, 0xff,
   0x49, 0x0d, 0x20, 0x00, 0x00, 0x00, 0x00, 0x00, 0x00, 0x00, 0x00, 0x00,
   0x80, 0x7f, 0x57, 0xed, 0x03, 0x00, 0x38, 0x55, 0x7b, 0x5c, 0xcd, 0xfa,
   0xff, 0x5a, 0x07, 0x00, 0x00, 0x00, 0x00, 0x00, 0x00, 0x00, 0x00, 0x00,
   0x00, 0x00, 0x57, 0xad, 0xea, 0x01, 0x00, 0x78, 0xd7, 0x7a, 0x7a, 0xa5,
   0xf5, 0xff, 0x4b, 0x0e, 0x08, 0x00, 0x00, 0x00, 0x00, 0x00, 0x00, 0x00,
   0x00, 0x00, 0x80, 0xad, 0xd7, 0xea, 0x00, 0x00, 0x60, 0xa5, 0x7a, 0x70,
   0x5d, 0xf5, 0xff, 0xaa, 0x0e, 0x08, 0x00, 0x00, 0x00, 0x00, 0x00, 0x00,
   0x00, 0x00, 0x00, 0x80, 0x5f, 0x57, 0xd5, 0x01, 0x00, 0x60, 0x5a, 0x7d,
   0xf4, 0xaa, 0xed, 0xff, 0x75, 0x0d, 0x04, 0x00, 0x00, 0x00, 0x00, 0x00,
   0x00, 0x00, 0x00, 0x00, 0x00, 0x57, 0x6f, 0xf5, 0x00, 0x00, 0xc0, 0xd5,
   0xfa, 0xe0, 0xaa, 0xaa, 0xff, 0x55, 0x0d, 0x04, 0x00, 0x00, 0x00, 0x00,
   0x00, 0x00, 0x00, 0x00, 0x00, 0x80, 0xdf, 0x2d, 0xeb, 0x00, 0x00, 0xc0,
   0xa3, 0xea, 0xe0, 0x5b, 0xeb, 0xff, 0x5b, 0x0f, 0x02, 0x00, 0x00, 0x00,
   0x00, 0x00, 0x00, 0x00, 0x00, 0x00, 0x00, 0xd7, 0xaf, 0xea, 0x00, 0x00,
   0x80, 0xab, 0xfa, 0xc0, 0x6b, 0xad, 0xff, 0x4a, 0x1d, 0x03, 0x00, 0x00,
   0x00, 0x00, 0x00, 0x00, 0x00, 0x00, 0x00, 0x80, 0xbf, 0xaf, 0xfa, 0x01,
   0x15, 0x00, 0xbf, 0xf6, 0x80, 0xaf, 0xda, 0xff, 0xb5, 0x9a, 0x01, 0x00,
   0x00, 0x00, 0x00, 0x00, 0x00, 0x00, 0x00, 0x00, 0xc0, 0xf7, 0xaf, 0xf6,
   0xe0, 0x7f, 0x04, 0x56, 0xf5, 0x00, 0xaf, 0x55, 0xff, 0xb5, 0x8e, 0x01,
   0x00, 0x00, 0x00, 0x00, 0x00, 0x00, 0x00, 0x00, 0x00, 0xc0, 0xe7, 0xaf,
   0x7a, 0xf6, 0x7f, 0x0c, 0xf6, 0xee, 0x00, 0xaf, 0xea, 0xff, 0x55, 0xbd,
   0x01, 0x00, 0x00, 0x00, 0x00, 0x00, 0x00, 0x00, 0x00, 0x00, 0xc0, 0xff,
   0xdf, 0x7e, 0xfe, 0xff, 0x11, 0xbc, 0xfa, 0x00, 0xbc, 0xad, 0xff, 0x56,
   0xcd, 0x01, 0x00, 0x00, 0x00, 0x00, 0x00, 0x00, 0x00, 0x00, 0x00, 0xc0,
   0xf7, 0x5b, 0xbd, 0xff, 0xff, 0x15, 0xa8, 0xea, 0x00, 0x5f, 0xd5, 0xff,
   0xb5, 0x9a, 0x01, 0x00, 0x00, 0x00, 0x00, 0x00, 0x00, 0x00, 0x00, 0x00,
   0xc0, 0xff, 0x6f, 0xbf, 0xff, 0xff, 0x27, 0xb8, 0xfa, 0x00, 0xdc, 0xaa,
   0xff, 0xaa, 0xae, 0x00, 0x00, 0x00, 0x00, 0x00, 0x00, 0x00, 0x00, 0x00,
   0x00, 0x80, 0xff, 0x2f, 0xfd, 0x9f, 0xff, 0x1f, 0x70, 0xe8, 0x51, 0xb9,
   0xdb, 0x7f, 0xab, 0xec, 0x00, 0x00, 0x00, 0x00, 0x00, 0x00, 0x00, 0x00,
   0x00, 0x00, 0xc0, 0xff, 0xdf, 0xff, 0x8f, 0xff, 0x1f, 0xe0, 0xed, 0x21,
   0x7d, 0xad, 0xff, 0x6a, 0xfd, 0x00, 0x00, 0x00, 0x00, 0x00, 0x00, 0x00,
   0x00, 0x00, 0x00, 0x80, 0xff, 0x5f, 0xff, 0x93, 0xff, 0x3f, 0xc0, 0xea,
   0x95, 0xfe, 0xb6, 0x7f, 0xa5, 0xfa, 0x01, 0x00, 0x00, 0x00, 0x00, 0x00,
   0x00, 0x00, 0x00, 0x00, 0x80, 0xff, 0x3f, 0xff, 0x07, 0xf8, 0x7f, 0xc0,
   0xd5, 0xc0, 0xff, 0x6d, 0x7f, 0x5b, 0xab, 0x00, 0x00, 0x00, 0x00, 0x00,
   0x00, 0x00, 0x00, 0x00, 0x00, 0x80, 0xff, 0xbf, 0xff, 0x01, 0xf8, 0x3f,
   0xc0, 0xd3, 0xf3, 0xff, 0xdb, 0xff, 0xda, 0xd6, 0x01, 0x00, 0x00, 0x00,
   0x00, 0x00, 0x00, 0x00, 0x00, 0x00, 0x80, 0xff, 0xff, 0xff, 0x81, 0xfe,
   0x1f, 0x00, 0xd7, 0xf1, 0xff, 0x6b, 0x7f, 0xa5, 0xab, 0x01, 0x00, 0x00,
   0x00, 0x00, 0x00, 0x00, 0x00, 0x00, 0x00, 0x80, 0xff, 0xef, 0xff, 0x81,
   0xff, 0x0f, 0x00, 0x97, 0xfd, 0xff, 0xef, 0x7f, 0x5b, 0xeb, 0x01, 0x00,
   0x00, 0x00, 0x00, 0x00, 0x00, 0x00, 0x00, 0x00, 0xc0, 0xff, 0xbf, 0xff,
   0xc1, 0xff, 0x1f, 0x00, 0xae, 0xf9, 0xff, 0xb7, 0x7f, 0xad, 0xd7, 0x00,
   0x00, 0x00, 0x00, 0x00, 0x00, 0x00, 0x00, 0x00, 0x00, 0xc0, 0xff, 0xff,
   0xdf, 0xe0, 0xff, 0x0f, 0x00, 0xb6, 0xf7, 0xff, 0xaf, 0xbe, 0xaa, 0xef,
   0x00, 0x00, 0x00, 0x00, 0x00, 0x00, 0x00, 0x00, 0x00, 0x00, 0xc0, 0xff,
   0xff, 0x9f, 0xc0, 0xff, 0x07, 0x00, 0xdc, 0x03, 0xfe, 0xdf, 0xbf, 0xea,
   0xf7, 0x00, 0x00, 0x00, 0x00, 0x00, 0x00, 0x00, 0x00, 0x00, 0x00, 0xc0,
   0xff, 0xff, 0x3f, 0xe0, 0xff, 0x07, 0x00, 0xbc, 0x03, 0xfe, 0xbf, 0xfe,
   0xa6, 0xe7, 0x00, 0x00, 0x00, 0x00, 0x00, 0x00, 0x00, 0x00, 0x00, 0x00,
   0xc0, 0xff, 0xff, 0x1f, 0xc0, 0xed, 0x07, 0x00, 0xd0, 0xa1, 0xff, 0xaf,
   0xbf, 0xea, 0xf7, 0x00, 0x00, 0x00, 0x00, 0x00, 0x00, 0x00, 0x00, 0x00,
   0x00, 0x80, 0xff, 0xff, 0x1f, 0xe0, 0xdb, 0x07, 0x00, 0xb0, 0xfb, 0xff,
   0xdd, 0x5e, 0xf5, 0x7f, 0x00, 0x00, 0x00, 0x00, 0x00, 0x00, 0x00, 0x00,
   0x00, 0x00, 0x80, 0xff, 0xff, 0x3f, 0xc0, 0xef, 0x03, 0x00, 0xe0, 0xfb,
   0xff, 0xbb, 0x7f, 0xfb, 0x7b, 0x00, 0x00, 0x00, 0x00, 0x00, 0x00, 0x00,
   0x00, 0x00, 0x00, 0x80, 0xff, 0xff, 0x1f, 0xc0, 0xdb, 0x07, 0x00, 0xe1,
   0xfb, 0xff, 0xf9, 0x5e, 0xfd, 0x3b, 0x00, 0x00, 0x00, 0x00, 0x00, 0x00,
   0x00, 0x00, 0x00, 0x00, 0x80, 0xff, 0xff, 0x1f, 0xc0, 0xef, 0x03, 0x00,
   0xc0, 0xbb, 0xff, 0x71, 0xbf, 0xfa, 0x7f, 0x00, 0x00, 0x00, 0x00, 0x00,
   0x00, 0x00, 0x00, 0x00, 0x00, 0x00, 0xff, 0xff, 0xff, 0x81, 0xff, 0x01,
   0x00, 0x81, 0xff, 0xff, 0xe1, 0x7f, 0xfd, 0x3d, 0x00, 0x00, 0x00, 0x00,
   0x00, 0x00, 0x00, 0x00, 0x00, 0x00, 0x80, 0xff, 0xff, 0xff, 0x87, 0xff,
   0x03, 0x00, 0x00, 0x7e, 0xf5, 0xe1, 0xdf, 0xfe, 0x3f, 0x00, 0x00, 0x00,
   0x00, 0x00, 0x00, 0x00, 0x00, 0x00, 0x00, 0x00, 0xff, 0xff, 0x5f, 0x1d,
   0xfe, 0x00, 0x20, 0x00, 0xf4, 0xff, 0xe0, 0xbf, 0xfe, 0x3f, 0x00, 0x00,
   0x00, 0x00, 0x00, 0x00, 0x00, 0x00, 0x00, 0x00, 0x80, 0xff, 0xff, 0x9f,
   0x1c, 0x40, 0x00, 0x00, 0x00, 0x70, 0xf5, 0x81, 0xff, 0xfe, 0x3f, 0x00,
   0x00, 0x00, 0x00, 0x00, 0x00, 0x00, 0x00, 0x00, 0x00, 0x80, 0xff, 0xff,
   0x7f, 0x1f, 0x04, 0x00, 0x00, 0x00, 0xf0, 0xfb, 0x80, 0xbf, 0xff, 0x1f,
   0x00, 0x00, 0x00, 0x00, 0x00, 0x00, 0x00, 0x00, 0x00, 0x00, 0x80, 0xff,
   0xff, 0xff, 0x0f, 0x00, 0x00, 0x00, 0x00, 0xf0, 0xff, 0x00, 0x7c, 0xff,
   0x1f, 0x00, 0x00, 0x00, 0x00, 0x00, 0x00, 0x00, 0x00, 0x00, 0x00, 0x80,
   0xff, 0xff, 0x5f, 0x09, 0x00, 0x00, 0x00, 0x00, 0xf0, 0x3f, 0x00, 0x6c,
   0xff, 0x1f, 0x00, 0x00, 0x00, 0x00, 0x00, 0x00, 0x00, 0x00, 0x00, 0x00,
   0x80, 0xff, 0xff, 0x0f, 0x00, 0x00, 0x00, 0x00, 0x00, 0xc0, 0x3f, 0x00,
   0xfe, 0xff, 0x0f, 0x00, 0x00, 0x00, 0x00, 0x00, 0x00, 0x00, 0x00, 0x00,
   0x00, 0x00, 0xff, 0xff, 0x1f, 0x00, 0x00, 0x00, 0x00, 0x00, 0x40, 0x1f,
   0x00, 0xfe, 0xff, 0x1f, 0x00, 0x00, 0x00, 0x00, 0x00, 0x00, 0x00, 0x00,
   0x00, 0x00, 0x00, 0xff, 0xff, 0x0f, 0x00, 0x00, 0x00, 0x00, 0x00, 0x00,
   0x00, 0x3f, 0xfc, 0xff, 0x0f, 0x00, 0x00, 0x00, 0x00, 0x00, 0x00, 0x00,
   0x00, 0x00, 0x00, 0x00, 0xff, 0xff, 0x1f, 0x00, 0x00, 0x00, 0x00, 0x00,
   0x00, 0x80, 0x3f, 0xfe, 0xff, 0x0f, 0x00, 0x00, 0x00, 0x00, 0x00, 0x00,
   0x00, 0x00, 0x00, 0x00, 0x00, 0xff, 0xff, 0x1f, 0x00, 0x00, 0x00, 0x00,
   0x00, 0x00, 0xc0, 0x30, 0xff, 0xff, 0x1f, 0x00, 0x00, 0x00, 0x00, 0x00,
   0x00, 0x00, 0x00, 0x00, 0x00, 0x00, 0xfe, 0xff, 0x5f, 0x00, 0x00, 0x00,
   0x00, 0x00, 0x00, 0x80, 0x83, 0xff, 0xff, 0x0f, 0x00, 0x00, 0x00, 0x00,
   0x00, 0x00, 0x00, 0x00, 0x00, 0x00, 0x00, 0xfe, 0xff, 0x7f, 0x00, 0x00,
   0x00, 0x00, 0x00, 0x00, 0xc0, 0x9f, 0xff, 0xff, 0x0f, 0x00, 0x00, 0x00,
   0x00, 0x00, 0x00, 0x00, 0x00, 0x00, 0x00, 0x00, 0xfe, 0xff, 0xff, 0x00,
   0x00, 0x00, 0x00, 0x00, 0x00, 0x00, 0xde, 0xff, 0xff, 0x0f, 0x00, 0x00,
   0x00, 0x00, 0x00, 0x00, 0x00, 0x00, 0x00, 0x00, 0x00, 0xfe, 0xff, 0xff,
   0x03, 0x00, 0x00, 0x00, 0x00, 0x00, 0x00, 0xd4, 0xff, 0xff, 0x0f, 0x00,
   0x00, 0x00, 0x00, 0x00, 0x00, 0x00, 0x00, 0x00, 0x00, 0x00, 0xff, 0xff,
   0xff, 0x07, 0x00, 0x60, 0x00, 0x00, 0x00, 0x00, 0xe0, 0xff, 0xff, 0x0f,
   0x00, 0x00, 0x00, 0x00, 0x00, 0x00, 0x00, 0x00, 0x00, 0x00, 0x00, 0xff,
   0xff, 0xff, 0x0b, 0x00, 0x60, 0x00, 0x08, 0x00, 0x00, 0xe0, 0xff, 0xff,
   0x0f, 0x00, 0x00, 0x00, 0x00, 0x00, 0x00, 0x00, 0x00, 0x00, 0x00, 0x00,
   0xfe, 0xff, 0xff, 0x2f, 0x00, 0x80, 0x83, 0x03, 0x00, 0x00, 0xf0, 0xff,
   0xff, 0x07, 0x00, 0x00, 0x00, 0x00, 0x00, 0x00, 0x00, 0x00, 0x00, 0x00,
   0x00, 0xfe, 0xff, 0xff, 0x7f, 0x01, 0x00, 0x7c, 0x00, 0x00, 0x00, 0xf0,
   0xff, 0xff, 0x07, 0x00, 0x00, 0x00, 0x00, 0x00, 0x00, 0x00, 0x00, 0x00,
   0x00, 0x00, 0xfe, 0xff, 0xff, 0xff, 0x03, 0x00, 0x00, 0x00, 0x00, 0x00,
   0xf8, 0xff, 0xff, 0x07, 0x00, 0x00, 0x00, 0x00, 0x00, 0x00, 0x00, 0x00,
   0x00, 0x00, 0x00, 0xfe, 0xff, 0xff, 0xff, 0x2f, 0x00, 0x00, 0x00, 0x00,
   0x00, 0xfc, 0xff, 0xff, 0x07, 0x00, 0x00, 0x00, 0x00, 0x00, 0x00, 0x00,
   0x00, 0x00, 0x00, 0x00, 0xfe, 0xff, 0xff, 0xff, 0x3f, 0x00, 0x00, 0x00,
   0x00, 0x00, 0xff, 0xff, 0xff, 0x03, 0x00, 0x00, 0x00, 0x00, 0x00, 0x00,
   0x00, 0x00, 0x00, 0x00, 0x00, 0xf8, 0xff, 0xff, 0xff, 0x7f, 0x01, 0x00,
   0x00, 0x00, 0xd2, 0xff, 0xff, 0xff, 0x07, 0x00, 0x00, 0x00, 0x00, 0x00,
   0x00, 0x00, 0x00, 0x00, 0x00, 0x00, 0x00, 0xfe, 0xff, 0xff, 0xff, 0x07,
   0x00, 0x00, 0x80, 0xf2, 0xff, 0xff, 0xff, 0x03, 0x00, 0x00, 0x00, 0x00,
   0x00, 0x00, 0x00, 0x00, 0x00, 0x00, 0x00, 0x00, 0xf0, 0xff, 0xff, 0x7f,
   0x00, 0x00, 0x00, 0xd8, 0xff, 0xff, 0xff, 0xff, 0x03, 0x00, 0x00, 0x00,
   0x00, 0x00, 0x00, 0x00, 0x00, 0x00, 0x00, 0x00, 0x00, 0xe0, 0x3f, 0xff,
   0xbf, 0xc7, 0xff, 0xff, 0x7f, 0xff, 0xff, 0xff, 0xff, 0x01, 0x00, 0x00,
   0x00, 0x00, 0x00, 0x00, 0x00, 0x00, 0x00, 0x00, 0x00, 0x00, 0x80, 0x3f,
   0xfe, 0xff, 0xe1, 0xff, 0xff, 0x5f, 0xfe, 0xff, 0xff, 0xff, 0x03, 0x00,
   0x00, 0x00, 0x00, 0x00, 0x00, 0x00, 0x00, 0x00, 0x00, 0x00, 0x00, 0x00,
   0x3f, 0x40, 0xcf, 0x01, 0x1a, 0xe0, 0x00, 0x00, 0xff, 0xff, 0xff, 0x01,
   0x00, 0x00, 0x00, 0x00, 0x00, 0x00, 0x00, 0x00, 0x00, 0x00, 0x00, 0x00,
   0x00, 0x08, 0x00, 0x60, 0x00, 0x0c, 0xc0, 0x09, 0x00, 0xe0, 0xff, 0xff,
   0x01, 0x00, 0x00, 0x00, 0x00, 0x00, 0x00, 0x00, 0x00, 0x00, 0x00, 0x00,
   0x00, 0x00, 0x00, 0x00, 0x30, 0x00, 0x3f, 0x80, 0x03, 0x00, 0x80, 0xff,
   0xff, 0x01, 0x00, 0x00, 0x00, 0x00, 0x00, 0x00, 0x00, 0x00, 0x00, 0x00,
   0x00, 0x00, 0x00, 0x00, 0x00, 0x3e, 0x00, 0x3f, 0x80, 0x07, 0x00, 0x80,
   0xff, 0xff, 0x01, 0x00, 0x00, 0x00, 0x00, 0x00, 0x00, 0x00, 0x00, 0x00,
   0x00, 0x00, 0x00, 0x00, 0x00, 0x00, 0x1f, 0xc0, 0x7f, 0x00, 0x0e, 0x00,
   0x00, 0xff, 0xff, 0x00, 0x00, 0x00, 0x00, 0x00, 0x00, 0x00, 0x00, 0x00,
   0x00, 0x00, 0x00, 0x00, 0x00, 0x00, 0x00, 0x7f, 0xc0, 0xec, 0x00, 0x1e,
   0x00, 0x00, 0xfe, 0xff, 0x00, 0x00, 0x00, 0x00, 0x00, 0x00, 0x00, 0x00,
   0x00, 0x00, 0x00, 0x00, 0x00, 0x00, 0x00, 0x80, 0xff, 0xe5, 0xcc, 0x41,
   0xbf, 0x00, 0x00, 0xff, 0xff, 0x00, 0x00, 0x00, 0x00, 0x00, 0x00, 0x00,
   0x00, 0x00, 0x00, 0x00, 0x00, 0x00, 0x00, 0x00, 0xc0, 0xe7, 0x3f, 0x8e,
   0xf9, 0xff, 0x00, 0xc0, 0xff, 0xff, 0x00, 0x00, 0x00, 0x00, 0x00, 0x00,
   0x00, 0x00, 0x00, 0x00, 0x00, 0x00, 0x00, 0x00, 0x00, 0xc0, 0x03, 0x7e,
   0x1c, 0x7f, 0xff, 0x00, 0xc0, 0xff, 0x7f, 0x00, 0x00, 0x00, 0x00, 0x00,
   0x00, 0x00, 0x00, 0x00, 0x00, 0x00, 0x00, 0x00, 0x00, 0x00, 0xc0, 0x03,
   0x0e, 0x8e, 0x0f, 0x78, 0x00, 0xe0, 0xff, 0x3f, 0x00, 0x00, 0x00, 0x00,
   0x00, 0x00, 0x00, 0x00, 0x00, 0x00, 0x00, 0x00, 0x00, 0x00, 0x00, 0xc0,
   0x01, 0x3e, 0x1c, 0x0f, 0xf8, 0x03, 0xe0, 0xff, 0x0f, 0x00, 0x00, 0x00,
   0x00, 0x00, 0x00, 0x00, 0x00, 0x00, 0x00, 0x00, 0x00, 0x00, 0x00, 0x00,
   0xe0, 0xc1, 0x7f, 0xee, 0x1f, 0xf0, 0x5f, 0xfa, 0x7f, 0x03, 0x00, 0x00,
   0x00, 0x00, 0x00, 0x00, 0x00, 0x00, 0x00, 0x00, 0x00, 0x00, 0x00, 0x00,
   0x00, 0xc0, 0xe0, 0xef, 0xfd, 0x3f, 0xf0, 0xdf, 0xe5, 0x1f, 0x00, 0x00,
   0x00, 0x00, 0x00, 0x00, 0x00, 0x00, 0x00, 0x00, 0x00, 0x00, 0x00, 0xdb,
   0x02, 0x00, 0xc0, 0xf0, 0xe1, 0x5f, 0x7c, 0x70, 0x5f, 0xe9, 0x07, 0x00,
   0x00, 0x00, 0x00, 0x00, 0x00, 0x00, 0x00, 0x00, 0x00, 0x00, 0x00, 0x00,
   0xf7, 0x5f, 0x00, 0xc0, 0xb8, 0x00, 0x0f, 0xf0, 0x30, 0xbc, 0x6d, 0x07,
   0x00, 0x00, 0x00, 0x00, 0x00, 0x00, 0x00, 0x00, 0x00, 0x00, 0x00, 0x00,
   0x00, 0x02, 0xfa, 0x03, 0xc0, 0x38, 0x80, 0x2e, 0xe0, 0x31, 0xfc, 0x8b,
   0x1e, 0x00, 0x00, 0x00, 0x00, 0x00, 0x00, 0x00, 0x00, 0x00, 0x00, 0x00,
   0x00, 0x00, 0x47, 0x00, 0x3e, 0x80, 0x1c, 0x00, 0x2c, 0xc0, 0x31, 0x70,
   0xbb, 0x7e, 0x00, 0x00, 0x00, 0x00, 0x00, 0x00, 0x00, 0x00, 0x00, 0x00,
   0x00, 0x00, 0x00, 0x06, 0x52, 0xe9, 0xc0, 0x2c, 0xc0, 0x36, 0x80, 0x19,
   0xe0, 0xff, 0xff, 0x01, 0x00, 0x00, 0x00, 0x00, 0x00, 0x00, 0x00, 0x00,
   0x00, 0x00, 0x00, 0x00, 0x4e, 0x00, 0x80, 0x87, 0x4d, 0x40, 0x3e, 0x80,
   0x39, 0xf0, 0x7f, 0xad, 0x07, 0x00, 0x00, 0x00, 0x00, 0x00, 0x00, 0x00,
   0x00, 0x00, 0x00, 0x00, 0x00, 0x04, 0x89, 0x54, 0x9a, 0x6d, 0xc0, 0x1e,
   0x90, 0x1b, 0xfe, 0x81, 0x90, 0x1f, 0x00, 0x00, 0x00, 0x00, 0x00, 0x00,
   0x00, 0x00, 0x00, 0x00, 0x00, 0x00, 0x2e, 0x90, 0x00, 0xb2, 0xcf, 0xc0,
   0x0e, 0x00, 0xdf, 0xbf, 0x12, 0x82, 0xfb, 0x01, 0x00, 0x00, 0x00, 0x00,
   0x00, 0x00, 0x00, 0x00, 0x00, 0x00, 0x00, 0x8c, 0x00, 0x52, 0xe4, 0xdc,
   0x80, 0x0f, 0x94, 0x7f, 0x05, 0x44, 0xe9, 0xa1, 0x07, 0x00, 0x00, 0x00,
   0x00, 0x00, 0x00, 0x00, 0x00, 0x00, 0x00, 0x00, 0x0c, 0x4a, 0x80, 0xc0,
   0x99, 0x81, 0x0f, 0xd8, 0xbf, 0xa0, 0x10, 0xc8, 0x43, 0x3e, 0x00, 0x00,
   0x00, 0x00, 0x00, 0x00, 0x00, 0x00, 0x00, 0x00, 0x00, 0x98, 0x00, 0x25,
   0x74, 0xc8, 0xc0, 0x06, 0x4e, 0x1d, 0x05, 0x42, 0xf2, 0x09, 0xf0, 0x00,
   0x00, 0x00, 0x00, 0x00, 0x00, 0x00, 0x00, 0x00, 0x00, 0x00, 0x18, 0x24,
   0x80, 0xf0, 0x80, 0x83, 0x0f, 0x4e, 0x5c, 0xa8, 0x08, 0xd4, 0x93, 0x82,
   0x07, 0x00, 0x00, 0x00, 0x00, 0x00, 0x00, 0x00, 0x00, 0x00, 0x00, 0x28,
   0x81, 0x14, 0x3a, 0x88, 0x81, 0x07, 0x03, 0x3a, 0x01, 0x52, 0xfb, 0x4d,
   0x48, 0x0e, 0x00, 0x00, 0x00, 0x00, 0x00, 0x00, 0x00, 0x00, 0x00, 0x00,
   0x28, 0x10, 0x40, 0x1c, 0x01, 0xc7, 0x83, 0x4b, 0x38, 0x55, 0x82, 0xea,
   0x5b, 0x01, 0x78, 0x00, 0x00, 0x00, 0x00, 0x00, 0x00, 0x00, 0x00, 0x00,
   0x00, 0x18, 0x45, 0x09, 0x0d, 0x00, 0x86, 0xe3, 0x01, 0x70, 0x00, 0xa8,
   0xf7, 0xaf, 0xaa, 0x54, 0x01, 0x00, 0x00, 0x00, 0x00, 0x00, 0x00, 0x00,
   0x00, 0x00, 0x30, 0x08, 0x21, 0xac, 0x24, 0x9c, 0x63, 0xa9, 0xf6, 0xaa,
   0x62, 0x7d, 0xfe, 0x2a, 0x51, 0x07, 0x00, 0x00, 0x00, 0x00, 0x00, 0x00,
   0x00, 0x00, 0x00, 0x30, 0x20, 0x44, 0xbd, 0xdb, 0xfa, 0x73, 0x54, 0xed,
   0x01, 0x58, 0x3b, 0xec, 0x57, 0xa5, 0x1e, 0x00, 0x00, 0x00, 0x00, 0x00,
   0x00, 0x00, 0x00, 0x00, 0x60, 0x85, 0x08, 0xfa, 0xff, 0xff, 0x7f, 0x75,
   0xdb, 0x55, 0x75, 0x35, 0x80, 0xbf, 0x5d, 0x79, 0x00, 0x00, 0x00, 0x00,
   0x00, 0x00, 0x00, 0x00, 0x00, 0x60, 0x10, 0x22, 0xf8, 0x0f, 0xda, 0xff,
   0xff, 0xf7, 0x01, 0xda, 0x1f, 0x00, 0xfa, 0xd2, 0xea, 0x00, 0x00, 0x00,
   0x00, 0x00, 0x00, 0x00, 0x00, 0x00, 0xc0, 0x22, 0x44, 0xf1, 0x0d, 0x00,
   0x80, 0xfa, 0xff, 0xab, 0x56, 0x1d, 0x00, 0xf0, 0xb7, 0xd6, 0x03, 0x00,
   0x00, 0x00, 0x00, 0x00, 0x00, 0x00, 0x00, 0x40, 0x81, 0x10, 0x7c, 0x00,
   0x00, 0x00, 0xc0, 0x7f, 0x40, 0xad, 0x0e, 0x00, 0x80, 0x5f, 0x5b, 0x0f,
   0x00, 0x00, 0x00, 0x00, 0x00, 0x00, 0x00, 0x00, 0x40, 0x15, 0xd4, 0xfd,
   0x00, 0x00, 0x00, 0xf0, 0x79, 0xa9, 0xeb, 0x0d, 0x00, 0x00, 0xfa, 0x76,
   0x1d, 0x00, 0x00, 0x00, 0x00, 0x00, 0x00, 0x00, 0x00, 0x80, 0x41, 0xfd,
   0x3f, 0x00, 0x00, 0x00, 0x50, 0x78, 0xa4, 0x5e, 0x07, 0x00, 0x00, 0xe8,
   0xed, 0x1d, 0x00, 0x00, 0x00, 0x00, 0x00, 0x00, 0x00, 0x00, 0x00, 0x0b,
   0x50, 0x3f, 0x00, 0x00, 0x00, 0x00, 0xf0, 0xfa, 0x6a, 0x07, 0x00, 0x00,
   0xc0, 0x55, 0x7b, 0x00, 0x00, 0x00, 0x00, 0x00, 0x00, 0x00, 0x00, 0x00,
   0x23, 0x04, 0x17, 0x00, 0x00, 0x00, 0x00, 0xe0, 0xff, 0xdb, 0x01, 0x00,
   0x00, 0x80, 0xdf, 0x76, 0x00, 0x00, 0x00, 0x00, 0x00, 0x00, 0x00, 0x00,
   0x00, 0x86, 0x48, 0x1f, 0x00, 0x00, 0x00, 0x00, 0xe0, 0xff, 0xb6, 0x01,
   0x00, 0x00, 0x00, 0xde, 0xd6, 0x01, 0x00, 0x00, 0x00, 0x00, 0x00, 0x00,
   0x00, 0x00, 0x4e, 0xa0, 0x1d, 0x00, 0x00, 0x00, 0x00, 0xc0, 0xb7, 0xed,
   0x01, 0x00, 0x00, 0x00, 0xf8, 0xed, 0x02, 0x00, 0x00, 0x00, 0x00, 0x00,
   0x00, 0x00, 0x00, 0x0e, 0xc5, 0x0d, 0x00, 0x00, 0x00, 0x00, 0xc0, 0xef,
   0xea, 0x00, 0x00, 0x00, 0x00, 0xe0, 0xbb, 0x03, 0x00, 0x00, 0x00, 0x00,
   0x00, 0x00, 0x00, 0x00, 0x24, 0x70, 0x06, 0x00, 0x00, 0x00, 0x00, 0x80,
   0x5f, 0x6d, 0x00, 0x00, 0x00, 0x00, 0xa0, 0xd7, 0x06, 0x00, 0x00, 0x00,
   0x00, 0x00, 0x00, 0x00, 0x00, 0x8e, 0xe2, 0x06, 0x00, 0x00, 0x00, 0x00,
   0x00, 0xdf, 0x7b, 0x00, 0x00, 0x00, 0x00, 0x80, 0xbe, 0x07, 0x00, 0x00,
   0x00, 0x00, 0x00, 0x00, 0x00, 0x00, 0x24, 0x38, 0x03, 0x00, 0x00, 0x00,
   0x00, 0x00, 0xbf, 0x3a, 0x00, 0x00, 0x00, 0x00, 0x00, 0xd6, 0x0e, 0x00,
   0x00, 0x00, 0x00, 0x00, 0x00, 0x00, 0x00, 0x0e, 0x39, 0x01, 0x00, 0x00,
   0x00, 0x00, 0x00, 0x7e, 0x3b, 0x00, 0x00, 0x00, 0x00, 0x00, 0xdc, 0x0d,
   0x00, 0x00, 0x00, 0x00, 0x00, 0x00, 0x00, 0x00, 0x24, 0xce, 0x01, 0x00,
   0x00, 0x00, 0x00, 0x00, 0xfc, 0x36, 0x00, 0x00, 0x00, 0x00, 0x00, 0x7c,
   0x0f, 0x00, 0x00, 0x00, 0x00, 0x00, 0x00, 0x00, 0x00, 0x4c, 0x8c, 0x00,
   0x00, 0x00, 0x00, 0x00, 0x00, 0xfc, 0x3d, 0x00, 0x00, 0x00, 0x00, 0x00,
   0x58, 0x0d, 0x00, 0x00, 0x00, 0x00, 0x00, 0x00, 0x00, 0x00, 0x0c, 0x67,
   0x00, 0x00, 0x00, 0x00, 0x00, 0x00, 0xf8, 0x35, 0x00, 0x00, 0x00, 0x00,
   0x00, 0xf8, 0x1b, 0x00, 0x00, 0x00, 0x00, 0x00, 0x00, 0x00, 0x00, 0x5c,
   0xc7, 0x00, 0x00, 0x00, 0x00, 0x00, 0x00, 0xf8, 0x3b, 0x00, 0x00, 0x00,
   0x00, 0x00, 0xb8, 0x1e, 0x00, 0x00, 0x00, 0x00, 0x00, 0x00, 0x00, 0x00,
   0x84, 0x61, 0x00, 0x00, 0x00, 0x00, 0x00, 0x00, 0xf0, 0x1f, 0x00, 0x00,
   0x00, 0x00, 0x00, 0xfc, 0x1d, 0x00, 0x00, 0x00, 0x00, 0x00, 0x00, 0x00,
   0x00, 0xdc, 0x2b, 0x00, 0x00, 0x00, 0x00, 0x00, 0x00, 0xe0, 0x1f, 0x00,
   0x00, 0x00, 0x00, 0x00, 0xba, 0x1b, 0x00, 0xfe, 0xff, 0xbf, 0x02, 0x00,
   0x00, 0x00, 0xe8, 0x30, 0x00, 0x00, 0x00, 0x00, 0x00, 0x00, 0xc0, 0x1f,
   0x00, 0x00, 0x00, 0x00, 0x80, 0xd7, 0x0e, 0x00, 0xfe, 0xff, 0xff, 0x0f,
   0x00, 0x00, 0x00, 0xd8, 0x30, 0x00, 0x00, 0x00, 0x00, 0x00, 0x00, 0x80,
   0x1d, 0x00, 0x00, 0x00, 0x00, 0xe0, 0xd5, 0x0d, 0x00, 0xdb, 0xeb, 0x6f,
   0x1f, 0x00, 0x00, 0x00, 0x78, 0x1c, 0x00, 0x00, 0x00, 0x00, 0x00, 0x00,
   0xc0, 0x0f, 0x00, 0x00, 0x00, 0x00, 0x3c, 0xb2, 0x07, 0x68, 0xbf, 0x17,
   0x50, 0x39, 0x00, 0x00, 0x00, 0x38, 0x18, 0x00, 0x00, 0x00, 0x00, 0x00,
   0x00, 0x00, 0x1f, 0x00, 0x00, 0x00, 0x80, 0xee, 0x64, 0x07, 0x04, 0xe8,
   0xcb, 0x96, 0xe2, 0x0a, 0x00, 0x00, 0x9c, 0x0c, 0x00, 0x00, 0x00, 0x00,
   0x00, 0x00, 0x00, 0x3d, 0x00, 0x00, 0x00, 0xc0, 0x0b, 0xd5, 0x03, 0x04,
   0xc0, 0x55, 0x55, 0xcd, 0x3f, 0x00, 0x00, 0x1f, 0x08, 0x00, 0x00, 0x00,
   0x00, 0x00, 0x00, 0x00, 0x36, 0x00, 0x00, 0x00, 0x78, 0xb5, 0xf4, 0x00,
   0x14, 0x80, 0xab, 0x5a, 0x53, 0x35, 0x00, 0x80, 0x0f, 0x06, 0x00, 0x00,
   0x00, 0x00, 0x00, 0x00, 0x00, 0x6e, 0x00, 0x00, 0x00, 0xae, 0x42, 0x7b,
   0x00, 0x06, 0xc0, 0xab, 0xb5, 0x2a, 0x25, 0x00, 0xc0, 0x2f, 0x06, 0x00,
   0x00, 0x00, 0x00, 0x00, 0x00, 0x00, 0xfc, 0x00, 0x00, 0x80, 0x5b, 0x2d,
   0x1d, 0x00, 0x14, 0xc0, 0x6b, 0x55, 0x4b, 0x35, 0x00, 0xf0, 0x03, 0x03,
   0x00, 0x00, 0x00, 0x00, 0x00, 0x00, 0x00, 0xec, 0x01, 0x00, 0xf0, 0x25,
   0xd1, 0x07, 0x00, 0x06, 0xc0, 0xab, 0xaa, 0x2a, 0x35, 0x00, 0xf0, 0x27,
   0x02, 0x00, 0x00, 0x00, 0x00, 0x00, 0x00, 0x00, 0x98, 0x01, 0x00, 0x74,
   0x49, 0xab, 0x03, 0x00, 0x14, 0xc0, 0xab, 0xaa, 0x56, 0x6a, 0x48, 0xbc,
   0x01, 0x2f, 0x00, 0x00, 0x00, 0x00, 0x00, 0x00, 0x00, 0xf0, 0x03, 0x00,
   0x4f, 0x55, 0xfc, 0x00, 0x00, 0x06, 0xe0, 0x57, 0x52, 0x55, 0xf5, 0xff,
   0xef, 0x03, 0xf4, 0x17, 0x00, 0x00, 0x00, 0x00, 0x00, 0x00, 0x14, 0x03,
   0xe0, 0x15, 0xa9, 0x3d, 0x00, 0x00, 0x14, 0xc0, 0x59, 0x55, 0x55, 0xf5,
   0xfb, 0xdf, 0x40, 0x80, 0xfa, 0x05, 0x00, 0x00, 0x00, 0x80, 0xfa, 0x57,
   0x07, 0x7c, 0xaa, 0xd2, 0x0f, 0x00, 0x00, 0x06, 0xc0, 0x53, 0x55, 0x55,
   0xf5, 0x8a, 0xf7, 0x08, 0x04, 0x52, 0xff, 0x57, 0x25, 0xa9, 0xff, 0x57,
   0x80, 0x8e, 0x5f, 0x49, 0xd5, 0x03, 0x00, 0x00, 0x06, 0xc0, 0x5b, 0xa5,
   0xaa, 0xf4, 0xd5, 0x3f, 0x80, 0x00, 0x00, 0x20, 0xba, 0xff, 0xff, 0x2a,
   0x00, 0xa1, 0xfa, 0x4a, 0x52, 0x7e, 0x00, 0x00, 0x00, 0x0e, 0xe0, 0x2b,
   0x55, 0x55, 0xf5, 0x25, 0x7d, 0x02, 0x20, 0x40, 0x40, 0xa0, 0x24, 0x00,
   0x02, 0x04, 0x02, 0xb5, 0xaa, 0xaa, 0x1f, 0x00, 0x00, 0x00, 0x02, 0xc0,
   0x55, 0x55, 0xab, 0xfa, 0xed, 0x3e, 0x08, 0x02, 0x09, 0x02, 0x00, 0x80,
   0x92, 0x40, 0x10, 0x40, 0x7d, 0x29, 0xd5, 0x05, 0x00, 0x00, 0x00, 0x0e,
   0xe0, 0x5b, 0xaa, 0xaa, 0xfa, 0xdd, 0x1e, 0x20, 0x04, 0x00, 0x84, 0x44,
   0x02, 0x00, 0x84, 0x00, 0x04, 0xf2, 0xaa, 0xfa, 0x00, 0x00, 0x00, 0x00,
   0x06, 0xc0, 0x55, 0x55, 0x2b, 0xf5, 0xf7, 0x9f, 0x00, 0x20, 0x40, 0x00,
   0x00, 0x10, 0x00, 0x00, 0x20, 0x80, 0x6a, 0xa5, 0x3e, 0x00, 0x00, 0x00,
   0x00, 0x0a, 0xe0, 0x55, 0x49, 0x55, 0xf9, 0xff, 0x0f, 0x04, 0x00, 0x00,
   0x10, 0x00, 0x00, 0x92, 0x00, 0x02, 0x08, 0xea, 0xe9, 0x07, 0x00, 0x00,
   0x00, 0x00, 0x06, 0xe0, 0xad, 0xaa, 0xaa, 0xfa, 0xb6, 0x07, 0x20, 0x80,
   0x04, 0x80, 0x44, 0x40, 0x00, 0x84, 0x80, 0x00, 0x54, 0xff, 0x00, 0x00,
   0x00, 0x00, 0x00, 0x05, 0xe0, 0xa9, 0xaa, 0x2a, 0x35, 0x00, 0x97, 0x00,
   0x09, 0x00, 0x02, 0x00, 0x04, 0x00, 0x00, 0x08, 0x40, 0xc8, 0x3f, 0x00,
   0x00, 0x00, 0x00, 0x00, 0x02, 0xc0, 0x9b, 0xaa, 0xaa, 0x1a, 0x00, 0x01,
   0x42, 0x00, 0x10, 0x00, 0x08, 0x00, 0x09, 0x08, 0x80, 0x00, 0x2a, 0x03,
   0x00, 0x00, 0x00, 0x00, 0x00, 0x02, 0xe0, 0xb5, 0xaa, 0xaa, 0x1a, 0x00,
   0x03, 0x04, 0x00, 0x42, 0x90, 0x80, 0x10, 0x90, 0x00, 0x01, 0x12, 0x68,
   0x03, 0x00, 0x00, 0x00, 0x00, 0x00, 0x07, 0xe0, 0xd5, 0x6d, 0x95, 0x34,
   0x00, 0x5f, 0x00, 0x51, 0x00, 0x02, 0x10, 0x00, 0x00, 0x10, 0x08, 0x40,
   0x50, 0x07, 0x00, 0x00, 0x00, 0x00, 0x00, 0xfc, 0xff, 0x2a, 0x55, 0xa9,
   0x1f, 0x00, 0x7f, 0x25, 0x00, 0x00, 0x00, 0x00, 0x22, 0x01, 0x02, 0x40,
   0x00, 0xd0, 0x06, 0x00, 0x00, 0x00, 0x00, 0x00, 0x80, 0xff, 0x55, 0x55,
   0xf5, 0x1f, 0x00, 0xaa, 0xaf, 0x02, 0x49, 0x44, 0x42, 0x00, 0x48, 0x20,
   0x01, 0x41, 0xb5, 0x07, 0x00, 0x00, 0x00, 0x00, 0x00, 0x80, 0xea, 0x4a,
   0x95, 0x1a, 0x00, 0x00, 0x00, 0xf8, 0x2d, 0x00, 0x00, 0x00, 0x04, 0x00,
   0x00, 0x08, 0x14, 0xf5, 0x07, 0x00, 0x00, 0x00, 0x00, 0x00, 0x00, 0xff,
   0xbb, 0x6a, 0x1d, 0x00, 0x00, 0x00, 0x00, 0xbf, 0x12, 0x08, 0x04, 0x20,
   0x80, 0x04, 0xa0, 0xfa, 0x0b, 0x00, 0x00, 0x00, 0x00, 0x00, 0x00, 0x00,
   0xf4, 0xff, 0xff, 0x07, 0x00, 0x00, 0x00, 0x00, 0xe0, 0xef, 0x42, 0x90,
   0x00, 0x09, 0x48, 0xd5, 0x17, 0x00, 0x00, 0x00, 0x00, 0x00, 0x00, 0x00,
   0x00, 0x00, 0x00, 0x00, 0x01, 0x00, 0x00, 0x00, 0x00, 0x00, 0xd8, 0xbf,
   0x77, 0xb7, 0xea, 0xfd, 0x1f, 0x00, 0x00, 0x00, 0x00, 0x00, 0x00, 0x00,
   0x00, 0x00, 0x00, 0x00, 0x00, 0x00, 0x00, 0x00, 0x00, 0x00, 0x00, 0x00,
   0xe8, 0xfe, 0xff, 0xdf, 0x17, 0x00, 0x00, 0x00, 0x00, 0x00, 0x00, 0x00,
   0x00, 0x00, 0x00, 0x00, 0x00, 0x00, 0x00, 0x00, 0x00, 0x00, 0x00, 0x00,
   0x00, 0xc0, 0xa4, 0xae, 0x6a, 0x00, 0x00, 0x00, 0x00, 0x00, 0x00, 0x00,
   0x00, 0x00, 0x00, 0x00, 0x00, 0x00, 0x00, 0x00, 0x00, 0x00, 0x00, 0x00,
   0x00, 0x00, 0x80, 0x00, 0x0e, 0x60, 0x00, 0x00, 0x00, 0x00, 0x00, 0x00,
   0x00, 0x00, 0x00, 0x00, 0x00, 0x00, 0x00, 0x00, 0x00, 0x00, 0x00, 0x00,
   0x00, 0x00, 0x00, 0xc0, 0x00, 0x0e, 0x60, 0x00, 0x00, 0x00, 0x00, 0x00,
   0x00, 0x00, 0x00, 0x00, 0x00, 0x00, 0x00, 0x00, 0x00, 0x00, 0x00, 0x00,
   0x00, 0x00, 0x00, 0x00, 0x80, 0x00, 0x0e, 0x60, 0x00, 0x00, 0x00, 0x00,
   0x00, 0x00, 0x00, 0x00, 0x00, 0x00, 0x00, 0x00, 0x00, 0x00, 0x00, 0x00,
   0x00, 0x00, 0x00, 0x00, 0x00, 0xc0, 0x00, 0x0e, 0x20, 0x00, 0x00, 0x00,
   0x00, 0x00, 0x00, 0x00, 0x00, 0x00, 0x00, 0x00, 0x00, 0x00, 0x00, 0x00,
   0x00, 0x00, 0x00, 0x00, 0x00, 0x00, 0x80, 0x00, 0x0e, 0x60, 0x00, 0x00,
   0x00, 0x00, 0x00, 0x00, 0x00, 0x00, 0x00, 0x00, 0x00, 0x00, 0x00, 0x00,
   0x00, 0x00, 0x00, 0x00, 0x00, 0x00, 0x00, 0x80, 0x00, 0x0e, 0x30, 0x00,
   0x00, 0x00, 0x00, 0x00, 0x00, 0x00, 0x00, 0x00, 0x00, 0x00, 0x00, 0x00,
   0x00, 0x00, 0x00, 0x00, 0x00, 0x00, 0x00, 0x00, 0xc0, 0x00, 0x0e, 0x20,
   0x00, 0x00, 0x00, 0x00, 0x00, 0x00, 0x00, 0x00, 0x00, 0x00, 0x00, 0x00,
   0x00, 0x00, 0x00, 0x00, 0x00, 0x00, 0x00, 0x00, 0x00, 0x80, 0x00, 0x0e,
   0x30, 0x00, 0x00, 0x00, 0x00, 0x00, 0x00, 0x00, 0x00, 0x00, 0x00, 0x00,
   0x00, 0x00, 0x00, 0x00, 0x00, 0x00, 0x00, 0x00, 0x00, 0x00, 0x80, 0x01,
   0x0e, 0x30, 0x00, 0x00, 0x00, 0x00, 0x00, 0x00, 0x00, 0x00, 0x00, 0x00,
   0x00, 0x00, 0x00, 0x00, 0x00, 0x00, 0x00, 0x00, 0x00, 0x00, 0x00, 0x80,
   0x00, 0x0e, 0x30, 0x00, 0x00, 0x00, 0x00, 0x00, 0x00, 0x00, 0x00, 0x00,
   0x00, 0x00, 0x00, 0x00, 0x00, 0x00, 0x00, 0x00, 0x00, 0x00, 0x00, 0x00,
   0x80, 0x01, 0x0e, 0x30, 0x00, 0x00, 0x00, 0x00, 0x00, 0x00, 0x00, 0x00,
   0x00, 0x00, 0x00, 0x00, 0x00, 0x00, 0x00, 0x00, 0x00, 0x00, 0x00, 0x00,
   0x00, 0x80, 0x00, 0x0e, 0x10, 0x00, 0x00, 0x00, 0x00, 0x00, 0x00, 0x00,
   0x00, 0x00, 0x00, 0x00, 0x00, 0x00, 0x00, 0x00, 0x00, 0x00, 0x00, 0x00,
   0x00, 0x00, 0x80, 0x01, 0x0e, 0x30, 0x00, 0x00, 0x00, 0x00, 0x00, 0x00,
   0x00, 0x00, 0x00, 0x00, 0x00, 0x00, 0x00, 0x00, 0x00, 0x00, 0x00, 0x00,
   0x00, 0x00, 0x00, 0x80, 0x00, 0x06, 0x10, 0x00, 0x00, 0x00, 0x00, 0x00,
   0x00, 0x00, 0x00, 0x00, 0x00, 0x00, 0x00, 0x00, 0x00, 0x00, 0x00, 0x00,
   0x00, 0x00, 0x00, 0x00, 0x80, 0x01, 0x0e, 0x18, 0x00, 0x00, 0x00, 0x00,
   0x00, 0x00, 0x00, 0x00, 0x00, 0x00, 0x00, 0x00, 0x00, 0x00, 0x00, 0x00,
   0x00, 0x00, 0x00, 0x00, 0x00, 0x80, 0x00, 0x06, 0x30, 0x00, 0x00, 0x00,
   0x00, 0x00, 0x00, 0x00, 0x00, 0x00, 0x00, 0x00, 0x00, 0x00, 0x00, 0x00,
   0x00, 0x00, 0x00, 0x00, 0x00, 0x00, 0x80, 0x01, 0x06, 0x10, 0x00, 0x00,
   0x00, 0x00, 0x00, 0x00, 0x00, 0x00, 0x00, 0x00, 0x00, 0x00, 0x00, 0x00,
   0x00, 0x00, 0x00, 0x00, 0x00, 0x00, 0x00, 0x80, 0x00, 0x04, 0x18, 0x00,
   0x00, 0x00, 0x00, 0x00, 0x00, 0x00, 0x00, 0x00, 0x00, 0x00, 0x00, 0x00,
   0x00, 0x00, 0x00, 0x00, 0x00, 0x00, 0x00, 0x00, 0x80, 0x95, 0x96, 0x18,
   0x00, 0x00, 0x00, 0x00, 0x00, 0x00, 0x00, 0x00, 0x00, 0x00, 0x00, 0x00,
   0x00, 0x00, 0x00, 0x00, 0x00, 0x00, 0x00, 0x00, 0x00, 0x80, 0xff, 0xff,
   0x3f, 0x00, 0x00, 0x00, 0x00, 0x00, 0x00, 0x00, 0x00, 0x00, 0x00, 0x00,
   0x00, 0x00, 0x00, 0x00, 0x00, 0x00, 0x00, 0x00, 0x00, 0x00, 0x80, 0xff,
   0xff, 0x1f, 0x00, 0x00, 0x00, 0x00, 0x00, 0x00, 0x00, 0x00, 0x00, 0x00,
   0x00, 0x00, 0x00, 0x00, 0x00, 0x00, 0x00, 0x00, 0x00, 0x00, 0x00, 0x80,
   0x77, 0xef, 0x1b, 0x00, 0x00, 0x00, 0x00, 0x00, 0x00, 0x00, 0x00, 0x00,
   0x00, 0x00, 0x00, 0x00, 0x00, 0x00, 0x00, 0x00, 0x00, 0x00, 0x00, 0x00,
   0x80, 0xef, 0x5f, 0x1f, 0x00, 0x00, 0x00, 0x00, 0x00, 0x00, 0x00, 0x00,
   0x00, 0x00, 0x00, 0x00, 0x00, 0x00, 0x00, 0x00, 0x00, 0x00, 0x00, 0x00,
   0x00, 0x80, 0xff, 0xff, 0x1f, 0x00, 0x00, 0x00, 0x00, 0x00, 0x00, 0x00,
   0x00, 0x00, 0x00, 0x00, 0x00, 0x00, 0x00, 0x00, 0x00, 0x00, 0x00, 0x00,
   0x00, 0x00, 0x00, 0x7d, 0xff, 0x1f, 0x00, 0x00, 0x00, 0x00, 0x00, 0x00,
   0x00, 0x00, 0x00, 0x00, 0x00, 0x00, 0x00, 0x00, 0x00, 0x00, 0x00, 0x00,
   0x00, 0x00, 0x00, 0x00, 0x00, 0x00, 0x00, 0x00, 0x00, 0x00, 0x00, 0x00,
   0x00, 0x00, 0x00, 0x00, 0x00, 0x00, 0x00, 0x00, 0x00, 0x00, 0x00, 0x00,
   0x00, 0x00, 0x00, 0x00, 0x00, 0x00, 0x00, 0x00, 0x00, 0x00, 0x00, 0x00,
   0x00, 0x00, 0x00, 0x00, 0x00, 0x00, 0x00, 0x00, 0x00, 0x00, 0x00, 0x00,
   0x00, 0x00, 0x00, 0x00, 0x00, 0x00, 0x00, 0x00, 0x00, 0x00, 0x00, 0x00,
   0x00, 0x00, 0x00, 0x00, 0x00, 0x00, 0x00, 0x00, 0x00, 0x00, 0x00, 0x00,
   0x00, 0x00, 0x00, 0x00, 0x00, 0x00, 0x00, 0x00, 0x00, 0x00, 0x00, 0x00,
   0x00, 0x00, 0x00, 0x00, 0x00, 0x00, 0x00, 0x00, 0x00, 0x00, 0x00, 0x00,
   0x00, 0x00, 0x00, 0x00, 0x00, 0x00, 0x00, 0x00, 0x00, 0x00, 0x00, 0x00,
   0x00, 0x00, 0x00, 0x00, 0x00, 0x00, 0x00, 0x00, 0x00, 0x00, 0x00, 0x00,
   0x00, 0x00, 0x00, 0x00, 0x00, 0x00, 0x00, 0x00, 0x00, 0x00, 0x00, 0x00,
   0x00, 0x00, 0x00, 0x00, 0x00, 0x00, 0x00, 0x00, 0x00, 0x00, 0x00, 0x00,
   0x00, 0x00, 0x00, 0x00, 0x00, 0x00, 0x00, 0x00, 0x00, 0x00, 0x00, 0x00,
   0x00, 0x00, 0x00, 0x00, 0x00, 0x00, 0x00, 0x00, 0x00, 0x00, 0x00, 0x00,
   0x00, 0x00, 0x00, 0x00, 0x00, 0x00, 0x00, 0x00, 0x00, 0x00, 0x00, 0x00,
   0x00, 0x00, 0x00, 0x00, 0x00, 0x00, 0x00, 0x00, 0x00, 0x00, 0x00, 0x00,
   0x00, 0x00, 0x00, 0x00, 0x00, 0x00, 0x00, 0x00, 0x00, 0x00, 0x00, 0x00,
   0x00, 0x00, 0x00, 0x00, 0x00, 0x00, 0x00, 0x00, 0x00, 0x00, 0x00, 0x00,
   0x00, 0x00, 0x00, 0x00, 0x00, 0x00, 0x00, 0x00, 0x00, 0x00, 0x00, 0x00,
   0x00, 0x00, 0x00, 0x00, 0x00, 0x00, 0x00, 0x00, 0x00, 0x00, 0x00, 0x00,
   0x00, 0x00, 0x00, 0x00, 0x00, 0x00, 0x00, 0x00, 0x00, 0x00, 0x00, 0x00,
   0x00, 0x00, 0x00, 0x00, 0x00, 0x00, 0x00, 0x00, 0x00, 0x00, 0x00, 0x00,
   0x00, 0x00, 0x00, 0x00, 0x00, 0x00, 0x00, 0x00, 0x00, 0x00, 0x00, 0x00,
   0x00, 0x00, 0x00, 0x00, 0x00, 0x00, 0x00, 0x00, 0x00, 0x00, 0x00, 0x00,
   0x00, 0x00, 0x00, 0x00, 0x00, 0x00, 0x00, 0x00, 0x00, 0x00, 0x00, 0x00,
   0x00, 0x00, 0x00, 0x00, 0x00, 0x00, 0x00, 0x00, 0x00, 0x00, 0x00, 0x00,
   0x00, 0x00, 0x00, 0x00, 0x00, 0x00, 0x00, 0x00, 0x00, 0x00, 0x00, 0x00,
   0x00, 0x00, 0x00, 0x00, 0x00, 0x00, 0x00, 0x00, 0x00, 0x00, 0x00, 0x00,
   0x00, 0x00, 0x00, 0x00, 0x00, 0x00, 0x00, 0x00, 0x00, 0x00, 0x00, 0x00,
   0x00, 0x00, 0x00, 0x00, 0x00, 0x00, 0x00, 0x00, 0x00, 0x00, 0x00, 0x00,
   0x00, 0x00, 0x00, 0x00, 0x00, 0x00, 0x00, 0x00, 0x00, 0x00, 0x00, 0x00,
   0x00, 0x00, 0x00, 0x00, 0x00, 0x00, 0x00, 0x00, 0x00, 0x00, 0x00, 0x00,
   0x00, 0x00, 0x00, 0x00, 0x00, 0x00, 0x00, 0x00, 0x00, 0x00, 0x00, 0x00,
   0x00, 0x00, 0x00, 0x00, 0x00, 0x00, 0x00, 0x00, 0x00, 0x00, 0x00, 0x00,
   0x00, 0x00, 0x00, 0x00, 0x00, 0x00, 0x00, 0x00, 0x00, 0x00, 0x00, 0x00,
   0x00, 0x00, 0x00, 0x00, 0x00, 0x00, 0x00, 0x00, 0x00, 0x00, 0x00, 0x00,
   0x00, 0x00, 0x00, 0x00, 0x00, 0x00, 0x00, 0x00, 0x00, 0x00, 0x00, 0x00,
   0x00, 0x00, 0x00, 0x00, 0x00, 0x00, 0x00, 0x00, 0x00, 0x00, 0x00, 0x00,
   0x00, 0x00, 0x00, 0x00, 0x00, 0x00, 0x00, 0x00, 0x00, 0x00, 0x00, 0x00,
   0x00, 0x00, 0x00, 0x00, 0x00, 0x00, 0x00, 0x00, 0x00, 0x00, 0x00, 0x00,
   0x00, 0x00, 0x00, 0x00, 0x00, 0x00, 0x00, 0x00, 0x00, 0x00, 0x00, 0x00,
   0x00, 0x00, 0x00, 0x00, 0x00, 0x00, 0x00, 0x00, 0x00, 0x00, 0x00, 0x00,
   0x00, 0x00, 0x00, 0x00, 0x00, 0x00, 0x00, 0x00, 0x00, 0x00, 0x00, 0x00,
   0x00 };
