#define maid_welcome_width 199
#define maid_welcome_height 253
static char maid_welcome_bits[] = {
   0x00, 0x00, 0x00, 0x00, 0x00, 0x00, 0x00, 0x00, 0x00, 0x00, 0x00, 0x00,
   0x00, 0x00, 0x00, 0x00, 0x00, 0x00, 0x00, 0x00, 0x00, 0x00, 0x00, 0x00,
   0x00, 0x00, 0x00, 0x00, 0x00, 0x00, 0x00, 0x00, 0x00, 0x00, 0x00, 0x00,
   0x00, 0x00, 0x00, 0x00, 0x00, 0x00, 0x00, 0x00, 0x00, 0x00, 0x00, 0x00,
   0x00, 0x00, 0x00, 0x00, 0x00, 0x00, 0x00, 0x00, 0x00, 0x00, 0x00, 0x00,
   0x00, 0x00, 0x00, 0x00, 0x00, 0x00, 0x00, 0x00, 0x00, 0x00, 0x00, 0x00,
   0x00, 0x00, 0x00, 0x00, 0x00, 0x00, 0x00, 0x00, 0x00, 0x00, 0x00, 0x00,
   0x00, 0x00, 0x00, 0x00, 0x00, 0x00, 0x00, 0x00, 0x00, 0x00, 0x00, 0x00,
   0x00, 0x00, 0x00, 0x00, 0x00, 0x00, 0x00, 0x00, 0x00, 0x00, 0x00, 0x00,
   0x00, 0x00, 0x00, 0x00, 0x00, 0x00, 0x00, 0x00, 0x00, 0x00, 0x00, 0x00,
   0x00, 0x00, 0x00, 0x00, 0x00, 0x00, 0x00, 0x00, 0x00, 0x00, 0x00, 0x00,
   0x00, 0x00, 0x00, 0x00, 0x00, 0x00, 0x00, 0x00, 0x00, 0x00, 0x00, 0x00,
   0x00, 0x00, 0x00, 0x00, 0x00, 0x00, 0x00, 0x00, 0x00, 0x00, 0x00, 0x00,
   0x00, 0x00, 0x00, 0x00, 0x00, 0x00, 0x00, 0x00, 0x00, 0x00, 0x00, 0x00,
   0x00, 0x00, 0x00, 0x00, 0x00, 0x00, 0x00, 0x00, 0x00, 0x00, 0x00, 0x00,
   0x00, 0x00, 0x00, 0x00, 0x00, 0x00, 0x00, 0x00, 0x00, 0x00, 0x00, 0x00,
   0x00, 0x00, 0x00, 0x00, 0x00, 0x00, 0x00, 0x00, 0x00, 0x00, 0x00, 0x00,
   0x00, 0x00, 0x00, 0x00, 0x00, 0x00, 0x00, 0x00, 0x00, 0x00, 0x00, 0x00,
   0x00, 0x00, 0x00, 0x00, 0x00, 0x00, 0x00, 0x00, 0x00, 0x00, 0x00, 0x00,
   0x00, 0x00, 0x00, 0x00, 0x00, 0x00, 0x00, 0x00, 0x00, 0x00, 0x00, 0x02,
   0x00, 0x00, 0x00, 0x00, 0x00, 0x00, 0x00, 0x00, 0x00, 0x00, 0x00, 0x00,
   0x00, 0x00, 0x00, 0x00, 0x00, 0x00, 0x00, 0x00, 0x00, 0x00, 0x00, 0x80,
   0x0f, 0x00, 0x00, 0x00, 0x00, 0x00, 0x00, 0x00, 0x00, 0x00, 0x00, 0x00,
   0x00, 0x00, 0x00, 0x00, 0x00, 0x00, 0x00, 0x00, 0x00, 0x00, 0x00, 0x00,
   0xc0, 0x19, 0x00, 0x00, 0x00, 0x00, 0x00, 0x00, 0x00, 0x00, 0x00, 0x00,
   0x00, 0x00, 0x00, 0x00, 0x00, 0x00, 0x00, 0x00, 0x00, 0x00, 0x00, 0x00,
   0x00, 0x70, 0x30, 0x00, 0x00, 0x00, 0x00, 0x00, 0x00, 0x00, 0x00, 0x00,
   0x00, 0x00, 0x00, 0x00, 0x00, 0x00, 0x00, 0x00, 0x00, 0x00, 0x00, 0x00,
   0x00, 0x00, 0x18, 0x60, 0x00, 0x00, 0x00, 0x00, 0x00, 0x00, 0x00, 0x00,
   0x00, 0x00, 0x00, 0x00, 0x00, 0x00, 0x00, 0x00, 0x00, 0x00, 0x00, 0x00,
   0x00, 0x00, 0x00, 0x0c, 0xc0, 0x00, 0x00, 0x00, 0x00, 0x00, 0x00, 0x00,
   0x00, 0x00, 0x00, 0x00, 0x00, 0x00, 0x00, 0x00, 0x00, 0x00, 0x00, 0x00,
   0x00, 0x00, 0x00, 0x00, 0x07, 0x80, 0x01, 0x00, 0x00, 0x00, 0x00, 0x00,
   0x00, 0x00, 0x00, 0x00, 0x00, 0x00, 0x00, 0x00, 0x00, 0x00, 0x00, 0x00,
   0x00, 0x00, 0x00, 0x80, 0x80, 0x01, 0x00, 0x03, 0x00, 0x00, 0x00, 0x00,
   0x00, 0x00, 0x00, 0x00, 0x00, 0x00, 0x00, 0x00, 0x00, 0x00, 0x00, 0x00,
   0x00, 0x00, 0x00, 0x00, 0x80, 0x83, 0x01, 0x00, 0x06, 0x00, 0x00, 0x00,
   0x00, 0x00, 0x00, 0x00, 0x00, 0x00, 0x00, 0x00, 0x00, 0x00, 0x00, 0x00,
   0x00, 0x00, 0x00, 0x58, 0x00, 0x60, 0x7e, 0x00, 0x00, 0x04, 0x00, 0x00,
   0x00, 0x00, 0x00, 0x00, 0x00, 0x00, 0x00, 0x00, 0x00, 0x00, 0x00, 0x00,
   0x00, 0x00, 0x00, 0x00, 0xd4, 0x17, 0x60, 0x30, 0x00, 0x00, 0x18, 0x0e,
   0x00, 0x00, 0x00, 0x00, 0x00, 0x00, 0x00, 0x00, 0x00, 0x00, 0x00, 0x00,
   0x00, 0x00, 0x00, 0x00, 0x00, 0x04, 0x74, 0x11, 0x10, 0x00, 0x00, 0xf0,
   0x0d, 0x00, 0x00, 0x00, 0x00, 0x00, 0x00, 0x00, 0x00, 0x00, 0x00, 0x00,
   0x00, 0x00, 0x00, 0x00, 0x00, 0x00, 0x04, 0x40, 0x1f, 0x00, 0x00, 0x00,
   0x40, 0x18, 0x00, 0x00, 0x00, 0x00, 0x00, 0x00, 0x00, 0x00, 0x00, 0x00,
   0x00, 0x00, 0x00, 0x00, 0x00, 0x00, 0x00, 0x02, 0x00, 0x08, 0x00, 0x00,
   0x1e, 0x00, 0x10, 0x00, 0x00, 0x00, 0x00, 0x00, 0x00, 0x00, 0x00, 0x00,
   0x00, 0x00, 0x00, 0x00, 0x00, 0x00, 0x00, 0x00, 0x02, 0x00, 0x00, 0x80,
   0x56, 0x3f, 0x00, 0xb0, 0xea, 0x7f, 0x00, 0x00, 0x00, 0x00, 0x00, 0x00,
   0x00, 0x00, 0x00, 0x00, 0x00, 0x00, 0x00, 0x00, 0x00, 0x03, 0x00, 0x00,
   0xfe, 0xff, 0xff, 0x01, 0xe0, 0x5f, 0xd5, 0x00, 0x00, 0x00, 0x00, 0x00,
   0x00, 0x00, 0x00, 0x00, 0x00, 0x00, 0x00, 0x00, 0x00, 0x00, 0x02, 0x00,
   0xe0, 0xff, 0xfe, 0xe9, 0x2f, 0x40, 0x00, 0x80, 0x00, 0x00, 0x00, 0x00,
   0x00, 0x00, 0x00, 0x00, 0x00, 0x00, 0x00, 0x00, 0x00, 0x00, 0x00, 0x01,
   0x00, 0xfe, 0xd5, 0xbf, 0xd6, 0xff, 0x00, 0x00, 0xc0, 0x00, 0x00, 0x00,
   0x00, 0x00, 0x00, 0x00, 0x00, 0x00, 0x00, 0x00, 0x00, 0x00, 0x00, 0x00,
   0x01, 0x40, 0xbf, 0xd5, 0xbf, 0xaa, 0xff, 0x07, 0x00, 0x80, 0x00, 0x00,
   0x00, 0x00, 0x00, 0x00, 0x00, 0x00, 0x00, 0x00, 0x00, 0x00, 0x00, 0x00,
   0x80, 0x01, 0xf0, 0xff, 0xff, 0x53, 0x55, 0xaf, 0x3f, 0x00, 0x80, 0x00,
   0x00, 0x00, 0x00, 0x00, 0x00, 0x00, 0x00, 0x00, 0x00, 0x00, 0x00, 0x00,
   0x00, 0x80, 0x00, 0xf8, 0xff, 0xff, 0xaa, 0x5a, 0xfd, 0x7e, 0x00, 0x80,
   0x00, 0x00, 0x00, 0x00, 0x00, 0x00, 0x00, 0x00, 0x00, 0x00, 0x00, 0x00,
   0x00, 0x00, 0x80, 0x00, 0xde, 0x57, 0xbf, 0xb6, 0xaa, 0x7a, 0xf5, 0x01,
   0x80, 0x00, 0x00, 0x00, 0x00, 0x00, 0x00, 0x00, 0x00, 0x00, 0x00, 0x00,
   0x00, 0x00, 0x00, 0x80, 0x80, 0x9f, 0xab, 0x52, 0x55, 0x55, 0xf5, 0xd5,
   0x07, 0x80, 0x01, 0x00, 0x00, 0x00, 0x00, 0x00, 0x00, 0x00, 0x00, 0x00,
   0x00, 0x00, 0x00, 0x00, 0xc0, 0xc0, 0xf3, 0xab, 0xaa, 0xaa, 0xd5, 0xea,
   0x57, 0x0f, 0x00, 0x01, 0x00, 0x00, 0x00, 0x00, 0x00, 0x00, 0x00, 0x00,
   0x00, 0x00, 0x00, 0x00, 0x00, 0xd0, 0xe0, 0x8b, 0x55, 0xab, 0xaa, 0xaa,
   0xd5, 0x57, 0x3d, 0x00, 0x01, 0x00, 0x00, 0x00, 0x00, 0x00, 0x00, 0x00,
   0x00, 0x00, 0x00, 0x00, 0x00, 0x80, 0x7f, 0x78, 0xea, 0xab, 0x6a, 0x55,
   0xad, 0xaa, 0x6f, 0x7d, 0x00, 0x01, 0x00, 0x00, 0x00, 0x00, 0x00, 0x00,
   0x00, 0x00, 0x00, 0x00, 0x00, 0x00, 0x80, 0x05, 0x78, 0xd5, 0x6b, 0x55,
   0xd7, 0xaa, 0x5a, 0xaf, 0xea, 0x00, 0x01, 0x00, 0x00, 0x00, 0x00, 0x00,
   0x00, 0x00, 0x00, 0x00, 0x00, 0x00, 0x00, 0x80, 0x01, 0x5e, 0xd5, 0x55,
   0xab, 0x54, 0x55, 0x55, 0xbd, 0xea, 0x03, 0x01, 0x00, 0x00, 0x00, 0x00,
   0x00, 0x00, 0x00, 0x00, 0x00, 0x00, 0x00, 0x00, 0x80, 0x01, 0x5e, 0xd5,
   0xab, 0x56, 0x5b, 0xd5, 0x6a, 0xff, 0xaa, 0x07, 0x01, 0x00, 0x00, 0x00,
   0x00, 0x00, 0x00, 0x00, 0x00, 0x00, 0x00, 0x00, 0x00, 0x80, 0x00, 0xa7,
   0xaa, 0x55, 0xb5, 0xaa, 0xad, 0x56, 0x79, 0x55, 0x07, 0x01, 0x00, 0x00,
   0x00, 0x00, 0x00, 0x00, 0x00, 0x00, 0x00, 0x00, 0x00, 0x00, 0x80, 0x81,
   0xb7, 0xea, 0x57, 0x55, 0x55, 0x55, 0x55, 0xf5, 0xaa, 0x1e, 0x0e, 0x00,
   0x00, 0x00, 0x00, 0x00, 0x00, 0x00, 0x00, 0x00, 0x00, 0x00, 0x00, 0x80,
   0xc1, 0x55, 0xd5, 0xb5, 0xaa, 0xaa, 0xaa, 0x6a, 0xd5, 0xab, 0x1e, 0x78,
   0x00, 0x00, 0x00, 0x00, 0x00, 0x00, 0x00, 0x00, 0x00, 0x00, 0x00, 0x00,
   0x80, 0xc1, 0x55, 0xd5, 0xab, 0xb5, 0xad, 0x6d, 0xad, 0xf5, 0x57, 0x3d,
   0xc0, 0x00, 0x00, 0x00, 0x00, 0x00, 0x00, 0x00, 0x00, 0x00, 0x00, 0x00,
   0x00, 0xe0, 0x60, 0x55, 0xd5, 0xab, 0xaa, 0xaa, 0xaa, 0x55, 0xd5, 0xab,
   0x7a, 0x80, 0x00, 0x00, 0x00, 0x00, 0x00, 0x00, 0x00, 0x00, 0x00, 0x00,
   0x00, 0x00, 0x68, 0xf0, 0x6a, 0xd5, 0x55, 0xab, 0x5a, 0x55, 0xb5, 0xad,
   0x5f, 0xf5, 0x80, 0x00, 0x00, 0x00, 0x00, 0x00, 0x00, 0x00, 0x00, 0x00,
   0x00, 0x00, 0x00, 0x1c, 0x30, 0x55, 0xeb, 0x5b, 0xad, 0xaa, 0xad, 0xaa,
   0xea, 0xa7, 0xea, 0x80, 0x00, 0x00, 0x00, 0x00, 0x00, 0x00, 0x00, 0x00,
   0x00, 0x00, 0x00, 0x00, 0x04, 0x78, 0x55, 0xd5, 0x57, 0xb5, 0x55, 0xb5,
   0xed, 0x56, 0xaf, 0xda, 0x81, 0x00, 0x00, 0x00, 0x00, 0x00, 0x00, 0x00,
   0x00, 0x00, 0x00, 0x00, 0x00, 0x03, 0x58, 0x55, 0xd5, 0x59, 0x55, 0xad,
   0xaa, 0xaa, 0xad, 0xbf, 0xaa, 0x41, 0x00, 0x00, 0x00, 0x00, 0x00, 0x00,
   0x00, 0x00, 0x00, 0x00, 0x00, 0x80, 0x01, 0x5c, 0x55, 0xd5, 0xb7, 0xad,
   0xda, 0xaa, 0xaa, 0x6d, 0xbf, 0xaa, 0x43, 0x00, 0x00, 0x00, 0x00, 0x00,
   0x00, 0x00, 0x00, 0x00, 0x00, 0x00, 0x60, 0x00, 0x56, 0xd5, 0xaa, 0x4b,
   0x52, 0x25, 0x55, 0x15, 0xab, 0x7e, 0x55, 0xc3, 0x00, 0x00, 0x00, 0x00,
   0x00, 0x00, 0x00, 0x00, 0x00, 0x00, 0x00, 0x50, 0x00, 0x56, 0x55, 0xd5,
   0x4b, 0x04, 0x00, 0x00, 0x20, 0x82, 0x74, 0x6b, 0x87, 0x01, 0x00, 0x00,
   0x00, 0x00, 0x00, 0x00, 0x00, 0x00, 0x00, 0x00, 0x10, 0x00, 0x4b, 0x82,
   0xc0, 0x03, 0x51, 0x55, 0x92, 0x84, 0x08, 0xb0, 0x92, 0x06, 0x06, 0x00,
   0x00, 0x00, 0x00, 0x00, 0x00, 0x00, 0x00, 0x00, 0x00, 0x18, 0x00, 0x03,
   0x88, 0xca, 0x27, 0x00, 0x00, 0x00, 0x10, 0x90, 0x62, 0x93, 0x0e, 0x08,
   0x00, 0x00, 0x00, 0x00, 0x00, 0x00, 0x00, 0x00, 0x00, 0x00, 0x08, 0x80,
   0x91, 0x40, 0x71, 0x83, 0x24, 0x51, 0xa5, 0xa2, 0x22, 0xe8, 0x42, 0x0e,
   0x08, 0x00, 0x00, 0x00, 0x00, 0x00, 0x00, 0x00, 0x00, 0x00, 0x00, 0x10,
   0x80, 0x01, 0x89, 0x71, 0x17, 0x20, 0xe2, 0x48, 0xaa, 0x76, 0xeb, 0x17,
   0x18, 0x10, 0x00, 0x00, 0x00, 0x00, 0x00, 0x00, 0x00, 0x00, 0x00, 0x00,
   0x10, 0xc0, 0x08, 0xe0, 0x38, 0x47, 0x55, 0xfd, 0xab, 0x55, 0xfd, 0xfa,
   0xa7, 0x1e, 0x60, 0x00, 0x00, 0x00, 0x00, 0x00, 0x00, 0x00, 0x00, 0x00,
   0x00, 0x30, 0xe0, 0x81, 0xc4, 0x39, 0x5e, 0xd5, 0xfa, 0x5b, 0x5b, 0xf5,
   0xff, 0x6f, 0x19, 0x80, 0x00, 0x00, 0x00, 0x00, 0x00, 0x00, 0x00, 0x00,
   0x00, 0x00, 0x20, 0x60, 0x10, 0x60, 0x1e, 0xae, 0xad, 0xfa, 0xaf, 0x6a,
   0xf5, 0xfa, 0x5f, 0x3b, 0x40, 0x00, 0x00, 0x00, 0x00, 0x00, 0x00, 0x00,
   0x00, 0x00, 0x00, 0x20, 0x60, 0x92, 0xe4, 0x1e, 0x5c, 0x55, 0x7d, 0x5f,
   0x55, 0xed, 0xf5, 0xaf, 0x3a, 0x80, 0x01, 0x00, 0x00, 0x00, 0x00, 0x00,
   0x00, 0x00, 0x00, 0x00, 0x60, 0x30, 0x40, 0xea, 0x07, 0xdc, 0xda, 0x7a,
   0x6f, 0xab, 0xd5, 0xff, 0x6f, 0x35, 0x00, 0x02, 0x00, 0x00, 0x00, 0x00,
   0x00, 0x00, 0x00, 0x00, 0x00, 0x40, 0x70, 0xd5, 0xfa, 0x0f, 0xbc, 0x55,
   0x7b, 0xac, 0x5a, 0xf5, 0xf7, 0xaf, 0x7d, 0x00, 0x02, 0x00, 0x00, 0x00,
   0x00, 0x00, 0x00, 0x00, 0x00, 0x00, 0xc0, 0xb0, 0xaa, 0xf6, 0x01, 0x5c,
   0x55, 0xfd, 0x7e, 0x55, 0xab, 0xff, 0xaf, 0x72, 0x00, 0x01, 0x00, 0x00,
   0x00, 0x00, 0x00, 0x00, 0x00, 0x00, 0x00, 0xe0, 0xb0, 0xaa, 0xfa, 0x03,
   0x5c, 0x55, 0x7b, 0xbc, 0x55, 0xed, 0xf7, 0xaf, 0x6a, 0x00, 0x01, 0x00,
   0x00, 0x00, 0x00, 0x00, 0x00, 0x00, 0x00, 0x00, 0xe0, 0xb9, 0xaa, 0xfa,
   0xa0, 0x7f, 0x5b, 0xfd, 0xf8, 0x5a, 0x55, 0xff, 0x5f, 0x75, 0x80, 0x00,
   0x00, 0x00, 0x00, 0x00, 0x00, 0x00, 0x00, 0x00, 0x00, 0xa0, 0xb9, 0xaa,
   0xfa, 0xd1, 0xb8, 0xaa, 0xfa, 0xf2, 0xd6, 0xd6, 0xff, 0xaf, 0xe5, 0x80,
   0x00, 0x00, 0x00, 0x00, 0x00, 0x00, 0x00, 0x00, 0x00, 0x00, 0x60, 0xad,
   0xb6, 0x7a, 0x2a, 0x78, 0xb5, 0x7e, 0xe0, 0x6d, 0xad, 0xff, 0xbf, 0xea,
   0x40, 0x00, 0x00, 0x00, 0x00, 0x00, 0x00, 0x00, 0x00, 0x00, 0x00, 0xe0,
   0xad, 0xaa, 0x7e, 0x16, 0x70, 0x55, 0x79, 0xc5, 0xd5, 0x5a, 0xff, 0xaf,
   0xd6, 0x40, 0x00, 0x00, 0x00, 0x00, 0x00, 0x00, 0x00, 0x00, 0x00, 0x00,
   0xb0, 0x5f, 0xd5, 0x7a, 0x01, 0xf0, 0xaa, 0xfe, 0xa0, 0x57, 0x55, 0xff,
   0x5f, 0xd5, 0x20, 0x00, 0x00, 0x00, 0x00, 0x00, 0x00, 0x00, 0x00, 0x00,
   0x00, 0x70, 0xa9, 0xaa, 0xfe, 0x02, 0xe0, 0xb6, 0xfa, 0x00, 0xd7, 0xda,
   0xfe, 0x5f, 0xf5, 0x20, 0x00, 0x00, 0x00, 0x00, 0x00, 0x00, 0x00, 0x00,
   0x00, 0x00, 0xf0, 0x5e, 0x55, 0x3d, 0x00, 0x60, 0xd5, 0x7a, 0x42, 0xaf,
   0xaa, 0xfa, 0xbf, 0xd5, 0x11, 0x00, 0x00, 0x00, 0x00, 0x00, 0x00, 0x00,
   0x00, 0x00, 0x00, 0xf0, 0xaf, 0xd5, 0x3e, 0x00, 0xc0, 0xaa, 0xfa, 0x00,
   0xae, 0xb5, 0xfe, 0xaf, 0xaa, 0x19, 0x00, 0x00, 0x00, 0x00, 0x00, 0x00,
   0x00, 0x00, 0x00, 0x00, 0xb0, 0x77, 0xad, 0x1e, 0x00, 0xc0, 0x55, 0x7d,
   0x00, 0xbe, 0xd6, 0xfa, 0x5f, 0xeb, 0x38, 0x00, 0x00, 0x00, 0x00, 0x00,
   0x00, 0x00, 0x00, 0x00, 0x00, 0x70, 0xd5, 0xaa, 0x0e, 0x00, 0xc0, 0xdb,
   0x7a, 0x01, 0xbc, 0xaa, 0xfd, 0x5f, 0xd5, 0x1b, 0x00, 0x00, 0x00, 0x00,
   0x00, 0x00, 0x00, 0x00, 0x00, 0x00, 0xf0, 0x7a, 0x55, 0x1d, 0x00, 0x80,
   0x55, 0xf5, 0x00, 0xf8, 0x5a, 0xf5, 0x5f, 0xd5, 0x1c, 0x00, 0x00, 0x00,
   0x00, 0x00, 0x00, 0x00, 0x00, 0x00, 0x00, 0xd8, 0x75, 0x55, 0x0f, 0x00,
   0x80, 0x57, 0x7d, 0x00, 0xf0, 0xaa, 0xfe, 0x6f, 0xab, 0x39, 0x00, 0x00,
   0x00, 0x00, 0x00, 0x00, 0x00, 0x00, 0x00, 0x00, 0x78, 0xf5, 0xb6, 0x0e,
   0x00, 0x00, 0x5b, 0x7b, 0x00, 0xf0, 0xdb, 0xfa, 0x5f, 0xd5, 0x15, 0x00,
   0x00, 0x00, 0x00, 0x00, 0x00, 0x00, 0x00, 0x00, 0x00, 0xf0, 0xdd, 0xaa,
   0x0e, 0x50, 0x41, 0xab, 0xfa, 0x00, 0xc0, 0xab, 0xfa, 0x5f, 0x95, 0x3d,
   0x00, 0x00, 0x00, 0x00, 0x00, 0x00, 0x00, 0x00, 0x00, 0x00, 0x78, 0xfd,
   0xaa, 0x1f, 0xfe, 0x87, 0xb7, 0x76, 0x00, 0xe0, 0x5b, 0xf5, 0x6f, 0xad,
   0x3f, 0x00, 0x00, 0x00, 0x00, 0x00, 0x00, 0x00, 0x00, 0x00, 0x00, 0xf0,
   0xfb, 0x5a, 0x0f, 0xfe, 0x3f, 0x56, 0x7d, 0x00, 0x80, 0x77, 0xfb, 0x5f,
   0x55, 0x3f, 0x00, 0x00, 0x00, 0x00, 0x00, 0x00, 0x00, 0x00, 0x00, 0x00,
   0xf8, 0xfe, 0x55, 0xcf, 0xff, 0xbf, 0x5e, 0x75, 0x00, 0x2a, 0xaf, 0xf5,
   0xaf, 0x6a, 0x15, 0x00, 0x00, 0x00, 0x00, 0x00, 0x00, 0x00, 0x00, 0x00,
   0x00, 0xf8, 0xfc, 0xd5, 0xcf, 0xff, 0xff, 0x5c, 0xfd, 0x00, 0xa4, 0xdf,
   0xf6, 0x6f, 0xdb, 0x3a, 0x00, 0x00, 0x00, 0x00, 0x00, 0x00, 0x00, 0x00,
   0x00, 0x00, 0xf8, 0xff, 0xab, 0xf7, 0xff, 0xff, 0xbb, 0x7a, 0x80, 0xd2,
   0xbf, 0xed, 0x5f, 0x75, 0x35, 0x00, 0x00, 0x00, 0x00, 0x00, 0x00, 0x00,
   0x00, 0x00, 0x00, 0xf8, 0x7e, 0xeb, 0xf7, 0xf3, 0xff, 0x7b, 0x7b, 0x00,
   0xf8, 0x7f, 0xfb, 0xaf, 0x6a, 0x1d, 0x00, 0x00, 0x00, 0x00, 0x00, 0x00,
   0x00, 0x00, 0x00, 0x00, 0xf8, 0xff, 0xad, 0xff, 0xf1, 0xff, 0xb7, 0x7a,
   0x00, 0xfe, 0x7f, 0xed, 0x6f, 0xf5, 0x1a, 0x00, 0x00, 0x00, 0x00, 0x00,
   0x00, 0x00, 0x00, 0x00, 0x00, 0xf8, 0xff, 0xf5, 0xff, 0xf2, 0xff, 0x7f,
   0x75, 0x00, 0xfe, 0xff, 0xfd, 0xaf, 0xf5, 0x1d, 0x00, 0x00, 0x00, 0x00,
   0x00, 0x00, 0x00, 0x00, 0x00, 0x00, 0xf0, 0xff, 0xeb, 0x7f, 0x00, 0xff,
   0xf7, 0x3a, 0x80, 0xff, 0xff, 0xd6, 0x57, 0xfd, 0x1e, 0x00, 0x00, 0x00,
   0x00, 0x00, 0x00, 0x00, 0x00, 0x00, 0x00, 0xf8, 0xff, 0xeb, 0xff, 0x00,
   0xff, 0xe3, 0x7a, 0x00, 0xff, 0xff, 0xf5, 0x57, 0xf5, 0x1c, 0x00, 0x00,
   0x00, 0x00, 0x00, 0x00, 0x00, 0x00, 0x00, 0x00, 0xf0, 0xff, 0xf7, 0x3f,
   0xd0, 0xff, 0xe1, 0x7a, 0x80, 0xfe, 0xff, 0xdb, 0xdf, 0xfa, 0x1d, 0x00,
   0x00, 0x00, 0x00, 0x00, 0x00, 0x00, 0x00, 0x00, 0x00, 0xf0, 0xff, 0xf7,
   0x3f, 0xf0, 0xff, 0xc3, 0x75, 0x00, 0xc0, 0xff, 0xf7, 0xaf, 0xfe, 0x1f,
   0x00, 0x00, 0x00, 0x00, 0x00, 0x00, 0x00, 0x00, 0x00, 0x00, 0xf0, 0xff,
   0xff, 0x3f, 0xf8, 0xff, 0xc1, 0x75, 0x00, 0x80, 0xff, 0xab, 0x57, 0xfd,
   0x1e, 0x00, 0x00, 0x00, 0x00, 0x00, 0x00, 0x00, 0x00, 0x00, 0x00, 0xf0,
   0xff, 0xf5, 0x3f, 0xf8, 0xff, 0x81, 0x7b, 0x00, 0xe8, 0x7f, 0xf7, 0xdf,
   0xfe, 0x0e, 0x00, 0x00, 0x00, 0x00, 0x00, 0x00, 0x00, 0x00, 0x00, 0x00,
   0xf0, 0xff, 0xff, 0x37, 0xf0, 0xff, 0x81, 0x77, 0x00, 0xfe, 0xff, 0xae,
   0x57, 0xff, 0x1f, 0x00, 0x00, 0x00, 0x00, 0x00, 0x00, 0x00, 0x00, 0x00,
   0x00, 0xf0, 0xff, 0xff, 0x27, 0xf8, 0xff, 0x01, 0x7b, 0x00, 0xfe, 0x7f,
   0xfe, 0xaf, 0x7e, 0x0f, 0x00, 0x00, 0x00, 0x00, 0x00, 0x00, 0x00, 0x00,
   0x00, 0x00, 0xf0, 0xff, 0xff, 0x0f, 0x70, 0xfb, 0x01, 0x36, 0x00, 0xfe,
   0x7f, 0xdc, 0x5f, 0xff, 0x0f, 0x00, 0x00, 0x00, 0x00, 0x00, 0x00, 0x00,
   0x00, 0x00, 0x00, 0xf0, 0xff, 0xff, 0x07, 0xf8, 0xf6, 0x00, 0x7e, 0x00,
   0xee, 0x7f, 0xf8, 0xb7, 0xff, 0x0f, 0x00, 0x00, 0x00, 0x00, 0x00, 0x00,
   0x00, 0x00, 0x00, 0x00, 0xf0, 0xff, 0xff, 0x07, 0xf0, 0xfb, 0x01, 0x3e,
   0x00, 0xfe, 0x7d, 0xf8, 0xaf, 0xff, 0x0f, 0x00, 0x00, 0x00, 0x00, 0x00,
   0x00, 0x00, 0x00, 0x00, 0x00, 0xf0, 0xff, 0xff, 0x0f, 0xf0, 0xf6, 0x00,
   0x7c, 0x00, 0x5e, 0x3f, 0xf8, 0xbf, 0xff, 0x07, 0x00, 0x00, 0x00, 0x00,
   0x00, 0x00, 0x00, 0x00, 0x00, 0x00, 0xe0, 0xff, 0xff, 0x07, 0xf0, 0x7b,
   0x00, 0x38, 0x00, 0xfc, 0x7d, 0xe0, 0xef, 0xff, 0x07, 0x00, 0x00, 0x00,
   0x00, 0x00, 0x00, 0x00, 0x00, 0x00, 0x00, 0xe0, 0xff, 0xff, 0x07, 0xe0,
   0xff, 0x00, 0x38, 0x00, 0x5c, 0x3f, 0xe0, 0xdf, 0xff, 0x07, 0x00, 0x00,
   0x00, 0x00, 0x00, 0x00, 0x00, 0x00, 0x00, 0x00, 0xe0, 0xff, 0xff, 0x7f,
   0xe1, 0x3f, 0x00, 0x30, 0x00, 0xfc, 0x3e, 0xe0, 0xdf, 0xff, 0x03, 0x00,
   0x00, 0x00, 0x00, 0x00, 0x00, 0x00, 0x00, 0x00, 0x00, 0xe0, 0xff, 0xff,
   0xff, 0x87, 0x1f, 0x00, 0x20, 0x00, 0xfc, 0x1f, 0xe0, 0xff, 0xff, 0x03,
   0x00, 0x00, 0x00, 0x00, 0x00, 0x00, 0x00, 0x00, 0x00, 0x00, 0xc0, 0xff,
   0xff, 0x57, 0x07, 0x00, 0x00, 0x00, 0x00, 0xf8, 0x1f, 0xc0, 0xff, 0xff,
   0x03, 0x00, 0x00, 0x00, 0x00, 0x00, 0x00, 0x00, 0x00, 0x00, 0x00, 0xe0,
   0xff, 0xff, 0x27, 0x0e, 0x01, 0x00, 0x00, 0x00, 0xe0, 0x0f, 0xe0, 0xff,
   0xff, 0x01, 0x00, 0x00, 0x00, 0x00, 0x00, 0x00, 0x00, 0x00, 0x00, 0x00,
   0xc0, 0xff, 0xff, 0xbf, 0x07, 0x00, 0x00, 0x00, 0x00, 0xa0, 0x83, 0xff,
   0xff, 0xff, 0x01, 0x00, 0x00, 0x00, 0x00, 0x00, 0x00, 0x00, 0x00, 0x00,
   0x00, 0xc0, 0xff, 0xff, 0xff, 0x05, 0x00, 0x00, 0x00, 0x00, 0x00, 0xc0,
   0xff, 0xff, 0xff, 0x01, 0x00, 0x00, 0x00, 0x00, 0x00, 0x00, 0x00, 0x00,
   0x00, 0x00, 0xc0, 0xff, 0xff, 0xaf, 0x00, 0x00, 0x00, 0x00, 0x00, 0x00,
   0x60, 0xf8, 0xff, 0xff, 0x00, 0x00, 0x00, 0x00, 0x00, 0x00, 0x00, 0x00,
   0x00, 0x00, 0x00, 0xc0, 0xff, 0xff, 0x07, 0x00, 0x00, 0x00, 0x00, 0x00,
   0x00, 0xc0, 0xe1, 0xff, 0xff, 0x00, 0x00, 0x00, 0x00, 0x00, 0x00, 0x00,
   0x00, 0x00, 0x00, 0x00, 0xc0, 0xff, 0xff, 0x0f, 0x00, 0x00, 0x00, 0x00,
   0x00, 0x00, 0xe0, 0xef, 0xff, 0xff, 0x00, 0x00, 0x00, 0x00, 0x00, 0x00,
   0x00, 0x00, 0x00, 0x00, 0x00, 0xc0, 0xff, 0xff, 0x07, 0x00, 0x00, 0x00,
   0x00, 0x00, 0x00, 0x00, 0xff, 0xff, 0x7f, 0x00, 0x00, 0x00, 0x00, 0x00,
   0x00, 0x00, 0x00, 0x00, 0x00, 0x00, 0x80, 0xff, 0xff, 0x0f, 0x00, 0x00,
   0x00, 0x00, 0x00, 0x00, 0x00, 0xfa, 0xff, 0x7f, 0x00, 0x00, 0x00, 0x00,
   0x00, 0x00, 0x00, 0x00, 0x00, 0x00, 0x00, 0x80, 0xff, 0xff, 0x0f, 0x00,
   0x00, 0x00, 0x00, 0x00, 0x00, 0x00, 0xf0, 0xff, 0x3f, 0x00, 0x00, 0x00,
   0x00, 0x00, 0x00, 0x00, 0x00, 0x00, 0x00, 0x00, 0x80, 0xff, 0xff, 0x2f,
   0x00, 0x00, 0x00, 0x00, 0x00, 0x00, 0x00, 0xf8, 0xff, 0x3f, 0x00, 0x00,
   0x00, 0x00, 0x00, 0x00, 0x00, 0x00, 0x00, 0x00, 0x00, 0x80, 0xff, 0xff,
   0x3f, 0x00, 0x00, 0x00, 0x00, 0x00, 0x00, 0x00, 0xf8, 0xff, 0x3f, 0x00,
   0x00, 0x00, 0x00, 0x00, 0x00, 0x00, 0x00, 0x00, 0x00, 0x00, 0x00, 0xff,
   0xff, 0x7f, 0x00, 0x00, 0x30, 0x00, 0x04, 0x00, 0x00, 0xf8, 0xff, 0x1f,
   0x00, 0x00, 0x00, 0x00, 0x00, 0x00, 0x00, 0x00, 0x00, 0x00, 0x00, 0x00,
   0xff, 0xff, 0xff, 0x03, 0x00, 0x60, 0x80, 0x03, 0x00, 0x00, 0xf8, 0xff,
   0x1f, 0x00, 0x00, 0x00, 0x00, 0x00, 0x00, 0x00, 0x00, 0x00, 0x00, 0x00,
   0x00, 0xff, 0xff, 0xff, 0x0b, 0x00, 0x80, 0x7f, 0x00, 0x00, 0x00, 0xfc,
   0xff, 0x1f, 0x00, 0x00, 0x00, 0x00, 0x00, 0x00, 0x00, 0x00, 0x00, 0x00,
   0x00, 0x00, 0xff, 0xff, 0xff, 0x2f, 0x00, 0x00, 0x00, 0x00, 0x00, 0x00,
   0xff, 0xff, 0x0f, 0x00, 0x00, 0x00, 0x00, 0x00, 0x00, 0x00, 0x00, 0x00,
   0x00, 0x00, 0x00, 0xff, 0xff, 0xff, 0x7f, 0x01, 0x00, 0x00, 0x00, 0x00,
   0xd0, 0xfd, 0xff, 0x0f, 0x00, 0x00, 0x00, 0x00, 0x00, 0x00, 0x00, 0x00,
   0x00, 0x00, 0x00, 0x00, 0xff, 0xff, 0xff, 0xff, 0x03, 0x00, 0x00, 0x00,
   0x00, 0xf2, 0xfe, 0xff, 0x07, 0x00, 0x00, 0x00, 0x00, 0x00, 0x00, 0x00,
   0x00, 0x00, 0x00, 0x00, 0x00, 0xfe, 0xff, 0xff, 0xff, 0x2f, 0x00, 0x00,
   0x00, 0x80, 0x5e, 0xfc, 0xff, 0x07, 0x00, 0x00, 0x00, 0x00, 0x00, 0x00,
   0x00, 0x00, 0x00, 0x00, 0x00, 0x00, 0xfe, 0xff, 0xff, 0xff, 0x7f, 0x01,
   0x00, 0x00, 0xd8, 0x97, 0xfe, 0xff, 0x07, 0x00, 0x00, 0x00, 0x00, 0x00,
   0x00, 0x00, 0x00, 0x00, 0x00, 0x00, 0x00, 0xfe, 0xff, 0xff, 0xff, 0xff,
   0x07, 0x00, 0xc0, 0x7f, 0x49, 0xfe, 0xff, 0x03, 0x00, 0x00, 0x00, 0x00,
   0x00, 0x00, 0x00, 0x00, 0x00, 0x00, 0x00, 0x00, 0xfe, 0xff, 0xff, 0xff,
   0xff, 0xc7, 0xff, 0xff, 0x5f, 0x11, 0xff, 0xff, 0x03, 0x00, 0x00, 0x00,
   0x00, 0x00, 0x00, 0x00, 0x00, 0x00, 0x00, 0x00, 0x00, 0xf8, 0xff, 0xff,
   0xff, 0xff, 0xe1, 0xff, 0xff, 0x00, 0x44, 0xff, 0xff, 0x03, 0x00, 0x00,
   0x00, 0x00, 0x00, 0x00, 0x00, 0x00, 0x00, 0x00, 0x00, 0x00, 0x00, 0xfe,
   0xff, 0xff, 0xff, 0x01, 0x1a, 0xe0, 0xaa, 0x08, 0xff, 0xff, 0x01, 0x00,
   0x00, 0x00, 0x00, 0x00, 0x00, 0x00, 0x00, 0x00, 0x00, 0x00, 0x00, 0x00,
   0xf0, 0x3f, 0xff, 0x7f, 0x00, 0x0c, 0xc0, 0x01, 0x51, 0xff, 0xff, 0x01,
   0x00, 0x00, 0x00, 0x00, 0x00, 0x00, 0x00, 0x00, 0x00, 0x00, 0x00, 0x00,
   0x00, 0x80, 0x3f, 0x40, 0x3f, 0x00, 0x3f, 0x80, 0x53, 0xc2, 0xff, 0xff,
   0x00, 0x00, 0x00, 0x00, 0x00, 0x00, 0x00, 0x00, 0x00, 0x00, 0x00, 0x00,
   0x00, 0x00, 0x00, 0x3e, 0x00, 0x3e, 0x00, 0x3f, 0x80, 0x07, 0xe9, 0xff,
   0xff, 0x01, 0x00, 0x00, 0x00, 0x00, 0x00, 0x00, 0x00, 0x00, 0x00, 0x00,
   0x00, 0x00, 0x00, 0x00, 0x10, 0x00, 0x1f, 0xc0, 0x7f, 0x00, 0x2e, 0xf4,
   0xff, 0xff, 0x00, 0x00, 0x00, 0x00, 0x00, 0x00, 0x00, 0x00, 0x00, 0x00,
   0x00, 0x00, 0x00, 0x00, 0x00, 0x00, 0x00, 0x7f, 0xc0, 0xec, 0x00, 0x9e,
   0xfd, 0xff, 0x7f, 0x00, 0x00, 0x00, 0x00, 0x00, 0x00, 0x00, 0x00, 0x00,
   0x00, 0x00, 0x00, 0x00, 0x00, 0x00, 0x00, 0x80, 0xff, 0xe5, 0xcc, 0x41,
   0xbf, 0xff, 0xff, 0x3f, 0x00, 0x00, 0x00, 0x00, 0x00, 0x00, 0x00, 0x00,
   0x00, 0x00, 0x00, 0x00, 0x00, 0x00, 0x00, 0x00, 0xc0, 0xe7, 0x3f, 0x8e,
   0xf9, 0xff, 0xeb, 0xff, 0x05, 0x00, 0x00, 0x00, 0x00, 0x00, 0x00, 0x00,
   0x00, 0x00, 0x00, 0x00, 0x00, 0x00, 0x00, 0x00, 0x00, 0xc0, 0x03, 0x7e,
   0x1c, 0x7f, 0xff, 0xf8, 0x0f, 0x00, 0x00, 0x00, 0x00, 0x00, 0x00, 0x00,
   0x00, 0x00, 0x00, 0x00, 0x00, 0x00, 0x00, 0x00, 0x00, 0x00, 0xc0, 0x03,
   0x0e, 0x8e, 0x0f, 0x78, 0xfa, 0x0f, 0x00, 0x00, 0x00, 0x00, 0x00, 0x00,
   0x00, 0x00, 0x00, 0x00, 0x00, 0x00, 0x00, 0x00, 0x00, 0x00, 0x00, 0xc0,
   0x01, 0x3e, 0x1c, 0x0f, 0xf8, 0xff, 0x1f, 0x00, 0x00, 0x00, 0x00, 0x00,
   0x00, 0x00, 0x00, 0x00, 0x00, 0x00, 0x00, 0x00, 0x00, 0x00, 0x00, 0x00,
   0xe0, 0xc1, 0x7f, 0xee, 0x1f, 0xf0, 0x5f, 0x7a, 0x00, 0x00, 0x00, 0x00,
   0x00, 0x00, 0x00, 0x00, 0x00, 0x00, 0x00, 0x00, 0x00, 0x00, 0x00, 0x00,
   0x00, 0xc0, 0xe0, 0xef, 0xfd, 0x3f, 0xf0, 0xdf, 0xe5, 0x00, 0x00, 0x00,
   0x00, 0x00, 0x00, 0x00, 0x00, 0x00, 0x00, 0x00, 0x00, 0x00, 0x00, 0xdb,
   0x02, 0x00, 0xc0, 0xf0, 0xe1, 0x5f, 0x7c, 0x70, 0x5f, 0xa5, 0x03, 0x00,
   0x00, 0x00, 0x00, 0x00, 0x00, 0x00, 0x00, 0x00, 0x00, 0x00, 0x00, 0x00,
   0xf7, 0x5f, 0x00, 0xc0, 0xb8, 0x00, 0x0f, 0xf0, 0x30, 0xbc, 0x4d, 0x07,
   0x00, 0x00, 0x00, 0x00, 0x00, 0x00, 0x00, 0x00, 0x00, 0x00, 0x00, 0x00,
   0x00, 0x02, 0xfa, 0x03, 0xc0, 0x38, 0x80, 0x2e, 0xe0, 0x31, 0xfc, 0x8b,
   0x1e, 0x00, 0x00, 0x00, 0x00, 0x00, 0x00, 0x00, 0x00, 0x00, 0x00, 0x00,
   0x00, 0x00, 0x47, 0x00, 0x3e, 0x80, 0x1c, 0x00, 0x2c, 0xc0, 0x31, 0x70,
   0xbb, 0x7e, 0x00, 0x00, 0x00, 0x00, 0x00, 0x00, 0x00, 0x00, 0x00, 0x00,
   0x00, 0x00, 0x00, 0x06, 0x52, 0xe9, 0xc0, 0x2c, 0xc0, 0x36, 0x80, 0x19,
   0xe0, 0xff, 0xff, 0x01, 0x00, 0x00, 0x00, 0x00, 0x00, 0x00, 0x00, 0x00,
   0x00, 0x00, 0x00, 0x00, 0x4e, 0x00, 0x80, 0x87, 0x4d, 0x40, 0x3e, 0x80,
   0x39, 0xf0, 0x7f, 0xad, 0x07, 0x00, 0x00, 0x00, 0x00, 0x00, 0x00, 0x00,
   0x00, 0x00, 0x00, 0x00, 0x00, 0x04, 0x89, 0x54, 0x9a, 0x6d, 0xc0, 0x1e,
   0x90, 0x1b, 0xfe, 0x81, 0x90, 0x1f, 0x00, 0x00, 0x00, 0x00, 0x00, 0x00,
   0x00, 0x00, 0x00, 0x00, 0x00, 0x00, 0x2e, 0x90, 0x00, 0xb2, 0xcf, 0xc0,
   0x0e, 0x00, 0xdf, 0xbf, 0x12, 0x82, 0xfb, 0x01, 0x00, 0x00, 0x00, 0x00,
   0x00, 0x00, 0x00, 0x00, 0x00, 0x00, 0x00, 0x8c, 0x00, 0x52, 0xe4, 0xdc,
   0x80, 0x0f, 0x94, 0x7f, 0x05, 0x44, 0xe9, 0xa1, 0x07, 0x00, 0x00, 0x00,
   0x00, 0x00, 0x00, 0x00, 0x00, 0x00, 0x00, 0x00, 0x0c, 0x4a, 0x80, 0xc0,
   0x99, 0x81, 0x0f, 0xd8, 0xbf, 0xa0, 0x10, 0xc8, 0x43, 0x3e, 0x00, 0x00,
   0x00, 0x00, 0x00, 0x00, 0x00, 0x00, 0x00, 0x00, 0x00, 0x98, 0x00, 0x25,
   0x74, 0xc8, 0xc0, 0x06, 0x4e, 0x1d, 0x05, 0x42, 0xf2, 0x09, 0xf0, 0x00,
   0x00, 0x00, 0x00, 0x00, 0x00, 0x00, 0x00, 0x00, 0x00, 0x00, 0x18, 0x24,
   0x80, 0xf0, 0x80, 0x83, 0x0f, 0x4e, 0x5c, 0xa8, 0x08, 0xd4, 0x93, 0x82,
   0x07, 0x00, 0x00, 0x00, 0x00, 0x00, 0x00, 0x00, 0x00, 0x00, 0x00, 0x28,
   0x81, 0x14, 0x3a, 0x88, 0x81, 0x07, 0x03, 0x3a, 0x01, 0x52, 0xfb, 0x4d,
   0x48, 0x0e, 0x00, 0x00, 0x00, 0x00, 0x00, 0x00, 0x00, 0x00, 0x00, 0x00,
   0x28, 0x10, 0x40, 0x1c, 0x01, 0xc7, 0x83, 0x4b, 0x38, 0x55, 0x82, 0xea,
   0x5b, 0x01, 0x78, 0x00, 0x00, 0x00, 0x00, 0x00, 0x00, 0x00, 0x00, 0x00,
   0x00, 0x18, 0x45, 0x09, 0x0d, 0x00, 0x86, 0xe3, 0x01, 0x70, 0x00, 0xa8,
   0xf7, 0xaf, 0xaa, 0x54, 0x01, 0x00, 0x00, 0x00, 0x00, 0x00, 0x00, 0x00,
   0x00, 0x00, 0x30, 0x08, 0x21, 0xac, 0x24, 0x9c, 0x63, 0xa9, 0xf6, 0xaa,
   0x62, 0x7d, 0xfe, 0x2a, 0x51, 0x07, 0x00, 0x00, 0x00, 0x00, 0x00, 0x00,
   0x00, 0x00, 0x00, 0x30, 0x20, 0x44, 0xbd, 0xdb, 0xfa, 0x73, 0x54, 0xed,
   0x01, 0x58, 0x3b, 0xec, 0x57, 0xa5, 0x1e, 0x00, 0x00, 0x00, 0x00, 0x00,
   0x00, 0x00, 0x00, 0x00, 0x60, 0x85, 0x08, 0xfa, 0xff, 0xff, 0x7f, 0x75,
   0xdb, 0x55, 0x75, 0x35, 0x80, 0xbf, 0x5d, 0x79, 0x00, 0x00, 0x00, 0x00,
   0x00, 0x00, 0x00, 0x00, 0x00, 0x60, 0x10, 0x22, 0xf8, 0x0f, 0xda, 0xff,
   0xff, 0xf7, 0x01, 0xda, 0x1f, 0x00, 0xfa, 0xd2, 0xea, 0x00, 0x00, 0x00,
   0x00, 0x00, 0x00, 0x00, 0x00, 0x00, 0xc0, 0x22, 0x44, 0xf1, 0x0d, 0x00,
   0x80, 0xfa, 0xff, 0xab, 0x56, 0x1d, 0x00, 0xf0, 0xb7, 0xd6, 0x03, 0x00,
   0x00, 0x00, 0x00, 0x00, 0x00, 0x00, 0x00, 0x40, 0x81, 0x10, 0x7c, 0x00,
   0x00, 0x00, 0xc0, 0x7f, 0x40, 0xad, 0x0e, 0x00, 0x80, 0x5f, 0x5b, 0x0f,
   0x00, 0x00, 0x00, 0x00, 0x00, 0x00, 0x00, 0x00, 0x40, 0x15, 0xd4, 0xfd,
   0x00, 0x00, 0x00, 0xf0, 0x79, 0xa9, 0xeb, 0x0d, 0x00, 0x00, 0xfa, 0x76,
   0x1d, 0x00, 0x00, 0x00, 0x00, 0x00, 0x00, 0x00, 0x00, 0x80, 0x41, 0xfd,
   0x3f, 0x00, 0x00, 0x00, 0x50, 0x78, 0xa4, 0x5e, 0x07, 0x00, 0x00, 0xe8,
   0xed, 0x1d, 0x00, 0x00, 0x00, 0x00, 0x00, 0x00, 0x00, 0x00, 0x00, 0x0b,
   0x50, 0x3f, 0x00, 0x00, 0x00, 0x00, 0xf0, 0xfa, 0x6a, 0x07, 0x00, 0x00,
   0xc0, 0x55, 0x7b, 0x00, 0x00, 0x00, 0x00, 0x00, 0x00, 0x00, 0x00, 0x00,
   0x23, 0x04, 0x17, 0x00, 0x00, 0x00, 0x00, 0xe0, 0xff, 0xdb, 0x01, 0x00,
   0x00, 0x80, 0xdf, 0x76, 0x00, 0x00, 0x00, 0x00, 0x00, 0x00, 0x00, 0x00,
   0x00, 0x86, 0x48, 0x1f, 0x00, 0x00, 0x00, 0x00, 0xe0, 0xff, 0xb6, 0x01,
   0x00, 0x00, 0x00, 0xde, 0xd6, 0x01, 0x00, 0x00, 0x00, 0x00, 0x00, 0x00,
   0x00, 0x00, 0x4e, 0xa0, 0x1d, 0x00, 0x00, 0x00, 0x00, 0xc0, 0xb7, 0xed,
   0x01, 0x00, 0x00, 0x00, 0xf8, 0xed, 0x02, 0x00, 0x00, 0x00, 0x00, 0x00,
   0x00, 0x00, 0x00, 0x0e, 0xc5, 0x0d, 0x00, 0x00, 0x00, 0x00, 0xc0, 0xef,
   0xea, 0x00, 0x00, 0x00, 0x00, 0xe0, 0xbb, 0x03, 0x00, 0x00, 0x00, 0x00,
   0x00, 0x00, 0x00, 0x00, 0x24, 0x70, 0x06, 0x00, 0x00, 0x00, 0x00, 0x80,
   0x5f, 0x6d, 0x00, 0x00, 0x00, 0x00, 0xa0, 0xd7, 0x06, 0x00, 0x00, 0x00,
   0x00, 0x00, 0x00, 0x00, 0x00, 0x8e, 0xe2, 0x06, 0x00, 0x00, 0x00, 0x00,
   0x00, 0xdf, 0x7b, 0x00, 0x00, 0x00, 0x00, 0x80, 0xbe, 0x07, 0x00, 0x00,
   0x00, 0x00, 0x00, 0x00, 0x00, 0x00, 0x24, 0x38, 0x03, 0x00, 0x00, 0x00,
   0x00, 0x00, 0xbf, 0x3a, 0x00, 0x00, 0x00, 0x00, 0x00, 0xd6, 0x0e, 0x00,
   0x00, 0x00, 0x00, 0x00, 0x00, 0x00, 0x00, 0x0e, 0x39, 0x01, 0x00, 0x00,
   0x00, 0x00, 0x00, 0x7e, 0x3b, 0x00, 0x00, 0x00, 0x00, 0x00, 0xdc, 0x0d,
   0x00, 0x00, 0x00, 0x00, 0x00, 0x00, 0x00, 0x00, 0x24, 0xce, 0x01, 0x00,
   0x00, 0x00, 0x00, 0x00, 0xfc, 0x36, 0x00, 0x00, 0x00, 0x00, 0x00, 0x7c,
   0x0f, 0x00, 0x00, 0x00, 0x00, 0x00, 0x00, 0x00, 0x00, 0x4c, 0x8c, 0x00,
   0x00, 0x00, 0x00, 0x00, 0x00, 0xfc, 0x3d, 0x00, 0x00, 0x00, 0x00, 0x00,
   0x58, 0x0d, 0x00, 0x00, 0x00, 0x00, 0x00, 0x00, 0x00, 0x00, 0x0c, 0x67,
   0x00, 0x00, 0x00, 0x00, 0x00, 0x00, 0xf8, 0x35, 0x00, 0x00, 0x00, 0x00,
   0x00, 0xf8, 0x1b, 0x00, 0x00, 0x00, 0x00, 0x00, 0x00, 0x00, 0x00, 0x5c,
   0xc7, 0x00, 0x00, 0x00, 0x00, 0x00, 0x00, 0xf8, 0x3b, 0x00, 0x00, 0x00,
   0x00, 0x00, 0xb8, 0x1e, 0x00, 0x00, 0x00, 0x00, 0x00, 0x00, 0x00, 0x00,
   0x84, 0x61, 0x00, 0x00, 0x00, 0x00, 0x00, 0x00, 0xf0, 0x1f, 0x00, 0x00,
   0x00, 0x00, 0x00, 0xfc, 0x1d, 0x00, 0x00, 0x00, 0x00, 0x00, 0x00, 0x00,
   0x00, 0xdc, 0x2b, 0x00, 0x00, 0x00, 0x00, 0x00, 0x00, 0xe0, 0x1f, 0x00,
   0x00, 0x00, 0x00, 0x00, 0xba, 0x1b, 0x00, 0xfe, 0xff, 0xbf, 0x02, 0x00,
   0x00, 0x00, 0xe8, 0x30, 0x00, 0x00, 0x00, 0x00, 0x00, 0x00, 0xc0, 0x1f,
   0x00, 0x00, 0x00, 0x00, 0x80, 0xd7, 0x0e, 0x00, 0xfe, 0xff, 0xff, 0x0f,
   0x00, 0x00, 0x00, 0xd8, 0x30, 0x00, 0x00, 0x00, 0x00, 0x00, 0x00, 0x80,
   0x1d, 0x00, 0x00, 0x00, 0x00, 0xe0, 0xd5, 0x0d, 0x00, 0xdb, 0xeb, 0x6f,
   0x1f, 0x00, 0x00, 0x00, 0x78, 0x1c, 0x00, 0x00, 0x00, 0x00, 0x00, 0x00,
   0xc0, 0x0f, 0x00, 0x00, 0x00, 0x00, 0x3c, 0xb2, 0x07, 0x68, 0xbf, 0x17,
   0x50, 0x39, 0x00, 0x00, 0x00, 0x38, 0x18, 0x00, 0x00, 0x00, 0x00, 0x00,
   0x00, 0x00, 0x1f, 0x00, 0x00, 0x00, 0x80, 0xee, 0x64, 0x07, 0x04, 0xe8,
   0xcb, 0x96, 0xe2, 0x0a, 0x00, 0x00, 0x9c, 0x0c, 0x00, 0x00, 0x00, 0x00,
   0x00, 0x00, 0x00, 0x3d, 0x00, 0x00, 0x00, 0xc0, 0x0b, 0xd5, 0x03, 0x04,
   0xc0, 0x55, 0x55, 0xcd, 0x3f, 0x00, 0x00, 0x1f, 0x08, 0x00, 0x00, 0x00,
   0x00, 0x00, 0x00, 0x00, 0x36, 0x00, 0x00, 0x00, 0x78, 0xb5, 0xf4, 0x00,
   0x14, 0x80, 0xab, 0x5a, 0x53, 0x35, 0x00, 0x80, 0x0f, 0x06, 0x00, 0x00,
   0x00, 0x00, 0x00, 0x00, 0x00, 0x6e, 0x00, 0x00, 0x00, 0xae, 0x42, 0x7b,
   0x00, 0x06, 0xc0, 0xab, 0xb5, 0x2a, 0x25, 0x00, 0xc0, 0x2f, 0x06, 0x00,
   0x00, 0x00, 0x00, 0x00, 0x00, 0x00, 0xfc, 0x00, 0x00, 0x80, 0x5b, 0x2d,
   0x1d, 0x00, 0x14, 0xc0, 0x6b, 0x55, 0x4b, 0x35, 0x00, 0xf0, 0x03, 0x03,
   0x00, 0x00, 0x00, 0x00, 0x00, 0x00, 0x00, 0xec, 0x01, 0x00, 0xf0, 0x25,
   0xd1, 0x07, 0x00, 0x06, 0xc0, 0xab, 0xaa, 0x2a, 0x35, 0x00, 0xf0, 0x27,
   0x02, 0x00, 0x00, 0x00, 0x00, 0x00, 0x00, 0x00, 0x98, 0x01, 0x00, 0x74,
   0x49, 0xab, 0x03, 0x00, 0x14, 0xc0, 0xab, 0xaa, 0x56, 0x6a, 0x48, 0xbc,
   0x01, 0x2f, 0x00, 0x00, 0x00, 0x00, 0x00, 0x00, 0x00, 0xf0, 0x03, 0x00,
   0x4f, 0x55, 0xfc, 0x00, 0x00, 0x06, 0xe0, 0x57, 0x52, 0x55, 0xf5, 0xff,
   0xef, 0x03, 0xf4, 0x17, 0x00, 0x00, 0x00, 0x00, 0x00, 0x00, 0x14, 0x03,
   0xe0, 0x15, 0xa9, 0x3d, 0x00, 0x00, 0x14, 0xc0, 0x59, 0x55, 0x55, 0xf5,
   0xfb, 0xdf, 0x40, 0x80, 0xfa, 0x05, 0x00, 0x00, 0x00, 0x80, 0xfa, 0x57,
   0x07, 0x7c, 0xaa, 0xd2, 0x0f, 0x00, 0x00, 0x06, 0xc0, 0x53, 0x55, 0x55,
   0xf5, 0x8a, 0xf7, 0x08, 0x04, 0x52, 0xff, 0x57, 0x25, 0xa9, 0xff, 0x57,
   0x80, 0x8e, 0x5f, 0x49, 0xd5, 0x03, 0x00, 0x00, 0x06, 0xc0, 0x5b, 0xa5,
   0xaa, 0xf4, 0xd5, 0x3f, 0x80, 0x00, 0x00, 0x20, 0xba, 0xff, 0xff, 0x2a,
   0x00, 0xa1, 0xfa, 0x4a, 0x52, 0x7e, 0x00, 0x00, 0x00, 0x0e, 0xe0, 0x2b,
   0x55, 0x55, 0xf5, 0x25, 0x7d, 0x02, 0x20, 0x40, 0x40, 0xa0, 0x24, 0x00,
   0x02, 0x04, 0x02, 0xb5, 0xaa, 0xaa, 0x1f, 0x00, 0x00, 0x00, 0x02, 0xc0,
   0x55, 0x55, 0xab, 0xfa, 0xed, 0x3e, 0x08, 0x02, 0x09, 0x02, 0x00, 0x80,
   0x92, 0x40, 0x10, 0x40, 0x7d, 0x29, 0xd5, 0x05, 0x00, 0x00, 0x00, 0x0e,
   0xe0, 0x5b, 0xaa, 0xaa, 0xfa, 0xdd, 0x1e, 0x20, 0x04, 0x00, 0x84, 0x44,
   0x02, 0x00, 0x84, 0x00, 0x04, 0xf2, 0xaa, 0xfa, 0x00, 0x00, 0x00, 0x00,
   0x06, 0xc0, 0x55, 0x55, 0x2b, 0xf5, 0xf7, 0x9f, 0x00, 0x20, 0x40, 0x00,
   0x00, 0x10, 0x00, 0x00, 0x20, 0x80, 0x6a, 0xa5, 0x3e, 0x00, 0x00, 0x00,
   0x00, 0x0a, 0xe0, 0x55, 0x49, 0x55, 0xf9, 0xff, 0x0f, 0x04, 0x00, 0x00,
   0x10, 0x00, 0x00, 0x92, 0x00, 0x02, 0x08, 0xea, 0xe9, 0x07, 0x00, 0x00,
   0x00, 0x00, 0x06, 0xe0, 0xad, 0xaa, 0xaa, 0xfa, 0xb6, 0x07, 0x20, 0x80,
   0x04, 0x80, 0x44, 0x40, 0x00, 0x84, 0x80, 0x00, 0x54, 0xff, 0x00, 0x00,
   0x00, 0x00, 0x00, 0x05, 0xe0, 0xa9, 0xaa, 0x2a, 0x35, 0x00, 0x97, 0x00,
   0x09, 0x00, 0x02, 0x00, 0x04, 0x00, 0x00, 0x08, 0x40, 0xc8, 0x3f, 0x00,
   0x00, 0x00, 0x00, 0x00, 0x02, 0xc0, 0x9b, 0xaa, 0xaa, 0x1a, 0x00, 0x01,
   0x42, 0x00, 0x10, 0x00, 0x08, 0x00, 0x09, 0x08, 0x80, 0x00, 0x2a, 0x03,
   0x00, 0x00, 0x00, 0x00, 0x00, 0x02, 0xe0, 0xb5, 0xaa, 0xaa, 0x1a, 0x00,
   0x03, 0x04, 0x00, 0x42, 0x90, 0x80, 0x10, 0x90, 0x00, 0x01, 0x12, 0x68,
   0x03, 0x00, 0x00, 0x00, 0x00, 0x00, 0x07, 0xe0, 0xd5, 0x6d, 0x95, 0x34,
   0x00, 0x5f, 0x00, 0x51, 0x00, 0x02, 0x10, 0x00, 0x00, 0x10, 0x08, 0x40,
   0x50, 0x07, 0x00, 0x00, 0x00, 0x00, 0x00, 0xfc, 0xff, 0x2a, 0x55, 0xa9,
   0x1f, 0x00, 0x7f, 0x25, 0x00, 0x00, 0x00, 0x00, 0x22, 0x01, 0x02, 0x40,
   0x00, 0xd0, 0x06, 0x00, 0x00, 0x00, 0x00, 0x00, 0x80, 0xff, 0x55, 0x55,
   0xf5, 0x1f, 0x00, 0xaa, 0xaf, 0x02, 0x49, 0x44, 0x42, 0x00, 0x48, 0x20,
   0x01, 0x41, 0xb5, 0x07, 0x00, 0x00, 0x00, 0x00, 0x00, 0x80, 0xea, 0x4a,
   0x95, 0x1a, 0x00, 0x00, 0x00, 0xf8, 0x2d, 0x00, 0x00, 0x00, 0x04, 0x00,
   0x00, 0x08, 0x14, 0xf5, 0x07, 0x00, 0x00, 0x00, 0x00, 0x00, 0x00, 0xff,
   0xbb, 0x6a, 0x1d, 0x00, 0x00, 0x00, 0x00, 0xbf, 0x12, 0x08, 0x04, 0x20,
   0x80, 0x04, 0xa0, 0xfa, 0x0b, 0x00, 0x00, 0x00, 0x00, 0x00, 0x00, 0x00,
   0xf4, 0xff, 0xff, 0x07, 0x00, 0x00, 0x00, 0x00, 0xe0, 0xef, 0x42, 0x90,
   0x00, 0x09, 0x48, 0xd5, 0x17, 0x00, 0x00, 0x00, 0x00, 0x00, 0x00, 0x00,
   0x00, 0x00, 0x00, 0x00, 0x01, 0x00, 0x00, 0x00, 0x00, 0x00, 0xd8, 0xbf,
   0x77, 0xb7, 0xea, 0xfd, 0x1f, 0x00, 0x00, 0x00, 0x00, 0x00, 0x00, 0x00,
   0x00, 0x00, 0x00, 0x00, 0x00, 0x00, 0x00, 0x00, 0x00, 0x00, 0x00, 0x00,
   0xe8, 0xfe, 0xff, 0xdf, 0x17, 0x00, 0x00, 0x00, 0x00, 0x00, 0x00, 0x00,
   0x00, 0x00, 0x00, 0x00, 0x00, 0x00, 0x00, 0x00, 0x00, 0x00, 0x00, 0x00,
   0x00, 0xc0, 0xa4, 0xae, 0x6a, 0x00, 0x00, 0x00, 0x00, 0x00, 0x00, 0x00,
   0x00, 0x00, 0x00, 0x00, 0x00, 0x00, 0x00, 0x00, 0x00, 0x00, 0x00, 0x00,
   0x00, 0x00, 0x80, 0x00, 0x0e, 0x60, 0x00, 0x00, 0x00, 0x00, 0x00, 0x00,
   0x00, 0x00, 0x00, 0x00, 0x00, 0x00, 0x00, 0x00, 0x00, 0x00, 0x00, 0x00,
   0x00, 0x00, 0x00, 0xc0, 0x00, 0x0e, 0x60, 0x00, 0x00, 0x00, 0x00, 0x00,
   0x00, 0x00, 0x00, 0x00, 0x00, 0x00, 0x00, 0x00, 0x00, 0x00, 0x00, 0x00,
   0x00, 0x00, 0x00, 0x00, 0x80, 0x00, 0x0e, 0x60, 0x00, 0x00, 0x00, 0x00,
   0x00, 0x00, 0x00, 0x00, 0x00, 0x00, 0x00, 0x00, 0x00, 0x00, 0x00, 0x00,
   0x00, 0x00, 0x00, 0x00, 0x00, 0xc0, 0x00, 0x0e, 0x20, 0x00, 0x00, 0x00,
   0x00, 0x00, 0x00, 0x00, 0x00, 0x00, 0x00, 0x00, 0x00, 0x00, 0x00, 0x00,
   0x00, 0x00, 0x00, 0x00, 0x00, 0x00, 0x80, 0x00, 0x0e, 0x60, 0x00, 0x00,
   0x00, 0x00, 0x00, 0x00, 0x00, 0x00, 0x00, 0x00, 0x00, 0x00, 0x00, 0x00,
   0x00, 0x00, 0x00, 0x00, 0x00, 0x00, 0x00, 0x80, 0x00, 0x0e, 0x30, 0x00,
   0x00, 0x00, 0x00, 0x00, 0x00, 0x00, 0x00, 0x00, 0x00, 0x00, 0x00, 0x00,
   0x00, 0x00, 0x00, 0x00, 0x00, 0x00, 0x00, 0x00, 0xc0, 0x00, 0x0e, 0x20,
   0x00, 0x00, 0x00, 0x00, 0x00, 0x00, 0x00, 0x00, 0x00, 0x00, 0x00, 0x00,
   0x00, 0x00, 0x00, 0x00, 0x00, 0x00, 0x00, 0x00, 0x00, 0x80, 0x00, 0x0e,
   0x30, 0x00, 0x00, 0x00, 0x00, 0x00, 0x00, 0x00, 0x00, 0x00, 0x00, 0x00,
   0x00, 0x00, 0x00, 0x00, 0x00, 0x00, 0x00, 0x00, 0x00, 0x00, 0x80, 0x01,
   0x0e, 0x30, 0x00, 0x00, 0x00, 0x00, 0x00, 0x00, 0x00, 0x00, 0x00, 0x00,
   0x00, 0x00, 0x00, 0x00, 0x00, 0x00, 0x00, 0x00, 0x00, 0x00, 0x00, 0x80,
   0x00, 0x0e, 0x30, 0x00, 0x00, 0x00, 0x00, 0x00, 0x00, 0x00, 0x00, 0x00,
   0x00, 0x00, 0x00, 0x00, 0x00, 0x00, 0x00, 0x00, 0x00, 0x00, 0x00, 0x00,
   0x80, 0x01, 0x0e, 0x30, 0x00, 0x00, 0x00, 0x00, 0x00, 0x00, 0x00, 0x00,
   0x00, 0x00, 0x00, 0x00, 0x00, 0x00, 0x00, 0x00, 0x00, 0x00, 0x00, 0x00,
   0x00, 0x80, 0x00, 0x0e, 0x10, 0x00, 0x00, 0x00, 0x00, 0x00, 0x00, 0x00,
   0x00, 0x00, 0x00, 0x00, 0x00, 0x00, 0x00, 0x00, 0x00, 0x00, 0x00, 0x00,
   0x00, 0x00, 0x80, 0x01, 0x0e, 0x30, 0x00, 0x00, 0x00, 0x00, 0x00, 0x00,
   0x00, 0x00, 0x00, 0x00, 0x00, 0x00, 0x00, 0x00, 0x00, 0x00, 0x00, 0x00,
   0x00, 0x00, 0x00, 0x80, 0x00, 0x06, 0x10, 0x00, 0x00, 0x00, 0x00, 0x00,
   0x00, 0x00, 0x00, 0x00, 0x00, 0x00, 0x00, 0x00, 0x00, 0x00, 0x00, 0x00,
   0x00, 0x00, 0x00, 0x00, 0x80, 0x01, 0x0e, 0x18, 0x00, 0x00, 0x00, 0x00,
   0x00, 0x00, 0x00, 0x00, 0x00, 0x00, 0x00, 0x00, 0x00, 0x00, 0x00, 0x00,
   0x00, 0x00, 0x00, 0x00, 0x00, 0x80, 0x00, 0x06, 0x30, 0x00, 0x00, 0x00,
   0x00, 0x00, 0x00, 0x00, 0x00, 0x00, 0x00, 0x00, 0x00, 0x00, 0x00, 0x00,
   0x00, 0x00, 0x00, 0x00, 0x00, 0x00, 0x80, 0x01, 0x06, 0x10, 0x00, 0x00,
   0x00, 0x00, 0x00, 0x00, 0x00, 0x00, 0x00, 0x00, 0x00, 0x00, 0x00, 0x00,
   0x00, 0x00, 0x00, 0x00, 0x00, 0x00, 0x00, 0x80, 0x00, 0x04, 0x18, 0x00,
   0x00, 0x00, 0x00, 0x00, 0x00, 0x00, 0x00, 0x00, 0x00, 0x00, 0x00, 0x00,
   0x00, 0x00, 0x00, 0x00, 0x00, 0x00, 0x00, 0x00, 0x80, 0x95, 0x96, 0x18,
   0x00, 0x00, 0x00, 0x00, 0x00, 0x00, 0x00, 0x00, 0x00, 0x00, 0x00, 0x00,
   0x00, 0x00, 0x00, 0x00, 0x00, 0x00, 0x00, 0x00, 0x00, 0x80, 0xff, 0xff,
   0x3f, 0x00, 0x00, 0x00, 0x00, 0x00, 0x00, 0x00, 0x00, 0x00, 0x00, 0x00,
   0x00, 0x00, 0x00, 0x00, 0x00, 0x00, 0x00, 0x00, 0x00, 0x00, 0x80, 0xff,
   0xff, 0x1f, 0x00, 0x00, 0x00, 0x00, 0x00, 0x00, 0x00, 0x00, 0x00, 0x00,
   0x00, 0x00, 0x00, 0x00, 0x00, 0x00, 0x00, 0x00, 0x00, 0x00, 0x00, 0x80,
   0x77, 0xef, 0x1b, 0x00, 0x00, 0x00, 0x00, 0x00, 0x00, 0x00, 0x00, 0x00,
   0x00, 0x00, 0x00, 0x00, 0x00, 0x00, 0x00, 0x00, 0x00, 0x00, 0x00, 0x00,
   0x80, 0xef, 0x5f, 0x1f, 0x00, 0x00, 0x00, 0x00, 0x00, 0x00, 0x00, 0x00,
   0x00, 0x00, 0x00, 0x00, 0x00, 0x00, 0x00, 0x00, 0x00, 0x00, 0x00, 0x00,
   0x00, 0x80, 0xff, 0xff, 0x1f, 0x00, 0x00, 0x00, 0x00, 0x00, 0x00, 0x00,
   0x00, 0x00, 0x00, 0x00, 0x00, 0x00, 0x00, 0x00, 0x00, 0x00, 0x00, 0x00,
   0x00, 0x00, 0x00, 0x7d, 0xff, 0x1f, 0x00, 0x00, 0x00, 0x00, 0x00, 0x00,
   0x00, 0x00, 0x00, 0x00, 0x00, 0x00, 0x00, 0x00, 0x00, 0x00, 0x00, 0x00,
   0x00, 0x00, 0x00, 0x00, 0x00, 0x00, 0x00, 0x00, 0x00, 0x00, 0x00, 0x00,
   0x00, 0x00, 0x00, 0x00, 0x00, 0x00, 0x00, 0x00, 0x00, 0x00, 0x00, 0x00,
   0x00, 0x00, 0x00, 0x00, 0x00, 0x00, 0x00, 0x00, 0x00, 0x00, 0x00, 0x00,
   0x00, 0x00, 0x00, 0x00, 0x00, 0x00, 0x00, 0x00, 0x00, 0x00, 0x00, 0x00,
   0x00, 0x00, 0x00, 0x00, 0x00, 0x00, 0x00, 0x00, 0x00, 0x00, 0x00, 0x00,
   0x00, 0x00, 0x00, 0x00, 0x00, 0x00, 0x00, 0x00, 0x00, 0x00, 0x00, 0x00,
   0x00, 0x00, 0x00, 0x00, 0x00, 0x00, 0x00, 0x00, 0x00, 0x00, 0x00, 0x00,
   0x00, 0x00, 0x00, 0x00, 0x00, 0x00, 0x00, 0x00, 0x00, 0x00, 0x00, 0x00,
   0x00, 0x00, 0x00, 0x00, 0x00, 0x00, 0x00, 0x00, 0x00, 0x00, 0x00, 0x00,
   0x00, 0x00, 0x00, 0x00, 0x00, 0x00, 0x00, 0x00, 0x00, 0x00, 0x00, 0x00,
   0x00, 0x00, 0x00, 0x00, 0x00, 0x00, 0x00, 0x00, 0x00, 0x00, 0x00, 0x00,
   0x00, 0x00, 0x00, 0x00, 0x00, 0x00, 0x00, 0x00, 0x00, 0x00, 0x00, 0x00,
   0x00, 0x00, 0x00, 0x00, 0x00, 0x00, 0x00, 0x00, 0x00, 0x00, 0x00, 0x00,
   0x00, 0x00, 0x00, 0x00, 0x00, 0x00, 0x00, 0x00, 0x00, 0x00, 0x00, 0x00,
   0x00, 0x00, 0x00, 0x00, 0x00, 0x00, 0x00, 0x00, 0x00, 0x00, 0x00, 0x00,
   0x00, 0x00, 0x00, 0x00, 0x00, 0x00, 0x00, 0x00, 0x00, 0x00, 0x00, 0x00,
   0x00, 0x00, 0x00, 0x00, 0x00, 0x00, 0x00, 0x00, 0x00, 0x00, 0x00, 0x00,
   0x00, 0x00, 0x00, 0x00, 0x00, 0x00, 0x00, 0x00, 0x00, 0x00, 0x00, 0x00,
   0x00, 0x00, 0x00, 0x00, 0x00, 0x00, 0x00, 0x00, 0x00, 0x00, 0x00, 0x00,
   0x00, 0x00, 0x00, 0x00, 0x00, 0x00, 0x00, 0x00, 0x00, 0x00, 0x00, 0x00,
   0x00, 0x00, 0x00, 0x00, 0x00, 0x00, 0x00, 0x00, 0x00, 0x00, 0x00, 0x00,
   0x00, 0x00, 0x00, 0x00, 0x00, 0x00, 0x00, 0x00, 0x00, 0x00, 0x00, 0x00,
   0x00, 0x00, 0x00, 0x00, 0x00, 0x00, 0x00, 0x00, 0x00, 0x00, 0x00, 0x00,
   0x00, 0x00, 0x00, 0x00, 0x00, 0x00, 0x00, 0x00, 0x00, 0x00, 0x00, 0x00,
   0x00, 0x00, 0x00, 0x00, 0x00, 0x00, 0x00, 0x00, 0x00, 0x00, 0x00, 0x00,
   0x00, 0x00, 0x00, 0x00, 0x00, 0x00, 0x00, 0x00, 0x00, 0x00, 0x00, 0x00,
   0x00, 0x00, 0x00, 0x00, 0x00, 0x00, 0x00, 0x00, 0x00, 0x00, 0x00, 0x00,
   0x00, 0x00, 0x00, 0x00, 0x00, 0x00, 0x00, 0x00, 0x00, 0x00, 0x00, 0x00,
   0x00, 0x00, 0x00, 0x00, 0x00, 0x00, 0x00, 0x00, 0x00, 0x00, 0x00, 0x00,
   0x00, 0x00, 0x00, 0x00, 0x00, 0x00, 0x00, 0x00, 0x00, 0x00, 0x00, 0x00,
   0x00, 0x00, 0x00, 0x00, 0x00, 0x00, 0x00, 0x00, 0x00, 0x00, 0x00, 0x00,
   0x00, 0x00, 0x00, 0x00, 0x00, 0x00, 0x00, 0x00, 0x00, 0x00, 0x00, 0x00,
   0x00, 0x00, 0x00, 0x00, 0x00, 0x00, 0x00, 0x00, 0x00, 0x00, 0x00, 0x00,
   0x00, 0x00, 0x00, 0x00, 0x00, 0x00, 0x00, 0x00, 0x00, 0x00, 0x00, 0x00,
   0x00, 0x00, 0x00, 0x00, 0x00, 0x00, 0x00, 0x00, 0x00, 0x00, 0x00, 0x00,
   0x00, 0x00, 0x00, 0x00, 0x00, 0x00, 0x00, 0x00, 0x00, 0x00, 0x00, 0x00,
   0x00, 0x00, 0x00, 0x00, 0x00, 0x00, 0x00, 0x00, 0x00, 0x00, 0x00, 0x00,
   0x00, 0x00, 0x00, 0x00, 0x00, 0x00, 0x00, 0x00, 0x00, 0x00, 0x00, 0x00,
   0x00, 0x00, 0x00, 0x00, 0x00, 0x00, 0x00, 0x00, 0x00, 0x00, 0x00, 0x00,
   0x00, 0x00, 0x00, 0x00, 0x00, 0x00, 0x00, 0x00, 0x00, 0x00, 0x00, 0x00,
   0x00, 0x00, 0x00, 0x00, 0x00, 0x00, 0x00, 0x00, 0x00, 0x00, 0x00, 0x00,
   0x00, 0x00, 0x00, 0x00, 0x00, 0x00, 0x00, 0x00, 0x00, 0x00, 0x00, 0x00,
   0x00, 0x00, 0x00, 0x00, 0x00, 0x00, 0x00, 0x00, 0x00, 0x00, 0x00, 0x00,
   0x00 };
